<?xml version="1.0" encoding="UTF-8"?><svg id="Layer_1" xmlns="http://www.w3.org/2000/svg" width="263.1685" height="90.2278" viewBox="0 0 263.1685 90.2278"><polygon points="143.8691 73.1317 138.9421 85.1637 134.0401 73.1317 131.2211 73.1317 131.2211 88.9307 133.1881 88.9307 133.1881 75.7847 138.5401 88.9307 139.3461 88.9307 144.7221 75.7847 144.7221 88.9307 146.6881 88.9307 146.6881 73.1317 143.8691 73.1317" fill="#5d1b24"/><path d="M161.211,74.8846l3.412,8.787h-6.845l3.433-8.787Zm-1.231-1.752l-6.347,15.798h2.178l1.398-3.506h8.005l1.398,3.506h2.179l-6.371-15.798h-2.44Z" fill="#5d1b24"/><path d="M180.8396,82.6541h-3.15v6.276h-1.966v-15.798h6.348c2.889,0,4.95,1.848,4.95,4.761,0,2.842-1.942,4.405-4.098,4.594l4.264,6.443h-2.321l-4.027-6.276Zm.995-7.769h-4.145v6.04h4.145c1.871,0,3.15-1.255,3.15-3.032s-1.279-3.008-3.15-3.008" fill="#5d1b24"/><polygon points="218.4689 81.8247 216.8819 83.6247 216.8819 88.9307 214.9169 88.9307 214.9169 73.1328 216.8819 73.1328 216.8819 81.3027 223.8689 73.1328 226.3329 73.1328 219.7479 80.6407 226.9009 88.9307 224.4609 88.9307 218.4689 81.8247" fill="#5d1b24"/><polygon points="233.9258 73.1324 244.2758 73.1324 244.2758 74.8854 235.8918 74.8854 235.8918 79.9774 244.1108 79.9774 244.1108 81.7294 235.8918 81.7294 235.8918 87.1774 244.2758 87.1774 244.2758 88.9294 233.9258 88.9294 233.9258 73.1324" fill="#5d1b24"/><polygon points="256.1815 74.885 251.1835 74.885 251.1835 73.132 263.1685 73.132 263.1685 74.885 258.1475 74.885 258.1475 88.9301 256.1815 88.9301 256.1815 74.885" fill="#5d1b24"/><path d="M24.882,51.7984c.104,.731,.325,1.253,.665,1.566,.339,.311,.717,.521,1.136,.625,.416,.105,.885,.105,1.408,0v1.957h-11.502v-1.957c.469,.105,.885,.105,1.252,0,.26-.104,.494-.314,.703-.625,.208-.313,.26-.835,.157-1.566,0-.104-.144-1.029-.43-2.778-.287-1.748-.639-4.055-1.057-6.923H7.199c-.522,2.868-.928,5.175-1.214,6.923-.287,1.749-.43,2.674-.43,2.778-.156,.731-.144,1.253,.039,1.566,.184,.311,.404,.521,.666,.625,.313,.105,.729,.105,1.252,0v1.957H0v-1.957c.47,.105,.938,.105,1.408,0,.418-.104,.796-.314,1.135-.625,.339-.313,.587-.835,.743-1.566,0-.052,.13-.821,.392-2.307,.26-1.488,.612-3.443,1.055-5.869,.444-2.425,.952-5.177,1.527-8.256,.573-3.076,1.147-6.231,1.721-9.467L12.676,.2344h3.991c1.512,9.546,2.868,18.075,4.068,25.587,.521,3.235,1.018,6.39,1.487,9.468,.469,3.079,.899,5.829,1.291,8.255,.391,2.425,.716,4.395,.978,5.906,.261,1.515,.391,2.296,.391,2.348M7.512,40.0614h9.467c-.312-2.138-.665-4.433-1.056-6.885-.391-2.452-.783-4.917-1.174-7.394-.391-2.478-.783-4.892-1.173-7.238-.392-2.348-.743-4.511-1.057-6.495-.418,1.984-.834,4.147-1.252,6.495-.418,2.346-.848,4.76-1.29,7.238-.445,2.4771-.875,4.942-1.292,7.394-.418,2.452-.809,4.747-1.173,6.885"/><path d="M42.722,51.7207c0,.73,.117,1.265,.353,1.604,.233,.339,.456,.536,.664,.587,.261,.157,.599,.157,1.018,0v2.034h-9.468v-2.034c.417,.157,.782,.157,1.095,0,.157-.051,.365-.248,.626-.587s.391-.874,.391-1.604V4.3027c0-.782-.13-1.342-.391-1.682-.261-.338-.469-.56-.626-.665-.313-.156-.678-.156-1.095,0V.0778h7.433V51.7207Z"/><path d="M75.1943,52.2688c0,.731,.104,1.213,.313,1.446,.207,.236,.442,.38,.703,.431,.261,.053,.6-.025,1.018-.234v2.034h-7.355v-2.973c-.21,.312-.419,.586-.626,.822-.209,.234-.444,.483-.704,.743-.888,.731-1.905,1.304-3.052,1.721-.053,0-.105,.025-.157,.078h-.156c-.627,.207-1.408,.313-2.348,.313h-.234c-2.923-.052-5.282-.951-7.081-2.699-1.8-1.747-2.7-4.5-2.7-8.255V28.0898c0-1.877,.234-3.508,.704-4.89,.469-1.381,1.135-2.503,1.996-3.365,.86-.86,1.877-1.511,3.051-1.956,1.174-.443,2.516-.69,4.03-.743h.234c.94,0,1.721,.105,2.348,.313h.156l.157,.078c1.147,.3651,2.164,.94,3.052,1.721,.26,.209,.495,.445,.704,.705,.207,.26,.416,.547,.626,.861V4.4588c0-.832-.118-1.407-.353-1.7209-.234-.313-.458-.5211-.665-.625-.366-.158-.731-.158-1.095,0V.0778h7.434V52.2688Zm-12.52,2.581c.886,.052,1.733-.077,2.543-.391,.808-.313,1.526-.783,2.152-1.407,.626-.627,1.174-1.488,1.643-2.583,.469-1.095,.755-2.452,.861-4.069V27.3078c-.106-1.565-.392-2.895-.861-3.99-.469-1.097-1.017-1.969-1.643-2.621-.626-.652-1.344-1.122-2.152-1.41-.81-.284-1.657-.402-2.543-.35-1.408,.104-2.4,.69-2.974,1.76s-.887,2.934-.938,5.593v.079c0,.209-.014,.849-.039,1.917-.027,1.07-.04,2.335-.04,3.795v9.664c0,1.486,.013,2.751,.04,3.794,.025,1.045,.039,1.671,.039,1.878v.079c.051,2.661,.364,4.525,.938,5.594,.574,1.071,1.566,1.656,2.974,1.76"/><path d="M106.0219,23.3176c0,.105,.026,.313,.078,.625,.052,.313,.052,.575,0,.783-.052,1.096-.43,1.995-1.135,2.7-.703,.703-1.552,1.0551-2.543,1.0551-1.044,0-1.916-.363-2.621-1.0941-.705-.731-1.056-1.616-1.056-2.6609,0-1.303,.496-2.295,1.487-2.974,.104-.051,.168-.0891,.195-.117l.117-.117c.365-.261,.6-.638,.705-1.134,.104-.497-.209-.927-.939-1.291-.47-.26-.939-.392-1.409-.392-1.565-.104-2.947,.365-4.147,1.409-1.2,1.044-2.009,2.869-2.425,5.476v26.136c0,.73,.104,1.265,.312,1.603,.208,.34,.418,.535,.627,.587,.313,.156,.651,.156,1.017,0v2.035h-9.468v-2.035c.417,.156,.73,.156,.939,0,.26-.052,.521-.247,.783-.587,.26-.338,.391-.873,.391-1.603V21.9086c0-.729-.131-1.264-.391-1.604-.262-.339-.523-.56-.783-.665-.209-.104-.522-.104-.939,0v-1.956h7.512v3.207c.364-.573,.73-1.108,1.095-1.604,.364-.494,.795-.911,1.291-1.251,.496-.339,1.069-.613,1.722-.822,.651-.208,1.473-.313,2.464-.313,1.513,0,2.921,.548,4.225,1.644,1.304,1.095,2.269,2.688,2.896,4.773"/><path d="M120.0281,51.7202c0,.731,.104,1.267,.313,1.605,.208,.34,.443,.535,.704,.586,.261,.157,.574,.157,.939,0v2.034h-9.389v-2.034c.364,.157,.704,.157,1.017,0,.26-.051,.495-.246,.704-.586,.208-.338,.313-.874,.313-1.605V21.9083c0-.677-.105-1.186-.313-1.525-.209-.34-.444-.56-.704-.666-.313-.104-.653-.104-1.017,0v-1.954h7.433V51.7202Zm.704-42.566c0,.992-.34,1.814-1.017,2.466-.678,.652-1.486,.977-2.426,.977-.938,0-1.721-.325-2.347-.977-.626-.652-.939-1.474-.939-2.466,0-.938,.313-1.721,.939-2.348,.626-.624,1.409-.938,2.347-.938,.94,0,1.748,.314,2.426,.938,.677,.627,1.017,1.41,1.017,2.348"/><path d="M140.9193,18.9359c-1.67,.104-3.065,.952-4.186,2.542-1.122,1.593-1.682,3.979-1.682,7.159v17.293c0,1.775,.169,3.236,.508,4.382,.339,1.149,.809,2.061,1.409,2.739,.599,.678,1.303,1.147,2.113,1.408,.808,.262,1.655,.39,2.543,.39,1.095,0,2.137-.154,3.129-.468,.991-.312,1.878-.834,2.66-1.565,.783-.73,1.41-1.733,1.879-3.013,.469-1.277,.705-2.855,.705-4.734h1.721v1.018c0,1.461-.196,2.83-.588,4.107-.391,1.279-1.017,2.4-1.877,3.365-.861,.966-1.97,1.722-3.326,2.27-1.357,.547-3.026,.821-5.008,.821-1.251,0-2.531-.247-3.834-.743-1.305-.495-2.478-1.2-3.52-2.112-1.045-.913-1.906-2.021-2.583-3.327-.679-1.302-1.017-2.763-1.017-4.381V28.5599c0-1.773,.338-3.3651,1.017-4.773,.677-1.409,1.538-2.607,2.583-3.6,1.042-.991,2.215-1.7469,3.52-2.268,1.303-.521,2.583-.783,3.834-.783,.626,0,1.225,.026,1.8,.078,.573,.052,1.146,.209,1.721,.469,.052,.052,.13,.079,.235,.079l.626,.235c.573,.105,1.174,.353,1.8,.743,.626,.39,1.173,.587,1.644,.587,.625,0,.938-.522,.938-1.565h2.035v13.223h-1.721c0-.676-.028-1.448-.08-2.308-.052-.861-.169-1.721-.351-2.582-.184-.86-.47-1.708-.861-2.543-.391-.834-.901-1.59-1.526-2.268-.938-.94-1.956-1.566-3.051-1.88-1.096-.312-2.166-.468-3.209-.468"/><path d="M167.3659,0V20.657c.104-.156,.286-.417,.548-.783,.261-.364,.665-.755,1.212-1.173,.549-.418,1.24-.782,2.074-1.095,.834-.314,1.826-.47,2.974-.47h.234c1.095,0,2.178,.222,3.247,.664,1.069,.445,2.022,1.109,2.856,1.996,.835,.887,1.499,2.023,1.996,3.403,.495,1.383,.744,3.013,.744,4.8911v23.631c0,.991,.182,1.617,.547,1.878,.364,.261,.678,.39,.938,.39h.392c.052,0,.104-.024,.157-.078v2.035h-9.468v-2.035c.052,.054,.104,.078,.156,.078h.313c.313,0,.627-.104,.939-.313,.313-.206,.521-.729,.626-1.564v-9.468c0-1.825-.013-3.677-.039-5.555-.027-1.878-.039-3.573-.039-5.087v-5.633h-.077v-.079c-.106-2.659-.419-4.538-.941-5.633-.521-1.096-1.434-1.695-2.737-1.8h-.236c-1.617,0-3.025,.614-4.225,1.839-1.2,1.227-1.931,3.352-2.191,6.377v24.648c0,.991,.169,1.617,.509,1.878,.339,.261,.665,.39,.978,.39h.313c.052,0,.104-.024,.157-.078v2.035h-9.468v-2.035c.051,.054,.104,.078,.157,.078h.39c.261,0,.573-.129,.94-.39,.364-.261,.547-.887,.547-1.878V4.225c0-.991-.183-1.643-.547-1.957-.367-.312-.679-.468-.94-.468-.104,0-.183,.014-.234,.038-.053,.028-.105,.04-.156,.04h-.157V0h7.511Z"/><line x1="200.962" y1="17.9848" x2="200.962" y2="90.2278" fill="none" stroke="#000" stroke-miterlimit="10" stroke-width="1.348"/></svg>