<?xml version="1.0" encoding="UTF-8"?><svg id="Layer_1" xmlns="http://www.w3.org/2000/svg" width="200" height="200" viewBox="0 0 200 200"><circle cx="101.6256" cy="101.8814" r="95.4547" fill="#383838"/><circle cx="98.3744" cy="98.1186" r="95.4547" fill="#fff"/><g id="aldrich-market"><polygon points="107.4884 117.0788 104.4851 124.4131 101.497 117.0788 99.7786 117.0788 99.7786 126.7094 100.9776 126.7094 100.9776 118.696 104.2401 126.7094 104.7314 126.7094 108.0084 118.696 108.0084 126.7094 109.2068 126.7094 109.2068 117.0788 107.4884 117.0788" fill="#5d1b24"/><path d="M118.0595,118.1473l2.0799,5.3563h-4.1725l2.0926-5.3563Zm-.7504-1.068l-3.8689,9.63h1.3276l.8522-2.1372h4.8796l.8522,2.1372h1.3283l-3.8836-9.63h-1.4873Z" fill="#5d1b24"/><path d="M130.0245,122.8833h-1.9201v3.8257h-1.1984v-9.63h3.8695c1.761,0,3.0174,1.1265,3.0174,2.9021,0,1.7324-1.1838,2.6851-2.498,2.8004l2.5992,3.9275h-1.4148l-2.4547-3.8257Zm.6065-4.7357h-2.5267v3.6818h2.5267c1.1405,0,1.9201-.765,1.9201-1.8482s-.7796-1.8336-1.9201-1.8336" fill="#5d1b24"/><polygon points="152.9621 122.3778 151.9947 123.475 151.9947 126.7094 150.7969 126.7094 150.7969 117.0794 151.9947 117.0794 151.9947 122.0596 156.2538 117.0794 157.7558 117.0794 153.7418 121.656 158.102 126.7094 156.6147 126.7094 152.9621 122.3778" fill="#5d1b24"/><polygon points="162.3842 117.0792 168.6932 117.0792 168.6932 118.1478 163.5826 118.1478 163.5826 121.2517 168.5926 121.2517 168.5926 122.3197 163.5826 122.3197 163.5826 125.6406 168.6932 125.6406 168.6932 126.7086 162.3842 126.7086 162.3842 117.0792" fill="#5d1b24"/><polygon points="175.9505 118.1475 172.9039 118.1475 172.9039 117.079 180.2096 117.079 180.2096 118.1475 177.1489 118.1475 177.1489 126.7089 175.9505 126.7089 175.9505 118.1475" fill="#5d1b24"/><path d="M34.9577,104.0747c.0634,.4456,.1981,.7638,.4054,.9546,.2066,.1896,.4371,.3176,.6925,.381,.2536,.064,.5395,.064,.8583,0v1.1929h-7.0113v-1.1929c.2859,.064,.5395,.064,.7632,0,.1585-.0634,.3011-.1914,.4285-.381,.1268-.1908,.1585-.509,.0957-.9546,0-.0634-.0878-.6272-.2621-1.6934-.1749-1.0655-.3895-2.4718-.6443-4.22h-6.1048c-.3182,1.7482-.5657,3.1545-.74,4.22-.1749,1.0661-.2621,1.63-.2621,1.6934-.0951,.4456-.0878,.7638,.0238,.9546,.1122,.1896,.2463,.3176,.406,.381,.1908,.064,.4444,.064,.7632,0v1.1929h-4.5791v-1.1929c.2865,.064,.5718,.064,.8583,0,.2548-.0634,.4852-.1914,.6919-.381,.2066-.1908,.3578-.509,.4529-.9546,0-.0317,.0792-.5005,.2389-1.4063,.1585-.907,.3731-2.0987,.6431-3.5775,.2706-1.4782,.5803-3.1557,.9308-5.0326,.3493-1.8751,.6992-3.7982,1.0491-5.7708l2.8619-15.6446h2.4328c.9217,5.819,1.7482,11.018,2.4797,15.597,.3176,1.972,.6205,3.8952,.9064,5.7714,.2859,1.8769,.548,3.5532,.787,5.032,.2383,1.4782,.4364,2.679,.5962,3.6001,.1591,.9235,.2383,1.3996,.2383,1.4313m-10.5882-7.1545h5.7708c-.1902-1.3033-.4054-2.7022-.6437-4.1969-.2383-1.4947-.4773-2.9972-.7156-4.5072-.2383-1.5105-.4773-2.982-.715-4.412-.2389-1.4313-.4529-2.7498-.6443-3.9591-.2548,1.2094-.5084,2.5279-.7632,3.9591-.2548,1.4301-.5169,2.9016-.7863,4.412-.2713,1.5099-.5334,3.0125-.7876,4.5072-.2548,1.4946-.4931,2.8936-.715,4.1969"/><path d="M45.8324,104.0273c0,.445,.0713,.7711,.2152,.9777,.142,.2066,.278,.3267,.4048,.3578,.1591,.0957,.3651,.0957,.6205,0v1.2399h-5.7714v-1.2399c.2542,.0957,.4767,.0957,.6675,0,.0957-.0311,.2225-.1512,.3816-.3578s.2383-.5328,.2383-.9777v-28.9045c0-.4767-.0792-.818-.2383-1.0253-.1591-.206-.2859-.3414-.3816-.4053-.1908-.0951-.4133-.0951-.6675,0v-1.1448h4.5309v31.4799Z"/><path d="M65.6265,104.3614c0,.4456,.0634,.7394,.1908,.8814,.1262,.1439,.2694,.2316,.4285,.2627,.1591,.0323,.3657-.0152,.6205-.1426v1.2399h-4.4834v-1.8123c-.128,.1902-.2554,.3572-.3816,.5011-.1274,.1426-.2706,.2944-.4291,.4529-.5413,.4456-1.1612,.7949-1.8604,1.0491-.0323,0-.064,.0152-.0957,.0475h-.0951c-.3822,.1262-.8583,.1908-1.4313,.1908h-.1426c-1.7818-.0317-3.2197-.5797-4.3163-1.6452-1.0972-1.0649-1.6458-2.7431-1.6458-5.032v-10.7321c0-1.1442,.1426-2.1384,.4291-2.9808,.2859-.8418,.6919-1.5257,1.2167-2.0512,.5242-.5243,1.1442-.9211,1.8598-1.1923,.7156-.27,1.5337-.4206,2.4566-.4529h.1426c.573,0,1.0491,.064,1.4313,.1908h.0951l.0957,.0475c.6992,.2225,1.3191,.573,1.8604,1.0491,.1585,.1274,.3018,.2713,.4291,.4298,.1262,.1585,.2536,.3334,.3816,.5249v-9.9695c0-.5071-.0719-.8577-.2152-1.049-.1426-.1908-.2792-.3176-.4054-.381-.2231-.0963-.4456-.0963-.6675,0v-1.2405h4.5315v31.814Zm-7.6318,1.5733c.5401,.0317,1.0564-.0469,1.5501-.2383,.4925-.1908,.9302-.4773,1.3118-.8577,.3816-.3822,.7156-.907,1.0015-1.5745,.2859-.6675,.4602-1.4947,.5248-2.4803v-11.6379c-.0646-.954-.2389-1.7647-.5248-2.4322-.2859-.6687-.6199-1.2002-1.0015-1.5977-.3816-.3975-.8193-.6839-1.3118-.8595-.4937-.1731-1.0101-.245-1.5501-.2133-.8583,.0634-1.463,.4206-1.8129,1.0728s-.5407,1.7884-.5718,3.4093v.0482c0,.1274-.0085,.5175-.0238,1.1685-.0165,.6522-.0244,1.4234-.0244,2.3133v5.8909c0,.9058,.0079,1.6769,.0244,2.3127,.0152,.637,.0238,1.0186,.0238,1.1448v.0482c.0311,1.6221,.2219,2.7583,.5718,3.4099,.3499,.6529,.9546,1.0094,1.8129,1.0728"/><path d="M84.418,86.7137c0,.064,.0158,.1908,.0475,.381,.0317,.1908,.0317,.3505,0,.4773-.0317,.6681-.2621,1.2161-.6919,1.6458-.4285,.4285-.9461,.6431-1.5501,.6431-.6364,0-1.1679-.2213-1.5977-.6669-.4297-.4456-.6437-.985-.6437-1.622,0-.7943,.3023-1.399,.9064-1.8129,.0634-.0311,.1024-.0543,.1189-.0713l.0713-.0713c.2225-.1591,.3657-.3889,.4297-.6913,.0634-.303-.1274-.5651-.5724-.7869-.2865-.1585-.5724-.239-.8589-.239-.954-.0634-1.7964,.2225-2.5279,.8589-.7315,.6364-1.2246,1.7489-1.4782,3.338v15.9317c0,.445,.0634,.7711,.1902,.9771,.1268,.2073,.2548,.3261,.3822,.3578,.1908,.0951,.3968,.0951,.6199,0v1.2405h-5.7714v-1.2405c.2542,.0951,.445,.0951,.5724,0,.1585-.0317,.3176-.1506,.4773-.3578,.1585-.206,.2383-.5321,.2383-.9771v-18.1731c0-.4444-.0798-.7705-.2383-.9777-.1597-.2066-.3188-.3414-.4773-.4053-.1274-.0634-.3182-.0634-.5724,0v-1.1923h4.5791v1.9549c.2219-.3493,.445-.6754,.6675-.9777,.2219-.3011,.4846-.5553,.7869-.7626,.3023-.2066,.6516-.3737,1.0497-.5011,.3968-.1268,.8979-.1908,1.502-.1908,.9223,0,1.7805,.334,2.5754,1.0021,.7949,.6675,1.3831,1.6385,1.7653,2.9095"/><path d="M92.9557,104.027c0,.4456,.0634,.7723,.1908,.9783,.1268,.2073,.27,.3261,.4291,.3572,.1591,.0957,.3499,.0957,.5724,0v1.2399h-5.7232v-1.2399c.2219,.0957,.4291,.0957,.6199,0,.1585-.0311,.3017-.15,.4291-.3572,.1268-.206,.1908-.5328,.1908-.9783v-18.1724c0-.4127-.064-.723-.1908-.9296-.1274-.2073-.2706-.3414-.4291-.406-.1908-.0634-.3981-.0634-.6199,0v-1.1911h4.5309v20.6991Zm.4291-25.9469c0,.6047-.2073,1.1058-.6199,1.5032-.4133,.3974-.9058,.5955-1.4788,.5955-.5718,0-1.0491-.1981-1.4307-.5955-.3816-.3974-.5724-.8985-.5724-1.5032,0-.5718,.1908-1.0491,.5724-1.4313,.3816-.3803,.8589-.5718,1.4307-.5718,.573,0,1.0655,.1914,1.4788,.5718,.4127,.3822,.6199,.8595,.6199,1.4313"/><path d="M105.6903,84.0427c-1.018,.0634-1.8683,.5803-2.5517,1.5495-.6839,.9711-1.0253,2.4255-1.0253,4.3639v10.5413c0,1.082,.103,1.9726,.3097,2.6711,.2066,.7004,.4931,1.2563,.8589,1.6696,.3651,.4133,.7943,.6992,1.288,.8583,.4925,.1597,1.0088,.2377,1.5501,.2377,.6675,0,1.3027-.0939,1.9074-.2853,.6041-.1902,1.1448-.5084,1.6214-.954,.4773-.445,.8595-1.0564,1.1454-1.8366,.2859-.7784,.4298-1.7403,.4298-2.8857h1.0491v.6205c0,.8906-.1195,1.7251-.3584,2.5035-.2383,.7796-.6199,1.463-1.1441,2.0512-.5249,.5888-1.2009,1.0497-2.0274,1.3837-.8272,.3334-1.8446,.5004-3.0527,.5004-.7626,0-1.5428-.1506-2.3371-.4529-.7955-.3017-1.5105-.7315-2.1457-1.2874-.637-.5566-1.1618-1.2319-1.5745-2.028-.4139-.7937-.6199-1.6842-.6199-2.6705v-10.6839c0-1.0808,.206-2.0512,.6199-2.9095,.4127-.8589,.9375-1.5891,1.5745-2.1945,.6352-.6041,1.3502-1.0649,2.1457-1.3825,.7943-.3176,1.5745-.4773,2.3371-.4773,.3816,0,.7467,.0158,1.0972,.0475,.3493,.0317,.6986,.1274,1.0491,.2859,.0317,.0317,.0792,.0481,.1433,.0481l.3816,.1432c.3493,.064,.7156,.2152,1.0972,.4529,.3816,.2377,.715,.3578,1.0021,.3578,.381,0,.5718-.3182,.5718-.954h1.2405v8.0603h-1.0491c0-.4121-.0171-.8827-.0488-1.4069-.0317-.5249-.103-1.0491-.2139-1.5739-.1122-.5242-.2865-1.0411-.5248-1.5501-.2384-.5084-.5492-.9692-.9302-1.3825-.5718-.573-1.1923-.9546-1.8598-1.146-.6681-.1902-1.3203-.2853-1.9561-.2853"/><path d="M121.8113,72.5v12.5918c.0634-.0951,.1743-.2542,.334-.4773,.1591-.2219,.4054-.4602,.7388-.715,.3346-.2548,.7559-.4767,1.2642-.6675,.5084-.1914,1.1131-.2865,1.8129-.2865h.1426c.6675,0,1.3276,.1353,1.9793,.4048,.6516,.2713,1.2325,.676,1.7409,1.2167,.509,.5407,.9138,1.2332,1.2167,2.0743,.3017,.843,.4535,1.8366,.4535,2.9814v14.4047c0,.6041,.1109,.9857,.3334,1.1448,.2219,.1591,.4133,.2377,.5718,.2377h.2389c.0317,0,.0634-.0146,.0957-.0475v1.2405h-5.7714v-1.2405c.0317,.0329,.0634,.0475,.0951,.0475h.1908c.1908,0,.3822-.0634,.5724-.1908,.1908-.1256,.3176-.4444,.3816-.9534v-5.7714c0-1.1125-.0079-2.2414-.0238-3.3862-.0165-1.1448-.0238-2.178-.0238-3.1009v-3.4337h-.047v-.0482c-.0646-1.6208-.2554-2.7662-.5736-3.4337-.3176-.6681-.8741-1.0332-1.6684-1.0972h-.1439c-.9857,0-1.8439,.3743-2.5754,1.121-.7315,.7479-1.1771,2.0433-1.3356,3.8872v15.0246c0,.6041,.103,.9857,.3103,1.1448,.2066,.1591,.4054,.2377,.5962,.2377h.1908c.0317,0,.0634-.0146,.0957-.0475v1.2405h-5.7714v-1.2405c.0311,.0329,.0634,.0475,.0957,.0475h.2377c.1591,0,.3493-.0787,.573-.2377,.2219-.1591,.3334-.5407,.3334-1.1448v-28.9521c0-.6041-.1116-1.0015-.3334-1.1929-.2237-.1902-.4139-.2853-.573-.2853-.0634,0-.1116,.0086-.1426,.0232-.0323,.0171-.064,.0244-.0951,.0244h-.0957v-1.1448h4.5785Z"/><line x1="142.2905" y1="83.463" x2="142.2905" y2="127.5" fill="none" stroke="#000" stroke-miterlimit="10" stroke-width="1.348"/></g></svg>