<?xml version="1.0" encoding="UTF-8"?><svg id="Layer_1" xmlns="http://www.w3.org/2000/svg" width="194.2" height="192" viewBox="0 0 194.2 192"><g id="bakery-cafe"><path d="M194.2,97.9c-2.1,125.5-188.8,125.5-190.9,0,2.1-125.5,188.8-125.5,190.9,0Z" fill="#383838"/><path d="M190.9,94.1c-2.1,125.5-188.8,125.5-190.9,0,2.1-125.5,188.8-125.5,190.9,0Z" fill="#fff"/><g id="bakery-cafe-2"><path d="M166.4,104.9c-.3,.1-.5,.3-.9,.4,7.9,4.9,3.9,17.4-5.5,16.7,2.7,2.6,4.3,6.6,2.4,10h0c-.6-.5,.2-1.9-1.2-2,0,1.4-1.2,3,.6,3.6-2.6,3.8-6.2,4.9-10.2,3.9,2.8,5.9-.6,15-8,13.5-.8,1-1.2,0-1.7,0-1-.3-2.1-.4-3-.6,.2,2.9,.2,7.5-2.9,8.9l-.3-.4c0,0-.1,0-.2,.1,0,.2,.2,.3,.3,.5-.9,2-3.1,2.2-5,2.3,0-.3,0-.7-.1-1.1-.1,0-.3,0-.4,0,0,.4-.1,.9-.2,1.4-.5,0-1.2-.1-1.8-.2-.3-.6-.6-1-.8-1.5-.3,.2-.6,.5-1,.8-.9-.6-2-1.3-3.1-2.1,0,4.3-2.5,8.3-6.9,9.3-.5,.1-1.1,.5-1.4-.4,0-.1-.6,0-1-.2,.2,.3,.3,.5,.4,.6-.6,1.3-5.6-1.2-7.4-3.5v-1.9c-.1,0-.3-.1-.4-.2-2.7,9.8-15.5,11.1-18.4,.6-2.3,4.5-7.5,6.4-12.1,4.2-1.2-.6-2.7-1.1-2.2-3.1-.5,0-.8,.1-1.3,.2-.3-.8-.5-1.6-.9-2.8-1-.4-.4-1.9-.7-3.1-1.8,1.7-3.8,3.1-6.4,3,0-.6,0-1.3,.3-1.9l-.3,.2c-.6-.5-1.1-.9-1.6-1.4-.5,1.4,0,2.3,1.6,3-1.6,.3-3.1,0-4.5-1,1.5-.4,.5-1.4,.6-2.2h-2c.5,.8,1,1.5,1.4,2.2-3.7-1.4-5.7-6.7-4.4-10.7-1.3,.5-2.4,.9-3.7,1.4v-1.8c-1.3,1.2-2.1,2-3.4,.6-1,.6-1.9,.9-2.4-.5-2.5,0-4.2-3-4.5-5.5,.3,0,.7,.1,1,.2-1.3-2.4-1-4.5,0-6.9-10.3,2.1-15.6-8.4-8.7-15.4-.3-.3-.6-.5-.7-.6-9.6,.7-11.6-12.1-4.3-16.7-1.1-1-6.9-2.9-4-4.9,2,.1,1.4-.8,1.3-2.3-.6,.5-.9,.7-1.4,1.2,0,0,0,.4-.1,.8-.4-.3-.8-.6-1.3-.9,.3-.4,.7-1,1-1.5,0,0,0-.2,0-.3-.7,.2-1.4,.4-2,.7-1.1-4.2,1.3-9,7.2-10.5-3.9-2.2-6.9-7.5-4-11.2-.5-3.9,5.1-6.1,8.6-6.1-3.9-3.4-4.2-9.5-.3-12.6-.2-1.5,1.2-1.4,1.8-2,0,0,.6,.4,1,.6,.2-2.8,4.4-1.3,6.2-1.7-4.6-7.9,3.2-17.2,12.7-12.4-2.9-9.3,9-15.9,15.5-8.8-.5-9.3,11.9-13.7,17-5,1.8-3.2,4.2-6.9,8.4-7.1,.6,.5,1,.9,1.7,1.6-.1-.5-.2-.8-.3-1.1,4.1-.6,7.4,3,8.2,6.8,2.7-5.3,10.5-7,14.6-2.2h0c0,.2-.1,.4-.2,.7,.1,0,.3-.1,.4-.2h0c1.8,1.5,2.4,3.5,2.7,5.7,7.4-6.2,17.5-.2,15.3,9.2,8.9-4.6,16.5,3.3,13.4,12.4,8.6-2.1,15.1,8.8,9.1,15.5,1.7,.6,3.6,.6,4.6,2.2,1.2,.9,3,1,2.7,3,0,.3,.1,.7,.3,.8,1.2,.4,.9,1.4,1.1,2.3,0,.2-.2,.4-.3,.5,0,0,.2,0,.2,0v-.6c.6,3.7-1.3,7.3-4.1,9.7,4.2,1.2,7.5,7.2,5.4,11.2-.2,0-.4,.2-.7,.2-.8-2.1-3.1-1.4-4.5-2.5v-2c-.5,.1-.9,.2-1.4,.4,.4,.7,.8,1.3,1.2,1.9-.2,.9-.5,1.7-.7,2.6,1.3,.7,3.3-.7,4,.9-.9,1-.9,1.1-.4,1.5h0c-.4,.4-.8,.9-1.3,1.4,0,0,.3,.2,.5,.4h0c-1.3-.3-1.4,.8-1.6,1.6" fill="#ed6816"/><path d="M168.1,103.3c-.2-.2-.4-.4-.5-.4,.7-.7,1-1.4,1.9-1.7,0,0-.1-.2-.2-.2-.1,.2-.3,.3-.4,.5-.5-.4-.5-.5,.4-1.5,.6-.2,1.3-.3,1.9-.5h0c-1,1.2-1.3,3.5-3.1,3.8" fill="#f28136"/><path d="M166.4,104.9c.2-.8,.3-1.9,1.6-1.6-.5,.5-1.1,1-1.6,1.6" fill="#f28136"/><path d="M162.4,132.1c-.2,.4-.3,.8-.5,1.2h0c.2-.4,.3-.8,.5-1.2h0Z" fill="#ed6816"/><path d="M170.7,98.8c.2,0,.4-.2,.7-.2,0,.3-.1,.7-.2,1h0c-.2-.2-.3-.5-.5-.8" fill="#f28136"/><path d="M170.7,98.8c.2,.3,.3,.5,.5,.8-.6,.2-1.3,.3-1.9,.5-.7-1.6-2.7-.2-4-.9,.2-.9,.5-1.7,.7-2.6h0c0,0,.2-.2,.3-.2h0c1.4,1.1,3.8,.3,4.5,2.5" fill="#fff9f4"/><path d="M72.4,99.1s.2,0,.6-.2c-.2-.3-.4-.5-.8-1.1,.8,.4,1.2,.6,1.7,.8,.1,0,.2-.2,.4-.2-.4,1.2-.4,2.3-.4,3.6,0,.4,.8,.9-.2,1.2,0,0,0,.4,0,.5,.8,.8,.8,1.2-.3,2-.7-2.3-.4-4.3-1-6.6" fill="#ed6816"/><path d="M161.1,117.7c-1.6,1.9,.7,2.4,.8,3.7-1.2,.8-3.8-.2-2.8-1.8,.1-1.4,.2-2.9,2-1.9" fill="#fff9f4"/><path d="M153.6,121.3c-3.8,.4-2.2-6.2,.2-3.3-1,.8-1,1.4,0,2.9,0,.2,0,.3-.1,.5" fill="#fff0e5"/><path d="M38.4,79.1c-.4,0-.7,0-1.1,.1,.4,1.2-.4,1.2-1.4,1.5,.4-.8,.7-1.3,1-1.9-1.7,.8-2.2-.9-1.6-2.1,1.2,.5,2.4,1.1,3.3,2.1,0,.1-.1,.2-.2,.3" fill="#fff4ec"/><path d="M28,112.2c-.9,2.1-3.5,.8-3.1-1.2,.4,0,.6-1,1.2-.2,.7,.4,1.7,.1,1.9,1.4" fill="#fee9d8"/><path d="M49.2,131.8c.2-.4,.4-.8,.6-1.2,4.3,.2,2,5.6-.6,1.2" fill="#fff7f1"/><path d="M116.4,150.9c-.5-1.4-2.5-3.3-1.2-4.1,.9,.4,1.6,.7,2.3,1.1,0,1-.5,2.2-1.1,3.1" fill="#fff5ee"/><path d="M73.9,115.1c-.6,.3-1.1,.5-1.9,.9,.7,.1,1.3,.2,2.1,.3-.6,.6-1.2,1.2-1.8,1.9-.2-.1-.4-.2-.8-.4,.2-.2,.4-.3,.5-.5-1.6-2.1-.5-3.3,1.7-2.8,0,.2,0,.4,0,.6" fill="#fff4ec"/><path d="M110.6,154.5c.4,2-.5,3.1-1.8,4.3,.2-1.3-.4-5.5,1.8-4.3" fill="#fff4eb"/><path d="M145.8,127.1c0,1.7,.1,3.1,.2,4.4-.6-.3-1-.6-1.5-.8-.1,0-.2,.2-.4,.3,.3-1.7-.5-3.3,1.7-3.9" fill="#fff4eb"/><path d="M144,90.7c-1.8-1,0-2.3,1.1-3.2,1-1.1,1.6,.2,.8,1-.7,.5-1.6,.8-1.5,2-.1,0-.3,.2-.4,.3" fill="#fff5ee"/><path d="M103.6,43.4c-4.2-1.1,.5-5,.7-2.5-1.2,.5-.7,1.5-.7,2.5" fill="#fff5ee"/><path d="M111.8,119.5c-2-1.3-2-1.4-1.1-3.4,1.8,.6,1.2,2.1,1.4,3.4-.1,0-.2,0-.3,0" fill="#fff5ee"/><path d="M139.5,91.7c-1.8,0,0-1.2-.5-1.6,.6,.8,1.1,1.7,1.6,2.5,.7,0,1.4-1,1.9,.2-2.1,1.1-3.1,.7-3.1-1.1" fill="#ffefe3"/><path d="M77.4,42.4c-.6-.5-1-.8-1.6-1.2,.3-.1,.6-.2,.8-.3v-.3c-.5,0-1,0-1.6,0,.6-2,1.5-.4,2.9-.4-.2,.7-.4,1.4-.6,2.3" fill="#ffefe3"/><path d="M114.7,102.5c.8,0,1.5,.1,2.2,.4-.6,.8-1.5,1.3-2.3,2-1.1-1.1,0-1.8,.1-2.4m1.2,1.1s0,0,0,0c0,0-.1,.2,0,.2,0,0,0,0,0-.1" fill="#ffedde"/><path d="M125.4,144.1c1.9-.5,1.9,.7,2.2,2.2-1.3,.6-1.6-1-2.4-1.7,0-.2,.1-.3,.2-.5" fill="#fff7f1"/><path d="M111.8,119.5c2.7-.8,2.9,1.4,1,2.5-.4-1-.7-1.8-1-2.5" fill="#fff1e7"/><path d="M30.9,100.9c.2,.3,.3,.6,.5,.8,0,0-.2-.2-.3-.2-.3,1.5-2.3,1-2.5-.4,.8-.2,1.5-.3,2.3-.2" fill="#ffede0"/><path d="M36.2,116.6c1,.9,1.9,1.8,.9,3.1q-1.2-.3-.9-3.1" fill="#fff0e5"/><path d="M44.8,47.9c-.9,.8-1.4,0-1.9-.6-.1-2.4,2.1-1.5,1.9,.6" fill="#fff2e8"/><path d="M95.7,157.5c-2.1,.9-2.7-.5-1.3-2.1,.3,.1,.6,.2,1,.4,.1,.6,.2,1.2,.3,1.8" fill="#fff0e5"/><path d="M162,133.4c-.1,0-.2,.1-.3,.2-1.6-.4-.3-2.3-.4-3.5,1.4,0,.6,1.5,1.2,2-.2,.4-.3,.8-.5,1.3" fill="#fff4eb"/><path d="M96.2,126.8c.6,.8,1,1.3,.9,2.3-2,0-2.4-.9-.9-2.3" fill="#fff4ec"/><path d="M140.4,145c2-.1,2.2,1.6,.5,2.2-1.1-.5-.7-1.4-.5-2.2" fill="#fff7f1"/><path d="M118.4,28.8c-.7,.7-1.3,1.5-2.1,2.3-1-.7,1.6-1.3,1.1-2.4,.3-.7,1.1-.1,1.6,.2h-.6" fill="#fff0e5"/><path d="M128.5,155.7c.6,.5,1.1,1,1.7,1.5-.7,1.8-3.6-.4-1.7-1.5" fill="#fff7f1"/><path d="M121.8,86c-.2-.7-.4-1.4-.6-2.1,1.4-.2,2.3,1,1.2,2-.2,0-.4,0-.5,.1" fill="#ffede0"/><path d="M59.9,161c-.4-.7-.9-1.4-1.4-2.2h2c0,.8,.9,1.8-.6,2.2h0" fill="#fff5ee"/><path d="M162,88c-1.9,.6-3.4-.1-2.3-2,.6,.9,1.2,1.1,2.3,2" fill="#fff0e5"/><path d="M112.4,154.7c1,.5,1.5,1.2,.6,2.1-1.5,.5-1.6-1.5-.6-2.1" fill="#fff4eb"/><path d="M157.4,78.2c.2-.9,.4-1.6,.7-2.6,1.3,2.1,1.3,2.2-.7,2.6" fill="#ffede0"/><path d="M68.9,52.4c-.4,.2-.8,.4-1.4,.7v-2.4c.5,0,.8,0,1.1,.1,0,.5,.1,1,.2,1.5" fill="#ffede0"/><path d="M61.1,39.4c1.1-.5,1.7-.8,2.5-1.2,0,1.6-1.3,2.7-2.5,1.2" fill="#fff4eb"/><path d="M102.7,141.3c1.1,1.4,1,2.4,0,2.9-.7-1.1-.8-1.7,0-2.9" fill="#ffefe3"/><path d="M99.6,44.2c0-.2,0-.6,.2-.9,1.1,1,1,1.3-.6,2.3-.3-.3-.6-.7-.9-1.1,.4-.1,.9-.2,1.3-.3" fill="#fff0e5"/><path d="M130.2,68.5c3.7-.6,1.3,2.4-.2,.6,0-.2,.1-.4,.2-.6" fill="#ffefe3"/><path d="M160.3,68.7c-.9,.9-1.7,1.1-2,0,.5-1.1,1.1-1,2,0" fill="#ffefe3"/><path d="M101.3,60c-1.2-.4-.9-1.3-.6-2.1,1.6-1.2,1.1,1.3,.6,2.1" fill="#fff4ec"/><path d="M123.5,98.2c.3,.1,.6,.3,.9,.4-1.1,1.1-1.3,1-2.6-.7,.7,0,1.3-.2,1.9-.2,0,.2-.2,.4-.3,.5" fill="#ffede0"/><path d="M94.2,149.1c1.1,2-1.4,1.7-1.8,.1,.6,0,1.1,0,1.8-.1" fill="#fff2e8"/><path d="M129.4,153.9c.7-.1,1.4-.3,2.4-.4-.1,.6-.3,1-.4,1.5-.8-.2-1.4-.4-2.1-.6,0-.2,0-.4,0-.6" fill="#ffede0"/><path d="M81.7,143.7v2c-1.7,.4-1.3-1.4-.5-2.3,.2,0,.4,.2,.5,.2" fill="#fff4ec"/><path d="M134.3,156.8c-1.3,0-1.9,.1-1.7-1.5,1,.1,1.8,.1,1.7,1.5" fill="#fff2e8"/><path d="M91.6,93.2c-2.4,0,.1-.7-1.2-2.3,0,0,.2-.1,.3-.2,1.2,.6,1.2,1.3,.9,2.5" fill="#ffebdb"/><path d="M69.4,121.2c.9-.2,1.5,0,1.5,1-.6,1.3-2.1,.1-1.5-1" fill="#fff2e8"/><path d="M86.1,41.7c-.7-2.1-.6-2.3,.8-2.3,0,.8-.2,1.6-.3,2.5-.2,0-.3,0-.5-.1" fill="#fff2e8"/><path d="M130.8,150.7q.6-.9,2.3,0c-.3,.3-.4,.5-.6,.8-.5-.2-1.1-.5-1.7-.8" fill="#fee9d8"/><path d="M76.9,146.1c-.8-.5-1-2.2,.3-2,0,.7,.1,1.3,.2,2-.2,0-.4,0-.5,0" fill="#fff5ee"/><path d="M88.5,149.3c-.5,.8-.9,1.5-1.5,2.3-.6-1.6-.2-2.3,1.5-2.3" fill="#ffefe3"/><path d="M47.6,141.2c-2.1,1.9-2.5-1.1-.3-1.6-.2,.5-.5,1-.8,1.6,.4,0,.6-.1,.9-.2,0,0,.1,.1,.2,.2" fill="#ffede0"/><path d="M150.5,64.6c-.3,.2-.5,.4-.8,.7,0,.2,.2,.5,.4,.9-.8,.5-1.3-.5-1.4-.9,.5-.4,1.1-.8,1.6-1.2,0,.1,.2,.3,.3,.4" fill="#fee9d8"/><path d="M105.1,150.9c1-.4,1.8-.4,2,.7-.4,.2-.9,.4-1.4,.7-.2-.4-.4-.8-.6-1.4" fill="#ffedde"/><path d="M131.6,36.5c-1.7-.3-1.9-1.6-2.1-3.2,.8,1.2,1.4,2.1,2.1,3.2" fill="#ffebdb"/><path d="M141.7,104.9c0,.7-.2,1.4-.2,2-1.3,0-1.3-1.7,.2-2" fill="#fee9d8"/><path d="M30.7,106.9c-.4,.5-.6,.8-1,1.2-1.9-1.1-.7-1.8,1-1.2" fill="#ffede0"/><path d="M74.1,138.4v-1.1c.6-.2,1.1-.5,1.6-.7,0,0,.1,.1,.2,.2-.4,.6-.9,1.2-1.3,1.9-.1,0-.3-.2-.4-.3" fill="#fee9d8"/><path d="M136.6,59.1c-.1,.7-.3,1.3-.8,1.8-1.1-.6-.5-1.7,.4-2,.1,0,.2,.1,.3,.2" fill="#fff4eb"/><path d="M82,151.4c.3-.5,.4-.9,.6-1.3,.3,.6,.7,1.2,1.1,1.8-.1,.1-.3,.3-.4,.4-.5-.3-.9-.6-1.3-.9" fill="#fff2e8"/><path d="M125.2,137.1c.6,.8,.9,1.2,.7,2.1-1.2,.6-1.2-1.2-.7-2.1" fill="#fee9d8"/><path d="M47.5,137.2c.2-.3,.3-.5,.4-.7,0,0,.1,0,.2,0-.2,.9-.5,1.8-.7,2.8h-.3v-3s0,0,.1,0c0,.3,.2,.5,.2,.9" fill="#ffede0"/><path d="M63.6,62.5c.3,.5,.6,1,.9,1.4,0,.1,0,.2-.1,.3-1.1-.2-1.6-.5-1.2-1.7h.4" fill="#ffede0"/><path d="M43.2,132.1c-.8,.9-.8,1.2-.8,2.2-1.1,1.4-.7-1.2-.4-1.8,0-.2,.7-.2,1.1-.4" fill="#ffefe3"/><path d="M36.2,87.3c.8-.5,1.3-.9,1.9-1.3,0,.7-.1,1.2-.2,2.1-.6-.2-1-.5-1.7-.8" fill="#ffebdb"/><path d="M95.6,28c.6-.8,1-1.3,1.6-2.1,.6,1.6-.2,2-1.6,2.1" fill="#ffedde"/><path d="M100.7,35.6c.3,.8,1,1.5,.3,2.3-1.2-.3-.7-1.4-.8-2.3,.1,0,.3,0,.4,0" fill="#fff4eb"/><path d="M61.6,44.9c-1.1,0-1.6-.3-1.5-1.5,.2,0,.3-.1,.5-.2,.4,.4,.8,.9,1.2,1.3,0,.1-.1,.2-.2,.4" fill="#fff0e5"/><path d="M165.9,96.5c-.4-.6-.8-1.2-1.2-1.9,.6-.2,.9-.3,1.4-.4v2h0c0,0-.2,.2-.3,.3h0Z" fill="#fff5ee"/><path d="M121.1,159.2c-.5,0-.8,0-1.2,.1v-1.5c.9,0,1.2,.4,1.2,1.4" fill="#ffede0"/><path d="M93.3,61.7c-.1-1.2-.9-1.4,.9-1.8,.2,.9,0,1.5-.9,1.7h0Z" fill="#fedcc1"/><path d="M45.5,139.1c-.5,0-1,.2-1.5,.3v-1.6c.6,.4,1,.6,1.4,.9,0,.1,0,.3,0,.4" fill="#fff4eb"/><path d="M106.7,140.4c.2,.4,.3,.8,.5,1.3-.3,.2-.6,.4-.8,.6q-1-1.3,.3-1.8" fill="#ffefe3"/><path d="M131.5,41.6c-.2-.5-.4-1-.6-1.5,.3,0,.7,0,1,0,0,.5,0,.9,.1,1.4-.2,0-.3,.1-.5,.2" fill="#fff1e7"/><path d="M43,128c-.3-1.9,1-1.6,1.6-2.1,.1,.1,.2,.3,.4,.4-.6,.5-1.1,1-1.9,1.8" fill="#ffefe3"/><path d="M136.3,140.4c-.5,.6-.7,.6-1.6,.6,.2-.5,.4-1.1,.6-1.6h.4c.2,.4,.4,.7,.6,1" fill="#fff2e8"/><path d="M82,28.8c-.3,.4-.6,.7-1,1.1-.2-.4-.4-.8-.7-1.2-.2,0-.5,.1-.7,.2-.3-.8,1.4-.6,2.3,0" fill="#ffedde"/><path d="M107.1,36c.6-.3,1.2-.6,1.9-.9,0,.2,.2,.4,.3,.6-.6,.3-1.2,.7-1.8,1-.1-.2-.2-.4-.3-.6" fill="#ffedde"/><path d="M140.8,73.1c-.4,0-.9,0-1.3,0,0-.5,.1-1,.3-1.8,.5,.6,.8,1,1.1,1.3,0,.1,0,.3,0,.4" fill="#fee9d8"/><path d="M128.9,133.6c-.9,.5-1.6,.8-2.4,1.3,.6-1.5,1-1.7,2.4-1.3" fill="#ffebdb"/><path d="M155,73.7c-.1-.6-.2-1.3-.4-1.9,0,0,.2-.1,.3-.2,1.1,.5,.7,1.3,.5,2.2-.1,0-.3,0-.4,0" fill="#fff5ee"/><path d="M41.5,104.1c-.1,.4-.3,.9-.5,1.4-.4-.3-.7-.5-1.3-1,.6-.3,1.1-.5,1.6-.7,0,0,.1,.2,.2,.3" fill="#ffebdb"/><path d="M88.2,155.9c-.5-.6-.9-1.1-1.4-1.6,1.3-.4,1.7,0,1.4,1.6" fill="#fee9d8"/><path d="M77.7,159.5c-.2,1-.4,2-.6,3-.1,0-.2,0-.4,0,.1-1,.2-2.1,.4-3.1,.2,0,.4,0,.6,.1" fill="#fee9d8"/><path d="M46.8,74.1c.7,.2,1,.2,1.4,.3-.2,.5-.4,1-.5,1.5-.1,0-.3,0-.4,0-.1-.5-.3-1.1-.5-1.8" fill="#ffefe3"/><path d="M75.2,80c-.3,.5-.6,1-.9,1.4-.1,0-.3,0-.4-.1,.2-.9-.2-1.9,1.1-1.5,0,0,.1,.1,.2,.2" fill="#fedfc7"/><path d="M43.2,109c0,.2,0,.3,0,.5-.5,.2-.9,.3-1.6,.5,0-.3,0-.7,0-1,.5,0,1,0,1.5,0" fill="#fdd4b5"/><path d="M44.4,54.4c.8,1.3,.4,1.3-.4,2.1-.8-.8-.2-1.1,.4-2.1" fill="#fedcc1"/><path d="M120.6,26.1c0,.2,.2,.3,.3,.5-.1,0-.3,.1-.4,.2,0-.2,.1-.5,.2-.7" fill="#fff"/><path d="M135.7,159.6c0-.2-.2-.3-.3-.5,0,0,.1,0,.2-.1,.1,.1,.2,.3,.3,.4,0,0-.1,.1-.2,.2" fill="#fff"/><path d="M170.1,77.6v.6c0,0-.2,0-.2,0,0-.2,.2-.4,.3-.5h0Z" fill="#fff"/><path d="M47.4,141c0-.1,0-.3,.1-.4,0,0,.1,0,.2,0,0,.2,0,.3,0,.5,0,0-.1-.1-.2-.2" fill="#ffede0"/><path d="M64.5,160.3l.3-.2c0,.1,0,.3-.1,.4,0,0-.1-.1-.2-.2" fill="#fff4ec"/><path d="M115.2,134.9s0,0-.1-.1c0,0,0,0,.1,0v.2h0" fill="#fffbf8"/><path d="M139.2,41.4c0,0-.2,0-.3,0,0-.1,0-.2,0-.3,0,0,.1,.2,.2,.2" fill="#fff"/><path d="M165.9,96.5c0,0,.2-.2,.3-.3,0,0-.2,.2-.3,.3" fill="#ed6816"/><path d="M62.4,72.4c.4,3.9,1.8,7.4,2.4,11.2-2.2,.7-2-.6-2.6-2.2-.6,0-1.2,0-1.8-.1-.2,.9-.4,1.7-.5,2.4-3.5,.9-.9-3.6-.9-5.5,.7-2.1,.2-6.5,3.4-5.8m-.9,4.5h-.3c-.1,.8-.2,1.6-.3,2.4,.4,0,.6,0,1.1,0-.2-.9-.3-1.7-.5-2.5" fill="#fffbf8"/><path d="M68.1,107.1c.7,.4,1.4,.6,1.9,1.1-2.7,9.1-17.2,9.7-22.8,2.8-7.5-9.4,1.4-22.9,13-22.1,11-1.4,12.4,11.2,4,7.6-1.3-.8-1.8-3.9-3.2-4.8-5-2.5-9.8,3.3-9.4,8.6-.8,9.8,11.2,15.4,16.6,6.8" fill="#fffbf8"/><path d="M99.5,109.3c4,2.8-5.7,11-9.3,1.4-5.8,10.2-24.9,2-10.6-6.5,1-.6,8.5-3.5,9.9-4.1,1-6.7-1.8-12.3-7.7-6.8-.4,.3-.8,3.5-1.1,4.1-1.3,1.2-4.5,2.4-5.9,2.5-2.2-8.9,16.5-15.2,20.8-7.1,.9,1.8,.7,8.5,.6,11.4,0,2-.4,10.5,2.8,5.3l.6-.2Zm-10-7.1c-4.1,.7-11.8,7.9-4.9,10.2,5.6-.4,5.3-5.3,4.9-10.2" fill="#fffbf8"/><path d="M102.9,115v-1.7c.8-.6,4.7-.7,4.4-2.4,0-2.5,.2-3.6,0-5,0-3.4-.2-9-.2-12.4-.9,0-3,0-4.1-.2,0-1.1-.2-2,.4-2.7,.6,0,1.8,0,3.6-.2,.1-4.6,1.6-9.7,4.7-12.8,3.5-3.4,10.5-4.8,13.5-.5,2,2.9-1.5,6.9-4.5,4.8-7.2-10.8-7.3,1.9-7,8.5,1.1,.1,4-.2,5,0,.5,.4,.4,.7,.4,1.2,0,.5,0,.9,0,1.5-1.6,.5-3.7,0-5.3,.3,0,4,0,8.4,0,12.3-.2,5.2-.6,6.8,5.1,7.4,.2,1,.2,1,0,1.9-5.5-.2-9.6-.4-16.1,0" fill="#fffbf8"/><path d="M122.8,98.8c2.9-13.4,24.5-12.9,24.6,1.2-5.3,0-11.6-.6-17.9-.4-1.2,9.4,8.8,15.2,16.1,9.1,.7,.5,1.3,1,1.8,1.4-9.5,11.7-28.7,3.8-24.6-11.3m17.7-1.3c.2-8.6-10.8-8.6-10.9,0,2.7,0,8.2,0,10.9,0m-8.9-11.6c.6-2.2,1.7-5.5,3.1-9.8h8.4l-9.2,9.9c-1.3,0-1.3,0-2.3,0" fill="#fffbf8"/><path d="M88.2,82.2c.7-.8,.2-1.9,.3-2.9-.3,.2-.6,.3-.9,.5-.3-.3-.7-.5-1.2-1,.8-1,1.3-.8,2.2,0,.4-1.6-1-6.2,.8-6.7,2.2,0,5.2,.2,5.2,3-.6,4.8-2,2.6,.3,8.2-3.5,2.1-2-4.5-4.3-4.2-.3,1.5,.2,3.1-.3,4.6,.1,.2,.2,.4,.4,.7-.2,0-.4,0-.7,0,.1-1.6-1.4-.2-1.8-2.4h0Zm2.4-6.4c-.2,2.3,1.8,1.3,1.8-.4-.1-2-2.2-1.7-1.8,.4" fill="#fffbf8"/><path d="M53.2,77.6c1.7,1.2,1.3,2.8,.9,4.4-.8,2.4-4.2,1.7-6.2,1.5,.5-1.1,.9-2.1,.2-3.3,0-.1,.2-.3,.2-.3-.1-1,.5-2.3-.8-2.5,1.6-.4,.7-3.7,1.2-5,1.8,.2,4.1-.7,5.2,1.2,.6,1.4,.8,2.8-.6,4.1m-2.6,4.2c2.4,.7,2.2-3.5,0-3.1v3.1Zm1.6-5.9c0-1-.5-1.5-1.4-1.7-.2,.8-.8,2.7,.5,2.8,.7,0,1-.4,1-1.1" fill="#fffcfa"/><path d="M73.7,77.1c-.1,.5-.2,.8-.3,1.2,0,0-.2,0-.3,0,.7,1.7,1.4,3.5,2.1,5.3-2.8,.8-3-2.3-3.7-4.2-.9,.5-.9,1.7-.3,2.1-.2,.8,0,1.9-1,2.2-.7,0-1.7,.1-1.7-.9-.2-1.4,.8-3.4-.4-4.4,0,0,0-.6,0-.9,.8-1.3,.3-2.9,.4-4.4,0-.7,.4-.8,1-.8,1.9,0,.6,2.9,1,4.2,1.4-1.8,1.2-4.8,4-4.6,.2,1.2-3.6,5.9-1,5.1" fill="#fffaf7"/><path d="M62.4,72.4c.4,3.9,1.8,7.4,2.4,11.2-2.2,.7-2-.6-2.6-2.2-.6,0-1.2,0-1.8-.1-.2,.9-.4,1.7-.5,2.4-3.5,.9-.9-3.6-.9-5.5,.7-2.1,.2-6.5,3.4-5.8m-.9,4.5h-.3c-.1,.8-.2,1.6-.3,2.4,.4,0,.6,0,1.1,0-.2-.9-.3-1.7-.5-2.5" fill="#fffbf8"/><path d="M84.2,83.6h-4.6c.1,.6,.2,1,.4,1.7-.5-.4-.8-.7-1.1-.9,.4-4.4-.4-8.7,.7-13,.5,2.3,4.2-.3,4.5,1.6,0,3-3.8-1.8-3.1,3.8h2.7c1,2.2-1.1,2.1-2.7,2v2.9c1.7-.2,3.7-.5,3,1.9" fill="#fffaf6"/><path d="M101.6,83.9c-.3-.2-.5-.4-.6-.3-1.9,0-.3-4.4-1.2-5.8,0,0-.2,0-.3,0,0,.4-.2,.8-.2,1.3-.2-.2-.3-.4-.3-.7-.2,.1-.3,.2-.5,.4-.2-.6,.7-.7,.8-1.2,0-1.7-1.1-3.5-1.6-5.1,1.1-.4,2.1-.1,2.7,.6,.2,1.1,.3,2.1,.5,3.1,0,0,.1,0,.2,0,.6-1.7,.6-4.9,3.3-3.7-1,2.9-2.3,5.7-2.2,8.8,.2,1,0,1.9-.6,2.8" fill="#fffbf8"/></g></g></svg>