<?xml version="1.0" encoding="UTF-8"?><svg id="Layer_1" xmlns="http://www.w3.org/2000/svg" width="200" height="200" viewBox="0 0 200 200"><g id="chao-dining"><g><path d="M197.0803,101.8814c-2.1429,125.4751-188.7846,125.4554-190.9092-.004,2.1427-125.471,188.7845-125.4514,190.9092,.004Z" fill="#383838"/><path d="M193.829,98.1186c-2.1429,125.4751-188.7846,125.4554-190.9092-.004,2.1427-125.471,188.7845-125.4514,190.9092,.004Z" fill="#fff"/></g><g id="faculty-dining"><g><path d="M68.7491,132.2374v-10.7983h3.6914c3.3511,0,5.5366,2.3472,5.5366,5.4072,0,3.0762-2.1855,5.3911-5.5366,5.3911h-3.6914Zm1.3438-1.1982h2.3477c2.6226,0,4.1445-1.8779,4.1445-4.1929,0-2.3315-1.4731-4.2095-4.1445-4.2095h-2.3477v8.4023Z" fill="#5d1b24"/><path d="M83.42,132.2374v-10.7983h1.3438v10.7983h-1.3438Z" fill="#5d1b24"/><path d="M98.2671,132.2374l-6.2979-8.71v8.71h-1.3438v-10.7983h1.376l6.2168,8.5317v-8.5317h1.3438v10.7983h-1.2949Z" fill="#5d1b24"/><path d="M105.4258,132.2374v-10.7983h1.3438v10.7983h-1.3438Z" fill="#5d1b24"/><path d="M120.2735,132.2374l-6.2979-8.71v8.71h-1.3438v-10.7983h1.376l6.2168,8.5317v-8.5317h1.3438v10.7983h-1.2949Z" fill="#5d1b24"/><path d="M132.5484,121.2608c1.9102,0,3.2378,.8418,4.1929,2.0239l-1.0684,.6636c-.6802-.874-1.8296-1.4893-3.1245-1.4893-2.3638,0-4.1611,1.813-4.1611,4.3872,0,2.5581,1.7974,4.4033,4.1611,4.4033,1.2949,0,2.3633-.6313,2.8979-1.1655v-2.2017h-3.7075v-1.1982h5.0508v3.9019c-1.0034,1.1172-2.4766,1.8618-4.2412,1.8618-3.0762,0-5.5532-2.2505-5.5532-5.6016s2.4771-5.5854,5.5532-5.5854Z" fill="#5d1b24"/></g><g><path d="M66.6504,71.0577c-.5708,.0718-1.0962,.2139-1.5776,.4282-.4814,.2139-.9097,.5532-1.2837,1.0161-.3745,.4639-.6689,1.0698-.8828,1.8184-.2139,.749-.3208,1.6768-.3208,2.7817,0,1.4976-.0093,3.2896-.0269,5.3755-.0186,2.0859-.0269,4.2349-.0269,6.4453,0,2.2466,.0083,4.4219,.0269,6.5259,.0176,2.104,.0269,3.9043,.0269,5.4023,0,2.2461,.3828,3.8428,1.1499,4.7871,.7666,.9453,1.7202,1.4175,2.8618,1.4175,.9268,0,1.7651-.1245,2.5137-.3745,.749-.249,1.3906-.6597,1.9258-1.2305,.5347-.5698,.9443-1.3276,1.23-2.2729,.2852-.9443,.4282-2.1128,.4282-3.5034v-1.4443h1.23v2.728c0,2.3184-.6333,4.1187-1.8989,5.4023-1.2661,1.2837-3.0576,1.9072-5.3755,1.8721-1.1055,0-2.2197-.2759-3.3428-.8291-1.1235-.5527-2.042-1.3643-2.7549-2.4336-.4639-.6772-.8115-1.4526-1.043-2.3271-.2324-.873-.3926-1.9429-.4814-3.209-.0894-1.2656-.1338-2.7549-.1338-4.4663v-6.0444c0-3.1021,.0176-5.6782,.0537-7.729,.0352-2.0503,.1777-3.7524,.4277-5.1084,.1421-1.1406,.5083-2.1479,1.0967-3.022,.5884-.8735,1.292-1.5776,2.1128-2.1128,1.3188-.8198,2.6743-1.23,4.0649-1.23h.5083c.1606,0,.3291,.0181,.5083,.0532l-.1074-.1069c.2144,.0718,.3564,.1069,.4282,.1069,.8198,.1787,1.479,.3931,1.979,.6421,.499,.2495,.9268,.4639,1.2837,.6416,.2852,.1069,.5352,.1069,.749,0,.4277-.249,.6416-.7129,.6416-1.3906,.0713,0,.1245,.0093,.1606,.0269,.0352,.0181,.0708,.0269,.1069,.0269h1.0161v9.3604h-1.1768c-.0356-.5698-.0894-1.1582-.1602-1.7651-.0723-.499-.1699-1.0513-.2944-1.6582-.1255-.606-.3301-1.1943-.6152-1.7651-.0718-.1421-.2231-.3921-.4546-.749-.2324-.356-.5532-.7036-.9629-1.043-.4102-.3384-.9185-.6235-1.5244-.8555-.6064-.2319-1.3018-.2944-2.0859-.1875Z"/><path d="M84.729,69.7208v14.1206c.0713-.1069,.1958-.2847,.3745-.5347,.1777-.249,.4546-.5166,.8291-.8022,.3745-.2852,.8467-.5352,1.4175-.749,.5698-.2139,1.2476-.3208,2.0322-.3208h.1606c.749,0,1.4888,.1519,2.2197,.4546,.7305,.3032,1.3818,.7578,1.9526,1.3638,.5698,.6069,1.0244,1.3823,1.3638,2.3271,.3384,.9448,.5083,2.0591,.5083,3.3428v16.1538c0,.6777,.1245,1.1055,.374,1.2837,.2495,.1787,.4634,.2671,.6421,.2671h.2676c.0352,0,.0708-.0176,.1069-.0532v1.3906h-6.4722v-1.3906c.0352,.0356,.0708,.0532,.1069,.0532h.2139c.2139,0,.4282-.0708,.6421-.2139,.2139-.1421,.356-.499,.4277-1.0698v-6.4722c0-1.2476-.0093-2.5137-.0269-3.7974-.0181-1.2837-.0264-2.4424-.0264-3.4771v-3.8511h-.0537v-.0532c-.0718-1.8188-.2856-3.1025-.6421-3.8516-.3564-.7485-.981-1.1582-1.8721-1.23h-.1602c-1.106,0-2.0688,.4194-2.8887,1.2568-.8203,.8384-1.3193,2.2915-1.4976,4.3594v16.8491c0,.6777,.1152,1.1055,.3477,1.2837,.2314,.1787,.4546,.2671,.6685,.2671h.2144c.0347,0,.0708-.0176,.1069-.0532v1.3906h-6.4722v-1.3906c.0352,.0356,.0708,.0532,.1069,.0532h.2676c.1777,0,.3916-.0884,.6416-.2671,.249-.1782,.3745-.606,.3745-1.2837v-32.4678c0-.6768-.1255-1.123-.3745-1.3374-.25-.2139-.4639-.3208-.6416-.3208-.0723,0-.1255,.0093-.1606,.0269-.0361,.0186-.0718,.0269-.1069,.0269h-.1069v-1.2837h5.1348Z"/><path d="M120.7803,105.6651c0,.2856-.0718,.5796-.2139,.8823-.1431,.3032-.3477,.5884-.6152,.856s-.6069,.5078-1.0166,.7222c-.4102,.2139-.8823,.3208-1.417,.3208-.856,0-1.623-.1963-2.3003-.5884-.6777-.3921-1.1416-.9092-1.3906-1.5513-.2139-.356-.3745-.7661-.4814-1.23-.4639,.9624-1.1685,1.7651-2.1128,2.4067-.9453,.6421-1.9883,.9629-3.1289,.9629-1.4268,0-2.6748-.5166-3.7441-1.5513-.6069-.5347-1.106-1.23-1.498-2.0859-.3926-.856-.624-1.8364-.6953-2.9419-.0356-.1069-.0532-.3208-.0532-.6421v-.0532c.0352-.606,.1421-1.2388,.3208-1.8989,.1782-.6592,.4546-1.3188,.8291-1.979,.3745-.6597,.8198-1.2837,1.3374-1.8721,.5161-.5884,1.0781-1.0967,1.6846-1.5244,.1421-.0713,.2583-.1514,.3477-.2407,.0889-.0889,.2227-.1875,.4014-.2944,.0708-.0352,.1245-.0615,.1602-.0801,.0352-.0176,.0889-.0444,.1606-.0801,.6421-.3921,1.2036-.749,1.6851-1.0698s.9175-.6235,1.3105-.9092c.2139-.1421,.4277-.3027,.6416-.4814,.2139-.1782,.4453-.3564,.6953-.5352,.3208-.2139,.6235-.4629,.9092-.7485,.2852-.2852,.499-.6235,.6421-1.0166,.2139-.356,.3208-.7837,.3208-1.2837,0-.499-.0532-.9443-.1602-1.3369-.1431-.7842-.5083-1.4619-1.0967-2.0327-.5884-.5703-1.2393-.9443-1.9521-1.1235-.3213-.1069-.6245-.1602-.9097-.1602-.9985,0-1.8545,.1787-2.5674,.5347-.4639,.2139-.8022,.4546-1.0161,.7222s-.3301,.5176-.3477,.749c-.0186,.2324,.0269,.4194,.1338,.5615,.1069,.1431,.249,.25,.4277,.3208,.0708,.0361,.1152,.0537,.1338,.0537,.0176,0,.062,.0181,.1338,.0532,.4629,.1792,.8467,.4907,1.1499,.936,.3027,.4463,.4546,.936,.4546,1.4712,0,.6777-.2407,1.2568-.7222,1.7383s-1.0615,.7222-1.7383,.7222c-.7139,0-1.3198-.2407-1.8188-.7222-.4995-.4814-.7485-1.0605-.7485-1.7383,0-.606,.0801-1.2388,.2407-1.8989,.1602-.6597,.4009-1.2568,.7222-1.792,.6768-.998,1.4883-1.7197,2.4336-2.166,.9443-.4458,1.9873-.6689,3.1289-.6689,.856,0,1.7026,.1606,2.541,.4814,.8374,.3208,1.5859,.7759,2.2466,1.3643,.6592,.5884,1.2114,1.293,1.6577,2.1128,.4458,.8203,.6689,1.7651,.6689,2.8345v15.7261c0,.6416,.0083,1.061,.0269,1.2568,.0171,.1963,.0264,.3301,.0264,.4009,0,.4639,.1421,.8384,.4282,1.1235,.2847,.2856,.6235,.4277,1.0161,.4277,.4629,0,.8374-.1338,1.123-.4009,.2852-.2676,.4458-.6152,.4814-1.043h1.1235Zm-8.3979-1.3374c.2852-.499,.4546-1.0337,.5083-1.6045,.0532-.5703,.0801-1.105,.0801-1.605v-9.895c-.1426,.1426-.2939,.2764-.4546,.4009-.1602,.1255-.3301,.2769-.5083,.4546-1.0347,.749-1.917,1.436-2.6475,2.0596-.7314,.624-1.3462,1.2661-1.8452,1.9253-.5,.6606-.8921,1.3643-1.1768,2.1128-.2861,.749-.4639,1.605-.5352,2.5674v.8027c.0352,1.3555,.4014,2.416,1.0967,3.1826,.6953,.7671,1.6851,1.1499,2.9688,1.1499,.5698,0,1.0874-.1421,1.5508-.4282,.4634-.3208,.7842-.6953,.9629-1.123Z"/><path d="M131.1031,81.4346c.856,0,1.7114,.1431,2.5674,.4277,.856,.2861,1.6396,.7314,2.3535,1.3374,.7129,.6064,1.292,1.3906,1.7383,2.3535,.4458,.9629,.6689,2.1045,.6689,3.4233v12.1416c0,1.0347-.2324,1.9976-.6958,2.8887-.4634,.8916-1.043,1.6582-1.7383,2.2998-.6953,.6421-1.4707,1.1592-2.3267,1.5513s-1.7114,.5884-2.5674,.5884-1.7207-.1606-2.5942-.4814c-.874-.3208-1.6499-.8022-2.3267-1.4443-.6777-.6416-1.2485-1.4175-1.7119-2.3267-.4639-.9092-.6953-1.9341-.6953-3.0757v-12.0347c0-1.355,.2227-2.5142,.6689-3.4771,.4453-.9624,1.0161-1.7559,1.7114-2.3799,.6953-.6235,1.4795-1.0781,2.3535-1.3643,.8735-.2847,1.7383-.4277,2.5942-.4277Zm3.5303,8.7188c0-1.355-.0801-2.5049-.2407-3.4502-.1606-.9443-.3931-1.7026-.6953-2.2734-.3032-.5698-.6777-.9712-1.1235-1.2031-.4463-.2319-.9541-.3477-1.5244-.3477-1.1416,0-2.0146,.5264-2.6206,1.5776-.6069,1.0522-.9097,2.9512-.9097,5.6968v9.521c0,2.7461,.3027,4.6895,.9097,5.8301,.606,1.1416,1.479,1.7114,2.6206,1.7114s2.0234-.5698,2.6479-1.7114c.6235-1.1406,.936-3.084,.936-5.8301v-9.521Z"/></g></g></g></svg>