<?xml version="1.0" encoding="UTF-8"?><svg id="Layer_1" xmlns="http://www.w3.org/2000/svg" width="200" height="200" viewBox="0 0 200 200"><g id="faculty-dining"><g><path d="M197.0803,101.8814c-2.1429,125.4751-188.7846,125.4554-190.9092-.004,2.1427-125.471,188.7845-125.4514,190.9092,.004Z" fill="#383838"/><path d="M193.829,98.1186c-2.1429,125.4751-188.7846,125.4554-190.9092-.004,2.1427-125.471,188.7845-125.4514,190.9092,.004Z" fill="#fff"/></g><g id="faculty-dining-2"><g><path d="M90.7002,132.2374v-10.7983h3.6914c3.3511,0,5.5366,2.3472,5.5366,5.4072,0,3.0762-2.1855,5.3911-5.5366,5.3911h-3.6914Zm1.3438-1.1982h2.3477c2.6226,0,4.1445-1.8779,4.1445-4.1929,0-2.3315-1.4731-4.2095-4.1445-4.2095h-2.3477v8.4023Z" fill="#5d1b24"/><path d="M105.3711,132.2374v-10.7983h1.3438v10.7983h-1.3438Z" fill="#5d1b24"/><path d="M120.2188,132.2374l-6.2979-8.71v8.71h-1.3438v-10.7983h1.376l6.2168,8.5317v-8.5317h1.3438v10.7983h-1.2949Z" fill="#5d1b24"/><path d="M127.3775,132.2374v-10.7983h1.3438v10.7983h-1.3438Z" fill="#5d1b24"/><path d="M142.2247,132.2374l-6.2979-8.71v8.71h-1.3438v-10.7983h1.376l6.2168,8.5317v-8.5317h1.3438v10.7983h-1.2949Z" fill="#5d1b24"/><path d="M154.5,121.2608c1.9102,0,3.2378,.8418,4.1929,2.0239l-1.0684,.6636c-.6802-.874-1.8296-1.4893-3.1245-1.4893-2.3638,0-4.1611,1.813-4.1611,4.3872,0,2.5581,1.7974,4.4033,4.1611,4.4033,1.2949,0,2.3633-.6313,2.8979-1.1655v-2.2017h-3.7075v-1.1982h5.0513v3.9019c-1.0039,1.1172-2.4771,1.8618-4.2417,1.8618-3.0762,0-5.5532-2.2505-5.5532-5.6016s2.4771-5.5854,5.5532-5.5854Z" fill="#5d1b24"/></g><g><path d="M46.9136,69.7203v5.6162h-1.3906c-.0361-.8198-.1431-1.5508-.3213-2.1929-.1787-.5347-.4639-1.043-.8555-1.5244-.3931-.4814-.9629-.7222-1.7119-.7222h-5.9907v17.2236h2.0859c1.854,0,2.9062-.1421,3.1562-.4282,.249-.2847,.4277-.5884,.5347-.9092,.1421-.3921,.2139-.856,.2139-1.3906h1.2305v6.6323h-1.2305c0-.5347-.0718-.98-.2139-1.3369-.1069-.356-.2856-.6772-.5347-.9629-.25-.2852-1.3022-.4277-3.1562-.4277h-2.0859v15.7793c0,.4995,.0713,.8647,.2139,1.0962,.1421,.2324,.2852,.3662,.4282,.4014,.2139,.1069,.4453,.1069,.6953,0v1.3906h-6.4722v-1.3906c.2847,.1069,.499,.1069,.6416,0,.1782-.0352,.356-.1689,.5352-.4014,.1777-.2314,.2671-.5967,.2671-1.0962v-32.4678c0-.5352-.0894-.918-.2671-1.1504-.1792-.2314-.3569-.3828-.5352-.4546-.1426-.0708-.3569-.0708-.6416,0v-1.2837h15.4048Z"/><path d="M70.3951,105.6651c0,.2856-.0718,.5796-.2139,.8823-.1431,.3032-.3477,.5884-.6152,.856s-.6069,.5078-1.0161,.7222c-.4106,.2139-.8828,.3208-1.4175,.3208-.856,0-1.623-.1963-2.3003-.5884-.6777-.3921-1.1416-.9092-1.3906-1.5513-.2139-.356-.3745-.7661-.4814-1.23-.4639,.9624-1.1685,1.7651-2.1128,2.4067-.9453,.6421-1.9883,.9629-3.1289,.9629-1.4268,0-2.6743-.5166-3.7441-1.5513-.6069-.5347-1.106-1.23-1.498-2.0859-.3926-.856-.624-1.8364-.6953-2.9419-.0356-.1069-.0532-.3208-.0532-.6421v-.0532c.0352-.606,.1421-1.2388,.3208-1.8989,.1782-.6597,.4546-1.3188,.8291-1.979,.3745-.6597,.8198-1.2837,1.3374-1.8721,.5161-.5884,1.0781-1.0967,1.6846-1.5244,.1421-.0713,.2583-.1514,.3477-.2407,.0889-.0889,.2227-.1875,.4014-.2944,.0708-.0352,.1245-.062,.1606-.0801,.0347-.0176,.0884-.0444,.1602-.0806,.6421-.3916,1.2036-.7485,1.6851-1.0693,.4814-.3213,.9175-.6235,1.3105-.9097,.2139-.1421,.4277-.3022,.6416-.4814,.2139-.1777,.4458-.356,.6953-.5347,.3213-.2139,.6235-.4629,.9097-.749,.2847-.2847,.4985-.6235,.6416-1.0161,.2139-.356,.3208-.7842,.3208-1.2837,0-.499-.0532-.9443-.1602-1.3374-.1431-.7837-.5083-1.4614-1.0967-2.0322-.5884-.5703-1.2393-.9448-1.9521-1.1235-.3213-.1069-.6245-.1606-.9097-.1606-.9985,0-1.8545,.1792-2.5674,.5352-.4639,.2139-.8022,.4546-1.0161,.7222-.2139,.2671-.3301,.5171-.3477,.7485-.0186,.2324,.0269,.4199,.1338,.562,.1069,.1426,.249,.2495,.4277,.3208,.0713,.0356,.1152,.0532,.1338,.0532,.0176,0,.062,.0186,.1338,.0537,.4629,.1787,.8467,.4907,1.1499,.936,.3027,.4463,.4546,.936,.4546,1.4707,0,.6782-.2407,1.2573-.7222,1.7388s-1.061,.7222-1.7383,.7222c-.7139,0-1.3198-.2407-1.8184-.7222-.5-.4814-.749-1.0605-.749-1.7388,0-.6055,.0801-1.2383,.2407-1.8984,.1602-.6597,.4009-1.2573,.7222-1.792,.6768-.998,1.4883-1.7202,2.4336-2.1665,.9443-.4453,1.9873-.6685,3.1289-.6685,.856,0,1.7026,.1606,2.541,.4814,.8374,.3208,1.5864,.7754,2.2466,1.3638,.6592,.5884,1.2119,1.293,1.6582,2.1128,.4453,.8208,.6685,1.7651,.6685,2.835v15.7261c0,.6416,.0083,1.061,.0269,1.2568,.0176,.1963,.0269,.3301,.0269,.4009,0,.4639,.1416,.8384,.4277,1.1235,.2852,.2856,.6235,.4277,1.0161,.4277,.4629,0,.8374-.1338,1.1235-.4009,.2847-.2676,.4453-.6152,.4814-1.043h1.123Zm-8.3979-1.3374c.2852-.499,.4551-1.0337,.5083-1.6045,.0537-.5703,.0801-1.105,.0801-1.605v-9.8955c-.1426,.1431-.2939,.2769-.4546,.4014-.1602,.1255-.3301,.2764-.5078,.4546-1.0347,.749-1.9175,1.436-2.6479,2.0596-.7314,.624-1.3462,1.2661-1.8452,1.9253-.5,.6602-.8921,1.3643-1.1768,2.1128-.2861,.749-.4639,1.605-.5352,2.5674v.8027c.0352,1.3555,.4014,2.416,1.0967,3.1826,.6953,.7671,1.6851,1.1499,2.9688,1.1499,.5698,0,1.0874-.1421,1.5513-.4282,.4629-.3208,.7837-.6953,.9624-1.123Z"/><path d="M80.8785,82.6646c-1.1416,.0718-2.0952,.6509-2.8618,1.7383-.7671,1.0884-1.1499,2.7197-1.1499,4.8945v11.8208c0,1.2129,.1152,2.2114,.3477,2.9956,.2314,.7847,.5522,1.4092,.9629,1.8721,.4092,.4639,.8906,.7847,1.4438,.9629,.5527,.1787,1.1318,.2671,1.7388,.2671,.7485,0,1.4614-.1069,2.1392-.3208,.6772-.2139,1.2842-.5698,1.8188-1.0698,.5347-.499,.9629-1.1851,1.2837-2.0591,.3208-.8735,.4814-1.9526,.4814-3.2363h1.1768v.6953c0,.999-.1338,1.9351-.4014,2.8081-.2671,.8745-.6953,1.6406-1.2837,2.3003-.5884,.6602-1.3462,1.1768-2.2729,1.5513-.9277,.374-2.0688,.5615-3.4233,.5615-.856,0-1.73-.1699-2.6211-.5083-.8916-.3384-1.6943-.8198-2.4072-1.4438-.7134-.6235-1.3018-1.3818-1.7651-2.2734-.4639-.8911-.6953-1.8896-.6953-2.9956v-11.9814c0-1.2119,.2314-2.2998,.6953-3.2627,.4634-.9629,1.0518-1.7827,1.7651-2.4604,.7129-.6772,1.5156-1.1943,2.4072-1.5513,.8911-.356,1.7651-.5347,2.6211-.5347,.4277,0,.8374,.0181,1.23,.0532,.3921,.0361,.7842,.1431,1.1768,.3208,.0352,.0361,.0889,.0537,.1606,.0537l.4277,.1606c.3921,.0718,.8022,.2402,1.2305,.5078,.4277,.2676,.8022,.4014,1.123,.4014,.4282,0,.6421-.356,.6421-1.0698h1.3906v9.0396h-1.1768c0-.4629-.0186-.9897-.0537-1.5781-.0356-.5884-.1157-1.1768-.2407-1.7651s-.3208-1.1675-.5884-1.7383c-.2671-.5698-.6147-1.0874-1.043-1.5513-.6416-.6416-1.3369-1.0693-2.0859-1.2837-.749-.2139-1.48-.3208-2.1929-.3208Z"/><path d="M110.9922,83.3067h-.1069c-.0356,0-.0718-.0088-.1069-.0269-.0361-.0176-.0718-.0269-.1069-.0269-.1787,0-.3931,.0986-.6421,.2944-.2495,.1963-.374,.6333-.374,1.3101v10.1899c0,1.2661-.0093,2.5054-.0269,3.7173-.0186,1.2129-.0269,2.292-.0269,3.2363v3.2896c0,.6777,.1152,1.0786,.3477,1.2036,.2314,.125,.4546,.187,.6685,.187,.0713,0,.1245-.0176,.1606-.0537,.0352,0,.0713-.0176,.1069-.0532v1.3906h-5.0278v-1.979c-.1431,.2139-.2769,.3926-.4014,.5347-.125,.1431-.2764,.3037-.4546,.4814-.5347,.5-1.1768,.8921-1.9253,1.1768-.0361,0-.0537,.0083-.0537,.0269,0,.0176-.0186,.0269-.0537,.0269h-.0532c-.4277,.1421-.9277,.2139-1.4976,.2139h-.2144c-1.8184-.0718-3.2896-.686-4.4126-1.8452-1.1235-1.1587-1.6851-3.0225-1.6851-5.5898v-7.7559c0-1.0698,.0083-2.1035,.0269-3.1025,.0176-.9976,.0269-1.8896,.0269-2.6743,0-.7837,.0083-1.4082,.0269-1.8721,.0176-.4629,.0264-.7129,.0264-.749,0-.6768-.1338-1.1138-.4009-1.3101-.2676-.1958-.4907-.2944-.6689-.2944-.0718,0-.125,.0093-.1602,.0269-.0361,.0181-.0718,.0269-.1069,.0269h-.1069v-1.3374h6.4185v1.3374h-.0532c-.0361,0-.0723-.0088-.1074-.0269-.0356-.0176-.0894-.0269-.1602-.0269-.2139,0-.4282,.0801-.6421,.2407s-.3394,.5264-.3745,1.0967v2.835c0,1.1416-.0088,2.3359-.0264,3.5835-.0186,1.2485-.0269,2.5059-.0269,3.771v7.4082c.0708,1.8188,.2939,3.1025,.6685,3.8511,.3745,.749,.9897,1.1416,1.8457,1.1768h.2139c1.0698,0,2.0142-.4277,2.835-1.2837,.8198-.8555,1.3188-2.2998,1.4976-4.3325,0-1.7114,.0083-3.5386,.0269-5.4824,.0176-1.9434,.0264-3.7529,.0264-5.4292v-5.8306c0-.6768-.1069-1.1138-.3208-1.3101-.2139-.1958-.4277-.2944-.6416-.2944-.0723,0-.1255,.0093-.1606,.0269-.0361,.0181-.0718,.0269-.1069,.0269h-.1069v-1.3374h6.4185v1.3374Z"/><path d="M121.8501,105.0767c0,.4995,.0806,.8647,.2407,1.0962,.1606,.2324,.312,.3662,.4546,.4014,.1782,.1069,.4097,.1069,.6953,0v1.3906h-6.4722v-1.3906c.2852,.1069,.5352,.1069,.749,0,.1069-.0352,.249-.1689,.4277-.4014,.1782-.2314,.2676-.5967,.2676-1.0962v-32.4146c0-.5347-.0894-.9175-.2676-1.1499-.1787-.2314-.3208-.3828-.4277-.4546-.2139-.1069-.4639-.1069-.749,0v-1.2837h5.0815v35.3027Z"/><path d="M142.2828,103.6324c0,1.2485-.3931,2.2646-1.1768,3.0488-.5352,.5347-1.1592,.9629-1.8721,1.2837-.7139,.3208-1.4805,.4814-2.3003,.4814-1.2129,0-2.2822-.3394-3.2095-1.0161-.9277-.6772-1.6045-1.5688-2.0322-2.6748-.1069-.2847-.1875-.5791-.2407-.8823-.0537-.3027-.0806-.6504-.0806-1.043,0-.1069-.0088-.2759-.0264-.5083-.0186-.2314-.0269-.5083-.0269-.8291s-.0093-.6235-.0269-.9092c-.0186-.2852-.0269-.5352-.0269-.749v-16.4209h-3.6904v-1.4443h3.6904v-9.3604c0-.5352-.0801-.918-.2407-1.1504-.1602-.2314-.3125-.3828-.4546-.4546-.1787-.0708-.4102-.0708-.6953,0v-1.2837h5.0815v12.249h4.4932v1.4443h-4.4932v2.9951c0,1.0698-.0093,2.3096-.0269,3.7178-.0186,1.4087-.0269,2.8706-.0269,4.3857v7.3013c0,.856,.0176,1.3906,.0537,1.605,.249,1.2837,.6416,2.1309,1.1768,2.5405,.5347,.4102,1.1582,.6152,1.8721,.6152,.8198,0,1.5327-.2759,2.1396-.8291,.606-.5527,.9268-1.2568,.9629-2.1128h1.1768Z"/><path d="M166.941,81.8624v1.3906c-.2144-.1069-.4639-.0884-.749,.0537-.25,.1069-.5083,.3394-.7754,.6953-.2676,.3569-.5083,.9629-.7222,1.8184-.0361,.0718-.1792,.5-.4282,1.2837-.2495,.7852-.5439,1.8188-.8823,3.1025-.3394,1.2837-.7222,2.7373-1.1499,4.3594-.4282,1.623-.8921,3.2896-1.3911,5.001-.4995,1.7119-.981,3.397-1.4438,5.0547-.4639,1.6582-.8828,3.1743-1.2573,4.5469-.374,1.3721-.7134,2.5225-1.0161,3.4497-.3032,.9272-.5083,1.498-.6152,1.7119-.4639,.998-1.1055,1.8628-1.9253,2.5942-.8208,.7305-1.7837,1.1313-2.8887,1.2036-.2856,0-.5708-.0186-.856-.0537-.2856-.0361-.5884-.1069-.9092-.2139-.4995-.1431-.9893-.4014-1.4707-.7759-.4814-.374-.8828-.8379-1.2036-1.3906-.3208-.5532-.5439-1.1592-.6685-1.8184-.1255-.6602-.0806-1.3643,.1333-2.1128,0-.0361,.0088-.0537,.0269-.0537,.0176,0,.0269-.0181,.0269-.0532,0-.0723,.0176-.1255,.0537-.1606,.1777-.6421,.5347-1.123,1.0693-1.4443,.5352-.3208,1.1235-.3926,1.7651-.2139,.6421,.1782,1.1235,.5435,1.4443,1.0967,.3208,.5522,.4097,1.1499,.2676,1.792-.1431,.6055-.4814,1.0693-1.0161,1.3906-.5352,.3208-1.106,.4277-1.7119,.3208,.0352,1.1768,.5522,1.9072,1.5513,2.1929,.5698,.1782,1.0513,.0806,1.4443-.2939,.3916-.3745,.7661-.8828,1.123-1.5244,.0713-.1069,.2852-.8208,.6421-2.1396,.356-1.3198,.8022-2.8882,1.3369-4.707-.2856-1.0337-.6333-2.3267-1.043-3.8779-.4102-1.5513-.856-3.1465-1.3374-4.7871-.481-1.6401-.9448-3.2808-1.3906-4.9214-.4463-1.6396-.8472-3.1196-1.2031-4.4395-.3569-1.3188-.6689-2.4243-.9365-3.3164-.2671-.8906-.4009-1.3721-.4009-1.4438-.25-.7129-.5176-1.2388-.8022-1.5781-.2861-.3384-.5708-.5259-.856-.5615-.2856-.1069-.6069-.0889-.9629,.0532v-1.23h5.4023v1.23c-.3208-.0347-.5708,0-.7485,.1074-.1431,.1069-.2231,.3208-.2407,.6416-.0186,.3208,.0801,.8208,.2939,1.4976,.4282,1.3906,.7842,2.6396,1.0698,3.7441,.2852,1.106,.606,2.3535,.9629,3.7446,.356,1.3906,.7222,2.7998,1.0967,4.2256,.374,1.4268,.7393,2.8081,1.0962,4.1455,.356,1.3369,.6597,2.4868,.9097,3.4497,.6055-1.9966,1.2031-4.0918,1.7915-6.2847,.5884-2.1934,1.1235-4.1992,1.605-6.0176,.4814-1.8188,.8823-3.334,1.2031-4.5469,.3213-1.2114,.499-1.8721,.5352-1.979,.1777-.8555,.2222-1.4614,.1338-1.8184-.0894-.356-.2231-.5884-.4014-.6953-.25-.1421-.5532-.1606-.9092-.0537v-1.3906h7.3281Z"/></g></g></g></svg>