<?xml version="1.0" encoding="UTF-8"?><svg id="Layer_1" xmlns="http://www.w3.org/2000/svg" width="200" height="200" viewBox="0 0 200 200"><g><circle cx="101.6256" cy="101.8814" r="95.4547" fill="#383838"/><circle cx="98.3744" cy="98.1186" r="95.4547" fill="#fff"/></g><g><polygon points="111.9621 118.7345 108.6993 126.7125 108.2101 126.7125 104.9618 118.7345 104.9618 126.7125 103.7686 126.7125 103.7686 117.1243 105.4789 117.1243 108.454 124.4268 111.4444 117.1243 113.1553 117.1243 113.1553 126.7125 111.9621 126.7125 111.9621 118.7345" fill="#5d1b24"/><path d="M124.3995,124.5852h-4.859l-.8479,2.1273h-1.3225l3.8528-9.5876h1.4809l3.8667,9.5876h-1.3225l-.8485-2.1273Zm-4.5137-1.0639h4.1544l-2.0702-5.3336-2.0842,5.3336Z" fill="#5d1b24"/><path d="M133.8827,122.9034h-1.9118v3.809h-1.1932v-9.5882h3.8528c1.7534,0,3.0043,1.1216,3.0043,2.8896,0,1.7249-1.1787,2.6735-2.4872,2.7882l2.5873,3.9104h-1.4081l-2.4441-3.809Zm.6039-4.7152h-2.5157v3.6658h2.5157c1.1355,0,1.9118-.7617,1.9118-1.8402s-.7763-1.8256-1.9118-1.8256" fill="#5d1b24"/><polygon points="156.7212 122.3996 155.758 123.4921 155.758 126.7124 154.5654 126.7124 154.5654 117.1242 155.758 117.1242 155.758 122.0828 159.9986 117.1242 161.494 117.1242 157.4974 121.681 161.8388 126.7124 160.3579 126.7124 156.7212 122.3996" fill="#5d1b24"/><polygon points="166.1023 117.124 172.384 117.124 172.384 118.188 167.2955 118.188 167.2955 121.2784 172.2838 121.2784 172.2838 122.3418 167.2955 122.3418 167.2955 125.6483 172.384 125.6483 172.384 126.7116 166.1023 126.7116 166.1023 117.124" fill="#5d1b24"/><polygon points="179.6098 118.1878 176.5764 118.1878 176.5764 117.1239 183.8504 117.1239 183.8504 118.1878 180.803 118.1878 180.803 126.712 179.6098 126.712 179.6098 118.1878" fill="#5d1b24"/><path d="M23.6051,89.7397l7.3608,.0467v1.2351c-.2215-.0631-.3957-.0631-.5219,0-.1275,.0637-.2379,.1827-.3332,.3557-.0947,.1748-.142,.4685-.142,.8788v14.4369h-1.1404c0-.8218-.6488-.9966-1.9464-.522-1.0767,.6003-2.3117,.8855-3.7047,.8545-1.013,0-2.0265-.2458-3.0388-.7356-1.0136-.4916-1.8366-1.2114-2.4696-2.1613-.4115-.6009-.721-1.297-.9262-2.0897-.2057-.7908-.3557-1.7485-.4516-2.8726-.0946-1.124-.1414-2.4532-.1414-3.9899v-5.4368c0-2.7852,.0152-5.1054,.0467-6.9572,.0315-1.8517,.1735-3.3793,.4279-4.5835,.1257-1.0445,.4582-1.947,.9966-2.7063,.5383-.7605,1.1714-1.3929,1.9003-1.8997,1.1708-.7277,2.3895-1.0931,3.6561-1.0931h.4516c.1426,0,.2925,.017,.4509,.0485l-.0953-.0485c.0631,0,.1262,.0091,.1906,.0237,.0631,.017,.1262,.0249,.19,.0249,.7277,.1584,1.3128,.3557,1.757,.593,.4431,.2379,.823,.42,1.1398,.5462,.2203,.1268,.4582,.1268,.7125,0,.1572-.0947,.2919-.2209,.4036-.3799,.1105-.1578,.1657-.3793,.1657-.6646h1.1877v8.2627h-1.0919c0-.5062-.0485-1.0281-.1432-1.5665-.0638-.4431-.1584-.9419-.2846-1.4967-.1275-.5529-.3174-1.0991-.5699-1.6375-.0637-.1262-.1979-.3484-.4042-.6658-.2057-.3156-.4904-.6239-.8545-.9249-.3642-.301-.8157-.5541-1.3528-.7605-.5389-.2057-1.1568-.261-1.853-.1663-.5062,.0637-.9893,.19-1.4475,.3805-.46,.1894-.8557,.4983-1.1877,.925-.3326,.4285-.5936,.9747-.7835,1.6393s-.2846,1.5034-.2846,2.5169v21.2278c0,2.0265,.3557,3.4661,1.0682,4.3213s1.5744,1.2824,2.5885,1.2824c.5056,0,.9802-.0473,1.4244-.1426,.5377-.19,.9571-.4352,1.2587-.7362,.2998-.3004,.522-.6961,.664-1.1872,.1432-.4904,.23-1.0688,.2616-1.7328,.0316-.6658,.0473-1.456,.0473-2.3755v-7.4081c.0316-.2525,0-.4746-.0947-.6646-.0637-.1578-.19-.3168-.3799-.4746-.19-.1578-.4746-.2379-.8552-.2379h-1.8517v-1.2818Z"/><path d="M51.4332,104.6513c0,.2537-.0631,.5147-.19,.7835-.1262,.2689-.3083,.522-.5456,.7599-.2379,.2373-.5384,.451-.9025,.6403-.3642,.1906-.783,.2853-1.2582,.2853-.7599,0-1.4409-.1742-2.0423-.5226-.602-.3478-1.0136-.8072-1.2351-1.3765-.1894-.3162-.332-.6804-.4273-1.0925-.4115,.8545-1.0366,1.5671-1.8754,2.137-.84,.5693-1.7655,.8545-2.7779,.8545-1.2673,0-2.3749-.4582-3.3247-1.3765-.5389-.4752-.9814-1.0925-1.3298-1.8517-.3484-.7605-.5541-1.6308-.6179-2.6128-.0316-.0947-.0473-.2853-.0473-.5699v-.0473c.0316-.5383,.1262-1.0998,.2852-1.686,.1584-.5857,.4042-1.1701,.7362-1.7564,.3326-.5863,.7283-1.1404,1.1878-1.663,.4582-.522,.9571-.9735,1.4955-1.3534,.1262-.0631,.2288-.1341,.3089-.213,.0789-.0795,.1973-.1663,.3557-.2616,.0631-.0316,.1105-.0552,.1426-.0704,.031-.0164,.0789-.0401,.142-.0728,.5705-.3472,1.0688-.664,1.4961-.9486,.4279-.2859,.8151-.5541,1.1641-.8084,.19-.1256,.3793-.2677,.5699-.4267,.19-.1584,.3951-.3162,.6172-.4752,.2853-.19,.5535-.4103,.8072-.6646,.2531-.2525,.4431-.5529,.5699-.9019,.19-.3168,.2852-.6967,.2852-1.1404,0-.4424-.0473-.8381-.1432-1.1865-.1262-.6961-.4503-1.2982-.9729-1.805-.5226-.5062-1.1003-.8388-1.7334-.9966-.2852-.0959-.5547-.1432-.8072-.1432-.8873,0-1.6472,.1584-2.2796,.4752-.4121,.19-.7125,.403-.9031,.6409-.1887,.2373-.2925,.4594-.3083,.6646-.0164,.2064,.0237,.3726,.1196,.4989,.0946,.1262,.2203,.2215,.3793,.2846,.0631,.0322,.1025,.0473,.1183,.0473s.0552,.0164,.119,.0473c.4109,.159,.7519,.4364,1.0214,.8315,.2683,.3963,.403,.8315,.403,1.3061,0,.6021-.213,1.1161-.6409,1.5434-.4273,.4273-.9419,.6409-1.5434,.6409-.6336,0-1.1714-.2136-1.6144-.6409-.4436-.4273-.6652-.9413-.6652-1.5434,0-.5377,.0716-1.1004,.2136-1.686,.1426-.5857,.3562-1.1155,.6409-1.5907,.6015-.8861,1.3219-1.527,2.1613-1.9227,.8381-.3969,1.7643-.5948,2.7785-.5948,.7598,0,1.5106,.1432,2.2559,.4285,.7429,.284,1.4074,.6883,1.9937,1.2108,.5857,.522,1.0761,1.1471,1.4724,1.8754,.3957,.7283,.5942,1.5671,.5942,2.5175v13.9617c0,.5693,.0067,.9426,.0237,1.1155,.0152,.1742,.0237,.2931,.0237,.3562,0,.4121,.1262,.7447,.3793,.9972,.2537,.2543,.5541,.3805,.9031,.3805,.4109,0,.7429-.119,.9966-.3563,.2531-.2379,.3957-.5462,.4273-.9262h.9972Zm-7.4554-1.1877c.2531-.4424,.4042-.9177,.4516-1.4251,.0473-.505,.0704-.9808,.0704-1.4245v-8.7858c-.1262,.1274-.261,.2464-.4036,.3569-.142,.1117-.2925,.2458-.4503,.4036-.9195,.6646-1.7024,1.2752-2.3518,1.8287-.6488,.5541-1.195,1.124-1.6381,1.7091-.4431,.5863-.7914,1.2108-1.0445,1.8766-.2537,.664-.4121,1.4245-.4752,2.279v.7119c.0316,1.2041,.3562,2.1455,.9741,2.8252,.6173,.6816,1.4961,1.0215,2.6353,1.0215,.5062,0,.9656-.1256,1.3777-.3793,.4103-.2853,.6955-.6179,.8546-.9978"/><path d="M58.7466,104.1288c0,.4431,.0716,.7678,.2143,.9735,.1414,.2057,.2768,.3253,.403,.3563,.1584,.0953,.3635,.0953,.6178,0v1.2345h-5.7463v-1.2345c.2531,.0953,.4746,.0953,.6646,0,.0953-.0309,.2215-.1505,.38-.3563,.1584-.2057,.2373-.5304,.2373-.9735v-28.7791c0-.4746-.0789-.8145-.2373-1.0208-.1584-.2051-.2847-.3399-.38-.4036-.19-.0947-.4115-.0947-.6646,0v-1.1398h4.5113v31.3433Z"/><path d="M69.6691,104.1288c0,.4431,.071,.7678,.2143,.9735,.1414,.2057,.2768,.3253,.403,.3563,.1584,.0953,.3635,.0953,.6178,0v1.2345h-5.7463v-1.2345c.2531,.0953,.4746,.0953,.6646,0,.0953-.0309,.2215-.1505,.38-.3563,.1584-.2057,.2373-.5304,.2373-.9735v-28.7791c0-.4746-.0789-.8145-.2373-1.0208-.1584-.2051-.2847-.3399-.38-.4036-.19-.0947-.4115-.0947-.6646,0v-1.1398h4.5113v31.3433Z"/><path d="M92.5113,104.6513c0,.2537-.0637,.5147-.1906,.7835-.1262,.2689-.3077,.522-.5456,.7599-.2373,.2373-.5378,.451-.9025,.6403-.3642,.1906-.783,.2853-1.2576,.2853-.7605,0-1.4414-.1742-2.0429-.5226-.6014-.3478-1.0136-.8072-1.2345-1.3765-.19-.3162-.3326-.6804-.4279-1.0925-.4109,.8545-1.0366,1.5671-1.8754,2.137-.84,.5693-1.7655,.8545-2.7779,.8545-1.2673,0-2.3749-.4582-3.3247-1.3765-.5389-.4752-.9814-1.0925-1.3298-1.8517-.3484-.7605-.5541-1.6308-.6179-2.6128-.0316-.0947-.0473-.2853-.0473-.5699v-.0473c.0316-.5383,.1268-1.0998,.2852-1.686,.1584-.5857,.4042-1.1701,.7362-1.7564,.3326-.5863,.7283-1.1404,1.1878-1.663,.4582-.522,.9571-.9735,1.4955-1.3534,.1262-.0631,.2288-.1341,.3089-.213,.0789-.0795,.1973-.1663,.3557-.2616,.0631-.0316,.1105-.0552,.1426-.0704,.031-.0164,.0789-.0401,.142-.0728,.5705-.3472,1.0688-.664,1.4961-.9486,.4279-.2859,.8151-.5541,1.1641-.8084,.19-.1256,.3793-.2677,.5699-.4267,.19-.1584,.3951-.3162,.6172-.4752,.2853-.19,.5535-.4103,.8078-.6646,.2531-.2525,.4424-.5529,.5693-.9019,.19-.3168,.2852-.6967,.2852-1.1404,0-.4424-.0473-.8381-.142-1.1865-.1268-.6961-.4515-1.2982-.9741-1.805-.5226-.5062-1.1003-.8388-1.7334-.9966-.2852-.0959-.5547-.1432-.8072-.1432-.8873,0-1.6472,.1584-2.2796,.4752-.4121,.19-.7125,.403-.9031,.6409-.1887,.2373-.2925,.4594-.3083,.6646-.0164,.2064,.0237,.3726,.1196,.4989,.0946,.1262,.2203,.2215,.3793,.2846,.0631,.0322,.1025,.0473,.1183,.0473s.0552,.0164,.119,.0473c.4109,.159,.7519,.4364,1.0214,.8315,.2683,.3963,.4036,.8315,.4036,1.3061,0,.6021-.2136,1.1161-.6415,1.5434-.4273,.4273-.9419,.6409-1.5434,.6409-.6336,0-1.1714-.2136-1.6144-.6409-.4436-.4273-.6652-.9413-.6652-1.5434,0-.5377,.0716-1.1004,.2136-1.686,.1426-.5857,.3562-1.1155,.6415-1.5907,.6008-.8861,1.3213-1.527,2.1606-1.9227,.8381-.3969,1.7643-.5948,2.7785-.5948,.7598,0,1.5106,.1432,2.2559,.4285,.7435,.284,1.4074,.6883,1.9937,1.2108,.5857,.522,1.0767,1.1471,1.473,1.8754,.3951,.7283,.5936,1.5671,.5936,2.5175v13.9617c0,.5693,.0067,.9426,.0237,1.1155,.0152,.1742,.0243,.2931,.0243,.3562,0,.4121,.1262,.7447,.3787,.9972,.2537,.2543,.5541,.3805,.9031,.3805,.4109,0,.7429-.119,.9972-.3563,.2525-.2379,.3951-.5462,.4267-.9262h.9978Zm-7.456-1.1877c.2537-.4424,.4042-.9177,.4516-1.4251,.0473-.505,.071-.9808,.071-1.4245v-8.7858c-.1269,.1274-.261,.2464-.4042,.3569-.142,.1117-.2925,.2458-.4503,.4036-.9195,.6646-1.7024,1.2752-2.3518,1.8287-.6488,.5541-1.195,1.124-1.6381,1.7091-.4431,.5863-.7914,1.2108-1.0445,1.8766-.2537,.664-.4121,1.4245-.4752,2.279v.7119c.0322,1.2041,.3562,2.1455,.9741,2.8252,.6173,.6816,1.4961,1.0215,2.6353,1.0215,.5068,0,.9656-.1256,1.3777-.3793,.4109-.2853,.6955-.6179,.8546-.9978"/><path d="M106.1412,102.8462c0,1.1082-.3484,2.0113-1.0445,2.7075-.4752,.474-1.03,.8545-1.6624,1.1392-.6336,.2853-1.314,.4279-2.0417,.4279-1.0773,0-2.0271-.3016-2.8495-.9031-.8242-.6002-1.4245-1.3929-1.805-2.3737-.0947-.2537-.1663-.5147-.2136-.7835-.0473-.2689-.071-.5778-.071-.9268,0-.0947-.0079-.244-.0231-.4515-.017-.2045-.0243-.4503-.0243-.735,0-.2853-.0073-.5541-.0237-.8078-.0164-.2525-.0237-.4746-.0237-.6646v-14.5795h-3.2768v-1.2812h3.2768v-8.3118c0-.4752-.0716-.8139-.2136-1.0208-.1432-.2051-.278-.3399-.4042-.403-.159-.0631-.3642-.0631-.6173,0v-1.1404h4.5113v10.8761h3.9899v1.2812h-3.9899v2.6595c0,.9504-.0079,2.0496-.0237,3.3005-.0158,1.2515-.0237,2.5491-.0237,3.894v6.4825c0,.7599,.0164,1.2351,.0473,1.4245,.2215,1.1404,.5705,1.8924,1.0457,2.2559,.474,.3642,1.0281,.5462,1.6618,.5462,.7283,0,1.3607-.2452,1.899-.7362,.5377-.4904,.823-1.1155,.8552-1.876h1.0445Z"/><path d="M114.3091,104.1284c0,.4437,.0631,.769,.19,.9741,.1262,.2064,.2689,.3247,.4273,.3563,.1584,.0947,.3484,.0947,.5705,0v1.2339h-5.699v-1.2339c.2216,.0947,.4273,.0947,.6173,0,.1578-.0316,.3004-.1499,.4273-.3563,.1262-.2051,.1906-.5304,.1906-.9741v-18.0936c0-.4109-.0643-.7198-.1906-.9256-.1268-.2064-.2695-.3399-.4273-.4042-.19-.0631-.3957-.0631-.6173,0v-1.1859h4.5113v20.6093Zm.4273-25.8343c0,.6021-.2057,1.101-.6173,1.4967-.4109,.3957-.9019,.593-1.4718,.593s-1.0445-.1972-1.425-.593c-.38-.3957-.5699-.8946-.5699-1.4967,0-.5693,.19-1.0445,.5699-1.4251,.3805-.3787,.8552-.5693,1.425-.5693s1.0609,.1906,1.4718,.5693c.4115,.3805,.6173,.8558,.6173,1.4251"/><path d="M129.6,83.1385c1.6775,.0637,3.0158,.61,4.013,1.6375,.9978,1.0299,1.4961,2.7008,1.4961,5.0108v14.3422c0,.633,.1111,1.0202,.332,1.1635,.2209,.142,.4115,.2136,.5699,.2136h.2373c.031,0,.0631-.0158,.0947-.048v1.2351h-5.6984v-1.2351c.0309,.0322,.0631,.048,.0947,.048h.1906c.1578,0,.332-.0631,.522-.1906,.1906-.1256,.3168-.4418,.3805-.9492v-13.4871c0-.4431-.0085-.8382-.0237-1.1871-.0164-.3484-.023-.6646-.023-.9498v-.048c-.0643-1.5816-.2616-2.7063-.5948-3.3715-.332-.6646-.8618-1.0287-1.5907-1.0919h-.19c-1.013,0-1.876,.3793-2.5885,1.1398-.7125,.7592-1.1477,2.0417-1.3055,3.8467v14.9115c0,.633,.1026,1.0202,.3089,1.1635,.2057,.142,.4036,.2136,.5936,.2136h.19c.0316,0,.0631-.0158,.0953-.048v1.2351h-5.699v-1.2351c.0309,.0322,.0631,.048,.0953,.048h.2373c.1578,0,.3557-.0716,.593-.2136,.2379-.1432,.3557-.5305,.3557-1.1635v-18.1409c0-.6015-.1177-.9814-.3557-1.1398-.2373-.1584-.4352-.2379-.593-.2379h-.3326v-1.0918h4.5113v1.8523c.1262-.19,.2373-.3642,.332-.5226,.0953-.1584,.2209-.301,.3805-.4279,.5062-.4746,1.0925-.823,1.7571-1.0445h.0946c0-.0316,.0164-.0473,.048-.0473,.2209-.0631,.4424-.1104,.6646-.1432,.2209-.0303,.4582-.0467,.7125-.0467h.0947Z"/><line x1="146.0959" y1="83.654" x2="146.0959" y2="127.5" fill="none" stroke="#000" stroke-miterlimit="10" stroke-width="1.348"/></g></svg>