<?xml version="1.0" encoding="UTF-8"?><svg id="Layer_1" xmlns="http://www.w3.org/2000/svg" width="276.3128" height="90.621" viewBox="0 0 276.3128 90.621"><polygon points="157.8658 76.1784 152.4898 89.3234 151.6838 89.3234 146.3318 76.1784 146.3318 89.3234 144.3658 89.3234 144.3658 73.5254 147.1838 73.5254 152.0858 85.5574 157.0128 73.5254 159.8318 73.5254 159.8318 89.3234 157.8658 89.3234 157.8658 76.1784" fill="#5d1b24"/><path d="M178.3583,85.8184h-8.006l-1.397,3.505h-2.179l6.348-15.797h2.44l6.371,15.797h-2.179l-1.398-3.505Zm-7.437-1.753h6.845l-3.4109-8.788-3.434,8.788Z" fill="#5d1b24"/><path d="M193.9834,83.0473h-3.15v6.276h-1.966v-15.798h6.348c2.889,0,4.95,1.848,4.95,4.761,0,2.842-1.942,4.405-4.098,4.594l4.263,6.443h-2.32l-4.027-6.276Zm.995-7.769h-4.145v6.04h4.145c1.871,0,3.15-1.255,3.15-3.032s-1.2791-3.008-3.15-3.008" fill="#5d1b24"/><polygon points="231.6133 82.2173 230.0263 84.0173 230.0263 89.3233 228.0613 89.3233 228.0613 73.5253 230.0263 73.5253 230.0263 81.6953 237.0133 73.5253 239.4773 73.5253 232.8923 81.0333 240.0453 89.3233 237.6053 89.3233 231.6133 82.2173" fill="#5d1b24"/><polygon points="247.0702 73.525 257.4202 73.525 257.4202 75.278 249.0362 75.278 249.0362 80.37 257.2552 80.37 257.2552 82.122 249.0362 82.122 249.0362 87.57 257.4202 87.57 257.4202 89.322 247.0702 89.322 247.0702 73.525" fill="#5d1b24"/><polygon points="269.3258 75.2777 264.3278 75.2777 264.3278 73.5247 276.3128 73.5247 276.3128 75.2777 271.2918 75.2777 271.2918 89.3227 269.3258 89.3227 269.3258 75.2777" fill="#5d1b24"/><path d="M12.284,28.405l12.128,.077v2.035c-.365-.104-.652-.104-.86,0-.21,.105-.392,.301-.549,.586-.156,.288-.234,.772-.234,1.448v23.787h-1.879c0-1.354-1.069-1.642-3.207-.86-1.774,.989-3.809,1.459-6.104,1.408-1.669,0-3.339-.405-5.007-1.212-1.67-.81-3.026-1.996-4.069-3.561-.678-.99-1.188-2.137-1.526-3.443-.339-1.303-.586-2.881-.744-4.733-.1559-1.852-.233-4.042-.233-6.574v-8.958c0-4.589,.025-8.412,.077-11.463,.0519-3.051,.2859-5.568,.705-7.552,.207-1.721,.755-3.208,1.642-4.459,.887-1.253,1.93-2.295,3.131-3.13,1.929-1.199,3.937-1.801,6.024-1.801h.744c.235,0,.482,.028,.743,.08l-.157-.08c.104,0,.208,.015,.314,.039,.104,.028,.2079,.041,.313,.041,1.199,.261,2.163,.586,2.895,.977,.73,.392,1.356,.692,1.8781,.9,.363,.209,.755,.209,1.174,0,.259-.156,.481-.364,.665-.626,.182-.26,.273-.625,.273-1.095h1.957V13.85h-1.799c0-.834-.08-1.694-.236-2.581-.105-.73-.261-1.552-.469-2.466-.21-.911-.523-1.811-.939-2.698-.105-.208-.326-.574-.666-1.097-.339-.52-.808-1.028-1.408-1.524-.6-.496-1.3441-.913-2.229-1.253-.888-.339-1.906-.43-3.053-.274-.834,.105-1.63,.313-2.385,.627-.758,.312-1.41,.821-1.957,1.524-.548,.706-.978,1.606-1.291,2.701s-.469,2.477-.469,4.147V45.932c0,3.339,.586,5.711,1.76,7.12s2.594,2.113,4.265,2.113c.833,0,1.615-.078,2.347-.235,.886-.313,1.577-.717,2.074-1.213,.494-.495,.86-1.147,1.094-1.956,.236-.808,.379-1.761,.431-2.855,.052-1.097,.078-2.399,.078-3.914v-12.206c.052-.416,0-.782-.156-1.095-.105-.26-.313-.522-.626-.782-.313-.26-.782-.392-1.409-.392h-3.051v-2.112Z"/><path d="M58.1351,52.9743c0,.418-.104,.848-.313,1.291-.208,.443-.508,.86-.899,1.252-.392,.391-.887,.743-1.487,1.055-.6,.314-1.29,.47-2.073,.47-1.252,0-2.374-.287-3.3651-.861-.9919-.573-1.67-1.33-2.035-2.268-.312-.521-.547-1.121-.704-1.8-.678,1.408-1.708,2.582-3.09,3.521-1.384,.938-2.909,1.408-4.577,1.408-2.088,0-3.913-.755-5.478-2.268-.888-.783-1.617-1.8-2.191-3.051-.574-1.253-.913-2.687-1.018-4.305-.052-.156-.078-.47-.078-.939v-.078c.052-.887,.208-1.812,.47-2.778,.261-.965,.666-1.928,1.213-2.894,.548-.966,1.2-1.879,1.957-2.74,.7549-.86,1.577-1.604,2.464-2.23,.208-.104,.377-.221,.509-.351,.13-.131,.325-.274,.586-.431,.104-.052,.182-.091,.235-.116,.051-.027,.13-.066,.234-.12,.94-.572,1.761-1.094,2.465-1.563,.705-.471,1.343-.913,1.918-1.332,.313-.207,.625-.441,.939-.703,.313-.261,.651-.521,1.017-.783,.47-.313,.912-.676,1.33-1.095,.417-.416,.73-.911,.939-1.486,.313-.522,.47-1.148,.47-1.879,0-.729-.078-1.381-.236-1.955-.208-1.147-.742-2.139-1.603-2.974-.861-.834-1.813-1.382-2.856-1.642-.47-.158-.914-.236-1.33-.236-1.462,0-2.7141,.261-3.756,.783-.679,.313-1.174,.664-1.488,1.056-.311,.391-.482,.757-.508,1.095-.027,.34,.039,.614,.197,.822,.1559,.208,.363,.365,.625,.469,.1039,.053,.1689,.078,.1949,.078s.091,.027,.196,.078c.677,.262,1.239,.719,1.683,1.37,.442,.653,.664,1.37,.664,2.152,0,.992-.351,1.839-1.056,2.543-.704,.704-1.552,1.056-2.543,1.056-1.044,0-1.93-.352-2.66-1.056-.731-.704-1.0959-1.551-1.0959-2.543,0-.886,.118-1.813,.352-2.778,.235-.965,.587-1.838,1.056-2.621,.991-1.46,2.178-2.516,3.561-3.168,1.381-.654,2.907-.98,4.578-.98,1.252,0,2.489,.236,3.717,.706,1.224,.468,2.319,1.134,3.285,1.995,.965,.86,1.773,1.89,2.426,3.09,.652,1.2,.979,2.582,.979,4.148v23.004c0,.938,.011,1.553,.039,1.838,.025,.287,.039,.483,.039,.587,0,.679,.208,1.227,.625,1.643,.418,.419,.913,.627,1.488,.627,.677,0,1.224-.196,1.642-.587,.417-.392,.652-.9,.704-1.526h1.643Zm-12.284-1.957c.417-.729,.666-1.512,.744-2.348,.078-.832,.116-1.616,.116-2.347v-14.476c-.208,.21-.43,.406-.665,.588-.234,.184-.482,.405-.742,.665-1.515,1.095-2.805,2.101-3.875,3.013-1.069,.913-1.969,1.852-2.699,2.816-.73,.966-1.304,1.995-1.721,3.092-.418,1.094-.679,2.347-.783,3.755v1.173c.052,1.984,.587,3.535,1.605,4.655,1.017,1.123,2.465,1.683,4.342,1.683,.834,0,1.591-.207,2.27-.625,.676-.47,1.146-1.018,1.408-1.644"/><path d="M70.1851,52.1134c0,.73,.118,1.265,.353,1.604,.233,.339,.456,.536,.664,.587,.261,.157,.599,.157,1.0179,0v2.034h-9.468v-2.034c.417,.157,.782,.157,1.095,0,.157-.051,.365-.248,.626-.587,.261-.339,.391-.874,.391-1.604V4.6954c0-.782-.13-1.342-.391-1.682-.261-.338-.4691-.56-.626-.665-.313-.156-.678-.156-1.095,0V.4704h7.433V52.1134Z"/><path d="M88.1816,52.1134c0,.73,.117,1.265,.353,1.604,.233,.339,.456,.536,.664,.587,.261,.157,.599,.157,1.0179,0v2.034h-9.468v-2.034c.417,.157,.782,.157,1.095,0,.157-.051,.365-.248,.626-.587,.261-.339,.391-.874,.391-1.604V4.6954c0-.782-.13-1.342-.391-1.682-.261-.338-.4691-.56-.626-.665-.313-.156-.678-.156-1.095,0V.4704h7.433V52.1134Z"/><path d="M125.8176,52.9743c0,.418-.105,.848-.314,1.291-.208,.443-.507,.86-.899,1.252-.3911,.391-.886,.743-1.487,1.055-.6,.314-1.29,.47-2.072,.47-1.253,0-2.375-.287-3.366-.861-.991-.573-1.67-1.33-2.034-2.268-.313-.521-.548-1.121-.705-1.8-.677,1.408-1.708,2.582-3.09,3.521-1.384,.938-2.909,1.408-4.577,1.408-2.088,0-3.913-.755-5.478-2.268-.888-.783-1.617-1.8-2.191-3.051-.574-1.253-.913-2.687-1.018-4.305-.052-.156-.078-.47-.078-.939v-.078c.052-.887,.209-1.812,.47-2.778,.261-.965,.666-1.928,1.213-2.894,.548-.966,1.2-1.879,1.957-2.74,.7549-.86,1.577-1.604,2.464-2.23,.208-.104,.377-.221,.509-.351,.13-.131,.325-.274,.586-.431,.104-.052,.182-.091,.235-.116,.051-.027,.13-.066,.234-.12,.94-.572,1.761-1.094,2.465-1.563,.705-.471,1.343-.913,1.918-1.332,.313-.207,.625-.441,.939-.703,.313-.261,.651-.521,1.017-.783,.47-.313,.912-.676,1.3311-1.095,.417-.416,.729-.911,.938-1.486,.313-.522,.47-1.148,.47-1.879,0-.729-.078-1.381-.234-1.955-.209-1.147-.744-2.139-1.605-2.974-.861-.834-1.813-1.382-2.856-1.642-.47-.158-.914-.236-1.33-.236-1.462,0-2.7141,.261-3.756,.783-.679,.313-1.174,.664-1.488,1.056-.311,.391-.482,.757-.508,1.095-.027,.34,.039,.614,.197,.822,.1559,.208,.363,.365,.625,.469,.1039,.053,.1689,.078,.1949,.078s.091,.027,.196,.078c.677,.262,1.239,.719,1.683,1.37,.442,.653,.665,1.37,.665,2.152,0,.992-.352,1.839-1.057,2.543-.704,.704-1.552,1.056-2.543,1.056-1.044,0-1.93-.352-2.66-1.056-.731-.704-1.0959-1.551-1.0959-2.543,0-.886,.118-1.813,.352-2.778,.235-.965,.587-1.838,1.057-2.621,.99-1.46,2.177-2.516,3.56-3.168,1.381-.654,2.907-.98,4.578-.98,1.252,0,2.489,.236,3.717,.706,1.225,.468,2.319,1.134,3.285,1.995,.965,.86,1.774,1.89,2.427,3.09,.651,1.2,.978,2.582,.978,4.148v23.004c0,.938,.011,1.553,.039,1.838,.025,.287,.04,.483,.04,.587,0,.679,.208,1.227,.624,1.643,.418,.419,.913,.627,1.488,.627,.677,0,1.224-.196,1.643-.587,.416-.392,.651-.9,.703-1.526h1.644Zm-12.285-1.957c.418-.729,.666-1.512,.744-2.348,.078-.832,.117-1.616,.117-2.347v-14.476c-.209,.21-.43,.406-.666,.588-.234,.184-.482,.405-.742,.665-1.515,1.095-2.805,2.101-3.875,3.013-1.069,.913-1.969,1.852-2.699,2.816-.73,.966-1.304,1.995-1.721,3.092-.418,1.094-.679,2.347-.783,3.755v1.173c.053,1.984,.587,3.535,1.605,4.655,1.017,1.123,2.465,1.683,4.342,1.683,.835,0,1.591-.207,2.27-.625,.677-.47,1.146-1.018,1.408-1.644"/><path d="M148.2749,50.0001c0,1.826-.574,3.314-1.721,4.461-.783,.781-1.697,1.408-2.739,1.877-1.044,.47-2.165,.705-3.364,.705-1.775,0-3.34-.497-4.695-1.488-1.358-.989-2.347-2.295-2.974-3.911-.156-.418-.274-.848-.352-1.291-.078-.443-.117-.952-.117-1.527,0-.156-.013-.402-.038-.744-.028-.337-.04-.742-.04-1.211,0-.47-.012-.913-.039-1.331-.027-.416-.039-.782-.039-1.095V20.4231h-5.399v-2.111h5.399V4.6171c0-.783-.118-1.341-.352-1.682-.236-.338-.458-.56-.666-.664-.262-.104-.6-.104-1.017,0V.3921h7.433V18.3121h6.574v2.111h-6.574v4.382c0,1.566-.013,3.377-.039,5.438-.026,2.062-.039,4.2-.039,6.416v10.681c0,1.252,.027,2.035,.078,2.347,.365,1.879,.9399,3.118,1.723,3.717,.781,.6,1.694,.9,2.738,.9,1.2,0,2.2419-.404,3.129-1.213,.886-.808,1.356-1.838,1.409-3.091h1.721Z"/><path d="M161.7329,52.1127c0,.731,.104,1.267,.313,1.605,.208,.34,.443,.535,.704,.587,.261,.156,.574,.156,.94,0v2.033h-9.39v-2.033c.3651,.156,.704,.156,1.017,0,.26-.052,.495-.247,.704-.587,.208-.338,.314-.874,.314-1.605V22.3007c0-.677-.106-1.186-.314-1.525-.209-.34-.444-.56-.704-.666-.313-.104-.652-.104-1.017,0v-1.954h7.433V52.1127Zm.704-42.566c0,.992-.339,1.814-1.017,2.466-.6769,.652-1.486,.977-2.425,.977s-1.721-.325-2.348-.977c-.626-.652-.939-1.474-.939-2.466,0-.938,.313-1.721,.939-2.348,.627-.624,1.409-.938,2.348-.938s1.748,.314,2.425,.938c.678,.627,1.017,1.41,1.017,2.348"/><path d="M186.927,17.5285c2.764,.105,4.969,1.005,6.612,2.698,1.644,1.697,2.465,4.45,2.465,8.256v23.631c0,1.043,.183,1.681,.547,1.917,.364,.234,.678,.352,.939,.352h.391c.051,0,.104-.026,.156-.079v2.035h-9.389v-2.035c.051,.053,.104,.079,.156,.079h.314c.26,0,.547-.104,.86-.314,.314-.207,.522-.728,.627-1.564V30.2825c0-.73-.014-1.381-.039-1.956-.027-.574-.038-1.095-.038-1.565v-.079c-.106-2.606-.431-4.459-.98-5.555-.547-1.095-1.42-1.695-2.621-1.799h-.313c-1.669,0-3.091,.625-4.265,1.878-1.174,1.251-1.891,3.364-2.151,6.338v24.569c0,1.043,.169,1.681,.509,1.917,.339,.234,.665,.352,.978,.352h.313c.052,0,.104-.026,.157-.079v2.035h-9.39v-2.035c.051,.053,.104,.079,.157,.079h.391c.26,0,.586-.118,.977-.352,.392-.236,.586-.874,.586-1.917V22.2235c0-.991-.194-1.617-.586-1.878-.391-.261-.717-.392-.977-.392h-.548v-1.799h7.433v3.052c.208-.313,.391-.6,.547-.861,.157-.261,.364-.496,.627-.705,.834-.782,1.8-1.356,2.895-1.721h.1559c0-.052,.027-.078,.079-.078,.364-.104,.729-.182,1.095-.236,.364-.05,.755-.077,1.174-.077h.156Z"/><line x1="214.1066" y1="18.378" x2="214.1066" y2="90.621" fill="none" stroke="#000" stroke-miterlimit="10" stroke-width="1.348"/></svg>