<?xml version="1.0" encoding="UTF-8"?><svg id="Layer_1" xmlns="http://www.w3.org/2000/svg" width="200" height="200" viewBox="0 0 200 200"><g><circle cx="101.6256" cy="101.8814" r="95.4547" fill="#383838"/><circle cx="98.3744" cy="98.1186" r="95.4547" fill="#fff"/></g><g id="greenhouse-cafe"><path d="M126.9531,66.5855c3.913-2.7247,6.5209-6.6244,7.6797-10.8921-4.4049-.3938-8.9671,.6994-12.8801,3.4242-3.913,2.7251-6.5208,6.6248-7.6797,10.8924,4.4049,.3938,8.9671-.6998,12.8801-3.4245Zm-53.872,0c-3.9129-2.7247-6.5208-6.6244-7.6793-10.8921,4.4046-.3938,8.9668,.6994,12.8797,3.4242,3.9129,2.7251,6.5208,6.6248,7.6797,10.8924-4.4049,.3938-8.9672-.6998-12.8801-3.4245Zm53.069,9.0374c-7.14,.4153-13.5333,3.3561-18.3618,7.9043,5.323,3.9577,12.014,6.1378,19.154,5.7225,7.1404-.4149,13.5337-3.3557,18.3622-7.904-5.3233-3.9581-12.0144-6.1382-19.1544-5.7229Zm-54.6572,0c7.14,.4153,13.5333,3.3561,18.3618,7.9043-5.323,3.9577-12.014,6.1378-19.154,5.7225-7.1404-.4149-13.5337-3.3557-18.3622-7.904,5.323-3.9581,12.014-6.1382,19.1544-5.7229Z" fill="none" stroke="#606b35" stroke-linecap="round" stroke-linejoin="round" stroke-width="6.65"/><path d="M35.9595,130.3427c-1.0865-.9911-2.7828-1.563-4.0788-1.563-2.3825,0-4.0405,1.9253-4.0405,4.2505,0,2.1729,1.4484,4.2315,4.2311,4.2315,1.1244,0,2.3825-.3049,3.1637-.8388v-2.0966h-3.7546v-2.2492h6.3087v5.5849c-1.62,1.2008-3.8882,1.9439-5.8325,1.9439-3.9832,0-6.9566-2.9351-6.9566-6.5947,0-3.6406,3.0114-6.595,6.8616-6.595,1.9629,0,4.1168,.7815,5.9085,2.2302l-1.8106,1.6963Z" fill="#e0a357"/><path d="M44.661,129.1039v3.259h4.4601c.9528,0,1.7343-.6862,1.7343-1.639,0-.4192-.1523-.8005-.4382-1.0864-.4382-.4766-.9911-.5336-1.4867-.5336h-4.2695Zm-2.7258,10.14v-12.4462h6.9c1.7726,0,2.9354,.5146,3.7356,1.353,.6482,.6862,1.0295,1.582,1.0295,2.5732,0,1.601-.9911,2.8398-2.5162,3.507l2.9164,5.013h-3.1261l-2.5155-4.5748h-3.6979v4.5748h-2.7258Z" fill="#e0a357"/><polygon points="64.6824 133.9259 60.089 133.9259 60.089 136.8997 68.1707 136.8997 68.1707 139.2438 57.3636 139.2438 57.3636 126.7977 67.7321 126.7977 67.7321 129.1612 60.089 129.1612 60.089 131.5817 64.6824 131.5817 64.6824 133.9259" fill="#e0a357"/><polygon points="78.9017 133.9259 74.3083 133.9259 74.3083 136.8997 82.3897 136.8997 82.3897 139.2438 71.5829 139.2438 71.5829 126.7977 81.9514 126.7977 81.9514 129.1612 74.3083 129.1612 74.3083 131.5817 78.9017 131.5817 78.9017 133.9259" fill="#e0a357"/><polygon points="97.2571 126.7975 97.2571 139.2437 94.894 139.2437 88.5656 131.5436 88.5465 131.5436 88.5465 139.2437 85.8018 139.2437 85.8018 126.7975 88.1463 126.7975 94.4934 134.5166 94.5124 134.5166 94.5124 126.7975 97.2571 126.7975" fill="#e0a357"/><polygon points="101.6738 139.2439 101.6738 126.7977 104.4186 126.7977 104.4186 131.4101 110.2891 131.4101 110.2891 126.7977 113.0336 126.7977 113.0336 139.2439 110.2891 139.2439 110.2891 133.7163 104.4186 133.7163 104.4186 139.2439 101.6738 139.2439" fill="#e0a357"/><path d="M123.5763,137.2808c2.3825,0,4.2501-1.9446,4.2501-4.2888,0-2.3062-1.8676-4.2125-4.2501-4.2125-2.3442,0-4.1738,1.9063-4.1738,4.2125,0,2.3442,1.8296,4.2888,4.1738,4.2888m0-10.8645c3.9455,0,7.1092,2.9544,7.1092,6.5757,0,3.6976-3.1637,6.633-7.1092,6.633s-7.0329-2.9354-7.0329-6.633c0-3.6213,3.0874-6.5757,7.0329-6.5757" fill="#e0a357"/><path d="M145.3627,126.7975v7.9671c0,3.1071-2.4019,4.8604-5.6988,4.8604-3.2024,0-5.6612-1.7533-5.6612-4.8604v-7.9671h2.7448v7.9671c0,1.639,1.3154,2.5162,2.9164,2.5162,1.696,0,2.9541-.8772,2.9541-2.5162v-7.9671h2.7448Z" fill="#e0a357"/><path d="M158.4173,129.9994c-.7432-.5525-2.3062-1.3341-4.3644-1.3341-1.2391,0-2.3445,.4576-2.3445,1.525,0,1.1051,1.639,1.1814,3.259,1.3147,2.2682,.1526,5.8135,.4196,5.8135,3.8502,0,3.0687-2.5542,4.2695-5.6035,4.2695-3.2214,0-5.3943-1.2771-6.8426-2.4585l1.5437-1.8683c1.0485,.8388,2.8211,2.0969,5.3369,2.0969,1.582,0,2.8397-.6102,2.8397-1.7727,0-1.2007-1.2771-1.4677-3.1447-1.62-2.7254-.1716-5.9278-.4766-5.9278-3.6406,0-3.0117,2.8021-3.9455,5.1463-3.9455,2.5921,0,4.784,.9532,5.8511,1.6773l-1.5627,1.9059Z" fill="#e0a357"/><polygon points="171.512 133.9259 166.9186 133.9259 166.9186 136.8997 175 136.8997 175 139.2438 164.1932 139.2438 164.1932 126.7977 174.5618 126.7977 174.5618 129.1612 166.9186 129.1612 166.9186 131.5817 171.512 131.5817 171.512 133.9259" fill="#e0a357"/><path d="M85.5196,156.1342c-1.4294,1.3341-3.6026,2.5538-6.3281,2.5538-4.1358,0-6.8616-2.9541-6.8616-6.6136,0-3.5833,2.7448-6.5947,6.7663-6.5947,2.2872,0,4.5364,.8958,6.0231,2.1725l-1.7153,1.792c-1.1438-.9915-2.7448-1.6014-4.0788-1.6014-2.5162,0-4.1362,1.9253-4.1362,4.2508,0,2.3442,1.6583,4.2501,4.2315,4.2501,1.696,0,3.2783-.8958,4.3644-1.9823l1.7347,1.7726Z" fill="#e0a357"/><path d="M92.0578,153.5229h3.8882l-1.887-4.4028h-.1143l-1.887,4.4028Zm.8385-7.6621h2.3445l5.7751,12.4462h-2.9924l-1.1438-2.6301h-5.7562l-1.1244,2.6301h-2.8781l5.7752-12.4462Z" fill="#e0a357"/><polygon points="103.7761 158.3069 103.7761 145.8608 114.0494 145.8608 114.0494 148.2243 106.5019 148.2243 106.5019 150.7401 111.095 150.7401 111.095 153.0846 106.5019 153.0846 106.5019 158.3069 103.7761 158.3069" fill="#e0a357"/><path d="M122.3143,141.8391h2.7254l-2.3635,2.6305h-2.2682l1.9063-2.6305Zm1.8866,11.1501h-4.5934v2.9734h8.0814v2.3442h-10.8068v-12.4462h10.3686v2.3639h-7.6431v2.4205h4.5934v2.3442Z" fill="#e0a357"/><path d="M99.9443,84.3741c-4.2684,5.094-9.8132,9.0822-16.142,11.4729v16.8178h11.5905c0-4.7697,1.7103-9.1377,4.5515-12.5286,2.8412,3.3909,4.5515,7.7589,4.5515,12.5286h11.5905v-16.8178c-6.3291-2.3908-11.8735-6.379-16.1419-11.4729m.0516-.0133h0c4.8123-5.8812,7.6628-13.4226,7.5675-21.6158-.0957-8.1928-3.121-15.6654-8.0692-21.433-4.8123,5.8812-7.6628,13.4222-7.5675,21.6154,.0706,6.0436,1.735,11.6951,4.5898,16.5594" fill="none" stroke="#606b35" stroke-linecap="round" stroke-linejoin="round" stroke-width="6.65"/></g></svg>