<?xml version="1.0" encoding="UTF-8"?><svg id="Layer_1" xmlns="http://www.w3.org/2000/svg" width="200" height="200" viewBox="0 0 200 200"><g><circle cx="101.6256" cy="101.8814" r="95.4547" fill="#383838"/><circle cx="98.3744" cy="98.1186" r="95.4547" fill="#fff"/></g><g><polygon points="106.9352 118.6963 103.6582 126.709 103.1669 126.709 99.9045 118.6963 99.9045 126.709 98.706 126.709 98.706 117.0791 100.4244 117.0791 103.4125 124.4134 106.4153 117.0791 108.1336 117.0791 108.1336 126.709 106.9352 126.709 106.9352 118.6963" fill="#5d1b24"/><path d="M119.4269,124.5725h-4.8802l-.8516,2.1365h-1.3282l3.8695-9.6294h1.4873l3.8836,9.6294h-1.3283l-.8522-2.1365Zm-4.5334-1.0686h4.1725l-2.0792-5.3569-2.0933,5.3569Z" fill="#5d1b24"/><path d="M128.9514,122.8833h-1.9201v3.8256h-1.1984v-9.63h3.8695c1.761,0,3.0174,1.1265,3.0174,2.9021,0,1.7324-1.1838,2.6852-2.498,2.8004l2.5992,3.9275h-1.4148l-2.4547-3.8256Zm.6065-4.7357h-2.5267v3.6818h2.5267c1.1405,0,1.9201-.765,1.9201-1.8482s-.7796-1.8336-1.9201-1.8336" fill="#5d1b24"/><polygon points="151.889 122.3774 150.9217 123.4746 150.9217 126.709 149.7239 126.709 149.7239 117.079 150.9217 117.079 150.9217 122.0592 155.1807 117.079 156.6827 117.079 152.6687 121.6556 157.0289 126.709 155.5416 126.709 151.889 122.3774" fill="#5d1b24"/><polygon points="161.3111 117.0788 167.6201 117.0788 167.6201 118.1474 162.5095 118.1474 162.5095 121.2513 167.5195 121.2513 167.5195 122.3193 162.5095 122.3193 162.5095 125.6402 167.6201 125.6402 167.6201 126.7082 161.3111 126.7082 161.3111 117.0788" fill="#5d1b24"/><polygon points="174.8775 118.1472 171.8308 118.1472 171.8308 117.0786 179.1365 117.0786 179.1365 118.1472 176.0759 118.1472 176.0759 126.7086 174.8775 126.7086 174.8775 118.1472" fill="#5d1b24"/><path d="M39.3218,73.6442c-.2554-.0634-.4773-.0634-.6681,0-.1268,.064-.2548,.1987-.3816,.4054-.1274,.2073-.1908,.5486-.1908,1.0259v28.9521c0,.4444,.0634,.7711,.1908,.9771,.1268,.2073,.2548,.3261,.3816,.3578,.1908,.0951,.4127,.0951,.6681,0v1.2405h-5.7714v-1.2405c.2542,.0951,.445,.0951,.5724,0,.1585-.0317,.3176-.1506,.4773-.3578,.1585-.206,.2377-.5328,.2377-.9771v-26.1865c-.8266,3.3081-1.5739,6.2804-2.2414,8.9192-.2859,1.1137-.5571,2.2103-.8107,3.2911-.2548,1.0826-.4937,2.0512-.7156,2.9101-.2225,.8583-.3974,1.5587-.5242,2.0987-.128,.5407-.1914,.8278-.1914,.8589h-2.003c-.1908-.7321-.4139-1.5666-.6675-2.5047-.2548-.9375-.5096-1.9074-.7632-2.9095-.2548-1.0021-.5096-1.9951-.7632-2.9808-.2548-.9857-.4938-1.9549-.7156-2.9095-.5724-2.2249-1.1448-4.484-1.7172-6.7735v26.1377c0,.4462,.0555,.7717,.167,.9778,.1109,.2079,.2457,.3267,.4054,.3578,.1908,.0957,.398,.0957,.6199,0v1.2886h-4.0536v-1.2886c.2542,.0957,.4444,.0957,.5718,0,.1585-.0311,.3097-.1499,.4535-.3578,.1432-.206,.2146-.5315,.2146-.9778v-28.9033c0-.4773-.0713-.8186-.2146-1.0259-.1439-.2067-.295-.3414-.4535-.4054-.1274-.0634-.3176-.0634-.5718,0v-1.1442h4.6736l4.7699,18.0762,4.5309-18.0762h4.484v1.1442Z"/><path d="M51.0551,82.9452c.7632,0,1.5264,.128,2.2895,.3816,.7632,.2542,1.4618,.6522,2.0981,1.1923,.6364,.5413,1.1527,1.2399,1.5507,2.0987,.3968,.8583,.5955,1.8763,.5955,3.0527v10.8266c0,.9229-.2066,1.7812-.6199,2.576-.4133,.7955-.9302,1.4782-1.5495,2.0512-.6205,.5712-1.3118,1.0332-2.075,1.3831-.7632,.3493-1.5264,.5242-2.2895,.5242s-1.5349-.1433-2.3133-.4291c-.7796-.2865-1.4715-.7156-2.0744-1.288-.6047-.5718-1.1137-1.2636-1.5264-2.0744-.4139-.8107-.6205-1.7245-.6205-2.7431v-10.7315c0-1.2082,.1981-2.2414,.5968-3.1009,.3968-.8577,.9058-1.5654,1.5251-2.1219,.6211-.5559,1.3197-.9619,2.0994-1.2161,.7784-.2536,1.5501-.3816,2.3133-.3816m3.1478,7.7744c0-1.2075-.0713-2.2335-.2146-3.0765-.1426-.8424-.3499-1.5178-.6199-2.0274-.2713-.5084-.6047-.8662-1.0015-1.0728-.398-.2067-.851-.3103-1.3593-.3103-1.018,0-1.797,.47-2.3377,1.4075-.5407,.9381-.8107,2.6315-.8107,5.0795v8.4901c0,2.4486,.27,4.181,.8107,5.199,.5407,1.018,1.3197,1.5251,2.3377,1.5251,1.0168,0,1.8037-.5072,2.3609-1.5251,.5559-1.018,.8345-2.7504,.8345-5.199v-8.4901Z"/><path d="M75.5707,86.7133c0,.064,.0158,.1908,.0475,.381,.0317,.1908,.0317,.3511,0,.4773-.0317,.6681-.2621,1.2161-.6919,1.6458-.4285,.4291-.9461,.6431-1.5501,.6431-.6364,0-1.1679-.2213-1.5977-.6669-.4297-.4456-.6437-.9851-.6437-1.6221,0-.7943,.3023-1.399,.9064-1.8129,.0634-.0311,.1024-.0542,.1189-.0713,.0152-.0152,.0402-.0396,.0713-.0713,.2225-.1591,.3657-.3889,.4297-.6913,.0634-.3023-.1274-.5651-.5724-.787-.2865-.1585-.5724-.2389-.8589-.2389-.954-.0634-1.7964,.2225-2.5279,.8589-.7315,.6364-1.2246,1.7489-1.4782,3.338v15.9317c0,.445,.0634,.7711,.1902,.9771,.1268,.2073,.2548,.3261,.3822,.3578,.1908,.0951,.3968,.0951,.6199,0v1.2405h-5.7714v-1.2405c.2542,.0951,.445,.0951,.5724,0,.1585-.0317,.3176-.1506,.4773-.3578,.1585-.206,.2383-.5321,.2383-.9771v-18.1731c0-.4444-.0798-.7705-.2383-.9778-.1597-.2066-.3188-.3414-.4773-.4054-.1274-.0634-.3182-.0634-.5724,0v-1.1923h4.5791v1.9549c.2219-.3493,.445-.6754,.6675-.9778,.2219-.3011,.4846-.5553,.7869-.7626,.3023-.2066,.6516-.3737,1.0497-.5017,.3968-.1262,.8979-.1902,1.502-.1902,.9223,0,1.7805,.334,2.5754,1.0021,.7949,.6675,1.3831,1.6385,1.7653,2.9095"/><path d="M90.881,81.0847c.4773,0,.9381,.1116,1.3831,.334,.1585,.0646,.2706,.1359,.3346,.2146,.0628,.0799,.1262,.1993,.1902,.3584l.0957,.4761c0,.3182-.1122,.5888-.334,.8113-.2231,.2225-.4773,.3334-.7632,.3334h-.0475c-.3182,0-.5888-.103-.8107-.3097-.2231-.2073-.3334-.4535-.3334-.7394-.0329-.2548-.128-.3816-.2865-.3816-.1914,0-.4224,.0884-.6919,.2621-.2706,.1756-.4846,.3578-.6443,.5486-.1268,.1274-.2542,.3657-.3816,.715,.7943,.4462,1.4624,1.0978,2.0043,1.9555,.5395,.8589,.8101,1.9567,.8101,3.2917v6.6778c0,.8266-.1749,1.5904-.5248,2.2889-.3499,.7004-.8028,1.3197-1.3587,1.8598-.5571,.5413-1.1929,.9625-1.9085,1.2642-.7156,.3023-1.4063,.4535-2.0744,.4535-.8583,0-1.7336-.2067-2.6236-.6205-.4767,.6681-.5566,1.185-.2384,1.5507,.317,.3651,1.2557,.612,2.8144,.7382,1.0491,.0646,1.9317,.2792,2.6468,.6443,.7156,.3664,1.2801,.8107,1.6934,1.3356,.4133,.5242,.723,1.0972,.9302,1.7172,.2067,.6199,.3493,1.2082,.4291,1.7647,.0792,.5559,.1109,1.0503,.0951,1.4794-.0158,.4285-.0238,.7382-.0238,.929-.0317,.3182-.1426,.74-.3334,1.2642-.1914,.5248-.5011,1.0411-.9302,1.5507-.4291,.5078-1.0101,.9454-1.7409,1.3112-.7321,.3651-1.6696,.5486-2.8138,.5486-1.2728,0-2.3298-.2548-3.1722-.7632-.843-.509-1.463-1.1289-1.8598-1.8604-.398-.7315-.6053-1.4861-.6205-2.2652-.0158-.779,.1195-1.4544,.4053-2.028,.4133-.5718,.787-.9223,1.1204-1.0491,.3346-.1274,.5492-.1902,.6443-.1902,.5724,0,1.0326,.1902,1.3831,.5724,.3493,.3816,.5248,.8266,.5248,1.3356,0,.5407-.1756,.9942-.5248,1.3593-.3505,.3651-.8107,.5486-1.3831,.5486-.6041,0-.8583,.1987-.7632,.5962,.0957,.3968,.3493,.8028,.7632,1.2161,.3176,.2542,.7705,.5486,1.3593,.882,.5882,.334,1.2319,.5011,1.9317,.5011h.2389c1.0802-.064,1.939-.3505,2.5754-.8583,.6358-.509,1.0802-1.1137,1.3356-1.8122,.2542-.7004,.3255-1.4002,.2146-2.0994-.1116-.6992-.3737-1.3039-.787-1.8116-.2554-.2548-.6047-.4779-1.0491-.6681-.4462-.1908-.9235-.3657-1.4313-.5242-.509-.1603-1.0015-.2944-1.4788-.4066-.4773-.1103-.89-.1817-1.2399-.2139-.4133-.0951-.8193-.1914-1.2161-.2865-.398-.0951-.7717-.2219-1.121-.3816-.3505-.1591-.6364-.3974-.8589-.715-.2225-.3182-.3335-.7632-.3335-1.3356,0-.8589,.1981-1.566,.5962-2.1225,.3968-.5559,.7705-.9454,1.1204-1.1685-.6364-.5407-1.1606-1.1844-1.5739-1.9317-.4133-.7467-.6199-1.6135-.6199-2.5992v-6.5821c0-1.0503,.1823-1.9634,.5486-2.7431,.3651-.779,.8266-1.4142,1.3831-1.9074,.5559-.4931,1.1844-.8589,1.8842-1.0972,.6992-.2383,1.399-.3578,2.0987-.3578,.6992,0,1.4313,.1274,2.1945,.3816,.2219-.7943,.6431-1.3667,1.263-1.7172,.6205-.3499,1.2484-.5248,1.8842-.5248m-5.3417,19.4123c.9217,0,1.6294-.4444,2.1219-1.3356,.4932-.8894,.74-2.4633,.74-4.7217v-4.4834c0-2.2249-.2469-3.7592-.74-4.6023-.4925-.843-1.2002-1.2642-2.1219-1.2642-.9229,0-1.63,.4212-2.1225,1.2642-.4937,.843-.7394,2.3773-.7394,4.6023v4.4834c0,2.2585,.2457,3.8324,.7394,4.7217,.4925,.8912,1.1996,1.3356,2.1225,1.3356"/><path d="M112.6302,104.5518c0,.2548-.0634,.5169-.1908,.7869-.1268,.2701-.3097,.5242-.548,.7632-.2389,.2383-.5407,.4529-.9064,.6431-.3657,.1914-.7863,.2865-1.2636,.2865-.7632,0-1.4471-.1749-2.0512-.5248-.6047-.3493-1.018-.8107-1.2399-1.3825-.1908-.3176-.334-.6833-.4298-1.0972-.4133,.8583-1.0411,1.5739-1.8836,2.1463-.8436,.5718-1.7732,.8583-2.79,.8583-1.2728,0-2.3852-.4602-3.3392-1.3825-.5413-.4773-.9857-1.0972-1.3356-1.8598-.3499-.7638-.5565-1.6379-.6199-2.6242-.0323-.0951-.0481-.2865-.0481-.5724v-.0475c.0317-.5407,.1274-1.1045,.2865-1.6934,.1591-.5882,.406-1.1752,.7394-1.7641,.334-.5888,.7315-1.1454,1.1929-1.6702,.4602-.5242,.9613-.9778,1.502-1.3593,.1268-.0634,.2298-.1347,.3103-.214,.0792-.0798,.1981-.167,.3572-.2627,.0634-.0317,.1109-.0555,.1433-.0707,.0311-.0165,.0792-.0402,.1426-.0731,.573-.3487,1.0734-.6669,1.5026-.9527,.4297-.2871,.8186-.5566,1.1692-.8119,.1908-.1262,.381-.2688,.5724-.4285,.1908-.1591,.3968-.3176,.6199-.4773,.2865-.1908,.5559-.4121,.8107-.6675,.2542-.2536,.445-.5553,.5724-.9058,.1908-.3182,.2865-.6998,.2865-1.1454,0-.4444-.0475-.8418-.1432-1.1917-.1274-.6992-.4529-1.3039-.9778-1.8129-.5248-.5084-1.1051-.8424-1.7409-1.0009-.2865-.0963-.5571-.1439-.8107-.1439-.8912,0-1.6544,.1591-2.2895,.4773-.4139,.1908-.7156,.4048-.907,.6437-.1896,.2383-.2938,.4614-.3097,.6675-.0165,.2073,.0238,.3743,.1201,.5011,.0951,.1268,.2213,.2225,.381,.2859,.0634,.0323,.103,.0475,.1189,.0475s.0555,.0165,.1195,.0475c.4127,.1597,.7553,.4383,1.0259,.8351,.2694,.3981,.4054,.8351,.4054,1.3118,0,.6047-.2146,1.121-.6443,1.5501-.4291,.4291-.9461,.6437-1.5501,.6437-.6364,0-1.1765-.2146-1.6215-.6437-.4456-.4291-.6681-.9454-.6681-1.5501,0-.5401,.0719-1.1052,.2146-1.6934,.1432-.5882,.3578-1.1204,.6443-1.5977,.6035-.89,1.327-1.5337,2.1701-1.9311,.8418-.3987,1.772-.5974,2.7906-.5974,.7632,0,1.5172,.1439,2.2658,.4304,.7461,.2853,1.4136,.6913,2.0024,1.2161,.5882,.5242,1.0814,1.1521,1.4788,1.8836,.3974,.7315,.5968,1.5739,.5968,2.5285v14.0225c0,.5718,.0067,.9467,.0238,1.1204,.0152,.1749,.0238,.2944,.0238,.3578,0,.4139,.1268,.748,.381,1.0015,.2548,.2554,.5565,.3822,.907,.3822,.4127,0,.7461-.1195,1.0009-.3578,.2542-.2389,.3974-.5486,.4291-.9302h1.0015Zm-7.4879-1.1929c.2542-.4444,.406-.9217,.4535-1.4313,.0475-.5072,.0707-.9851,.0707-1.4307v-8.8241c-.1268,.128-.2621,.2475-.4053,.3584-.1426,.1122-.2938,.2469-.4523,.4054-.9235,.6675-1.7098,1.2807-2.3621,1.8366-.651,.5565-1.2002,1.1289-1.6452,1.7166-.445,.5888-.7949,1.2161-1.0491,1.8848-.2548,.6669-.4139,1.4307-.4773,2.2889v.715c.0323,1.2094,.3578,2.1548,.9784,2.8375,.6199,.6846,1.5026,1.0259,2.6467,1.0259,.509,0,.9698-.1262,1.3837-.381,.4127-.2865,.6986-.6205,.8583-1.0021"/><path d="M124.6496,82.9451c1.6849,.064,3.0289,.6126,4.0305,1.6446,1.0015,1.0344,1.5026,2.7126,1.5026,5.0326v14.4047c0,.6358,.1109,1.0247,.3334,1.1686,.2219,.1426,.4133,.2146,.5724,.2146h.2384c.0311,0,.0634-.0158,.0951-.0482v1.2405h-5.7232v-1.2405c.0311,.0323,.0634,.0482,.0951,.0482h.1914c.1585,0,.3334-.0634,.5242-.1914,.1914-.1262,.3182-.4438,.3822-.9534v-13.5458c0-.445-.0085-.8418-.0238-1.1923-.0171-.3499-.0238-.6675-.0238-.954v-.0482c-.064-1.5885-.2621-2.7181-.5968-3.3862-.334-.6675-.8668-1.0332-1.5977-1.0966h-.1908c-1.018,0-1.8842,.381-2.5998,1.1448-.7156,.7626-1.1527,2.0506-1.3112,3.8634v14.9765c0,.6358,.103,1.0247,.3097,1.1686,.2067,.1426,.406,.2146,.5968,.2146h.1902c.0317,0,.0634-.0158,.0957-.0482v1.2405h-5.7238v-1.2405c.0317,.0323,.0634,.0482,.0957,.0482h.2389c.1579,0,.3572-.0719,.5956-.2146,.2383-.1439,.3572-.5328,.3572-1.1686v-18.22c0-.6041-.1189-.9857-.3572-1.1448-.2383-.1591-.4377-.2389-.5956-.2389h-.3346v-1.0966h4.5315v1.8604c.1268-.1908,.2383-.3657,.3334-.5249,.0957-.1591,.2219-.3023,.3822-.4297,.5078-.4767,1.0966-.8266,1.7647-1.0491h.0951c0-.0317,.0158-.0475,.0475-.0475,.2219-.0634,.445-.1109,.6681-.1439,.2219-.0305,.4602-.0469,.7156-.0469h.0951Z"/><line x1="141.2174" y1="83.4629" x2="141.2174" y2="127.5" fill="none" stroke="#000" stroke-miterlimit="10" stroke-width="1.348"/></g></svg>