<?xml version="1.0" encoding="UTF-8"?><svg id="Layer_1" xmlns="http://www.w3.org/2000/svg" width="259.6475" height="90.2277" viewBox="0 0 259.6475 90.2277"><polygon points="141.201 75.7851 135.825 88.9301 135.019 88.9301 129.667 75.7851 129.667 88.9301 127.701 88.9301 127.701 73.1321 130.52 73.1321 135.422 85.1641 140.348 73.1321 143.167 73.1321 143.167 88.9301 141.201 88.9301 141.201 75.7851" fill="#5d1b24"/><path d="M161.6936,85.4251h-8.006l-1.397,3.505h-2.179l6.348-15.797h2.44l6.371,15.797h-2.179l-1.398-3.505Zm-7.437-1.753h6.845l-3.411-8.788-3.434,8.788Z" fill="#5d1b24"/><path d="M177.3186,82.654h-3.15v6.276h-1.966v-15.798h6.348c2.889,0,4.95,1.848,4.95,4.761,0,2.842-1.942,4.405-4.098,4.594l4.264,6.443h-2.321l-4.027-6.276Zm.995-7.769h-4.145v6.04h4.145c1.871,0,3.15-1.255,3.15-3.032s-1.279-3.008-3.15-3.008" fill="#5d1b24"/><polygon points="214.9479 81.824 213.3609 83.624 213.3609 88.93 211.3959 88.93 211.3959 73.132 213.3609 73.132 213.3609 81.302 220.3479 73.132 222.8119 73.132 216.2269 80.64 223.3799 88.93 220.9399 88.93 214.9479 81.824" fill="#5d1b24"/><polygon points="230.4048 73.1317 240.7548 73.1317 240.7548 74.8847 232.3708 74.8847 232.3708 79.9767 240.5898 79.9767 240.5898 81.7287 232.3708 81.7287 232.3708 87.1767 240.7548 87.1767 240.7548 88.9287 230.4048 88.9287 230.4048 73.1317" fill="#5d1b24"/><polygon points="252.6605 74.8844 247.6625 74.8844 247.6625 73.1314 259.6475 73.1314 259.6475 74.8844 254.6265 74.8844 254.6265 88.9294 252.6605 88.9294 252.6605 74.8844" fill="#5d1b24"/><path d="M30.281,1.877c-.419-.104-.783-.104-1.096,0-.208,.105-.418,.326-.626,.665-.209,.34-.313,.9-.313,1.683V51.721c0,.729,.104,1.265,.313,1.603,.208,.34,.418,.535,.626,.587,.313,.156,.677,.156,1.096,0v2.035h-9.468v-2.035c.417,.156,.73,.156,.939,0,.26-.052,.521-.247,.783-.587,.26-.338,.39-.874,.39-1.603V8.762c-1.356,5.427-2.582,10.303-3.677,14.632-.469,1.827-.914,3.626-1.33,5.399-.418,1.776-.81,3.365-1.174,4.774-.365,1.408-.652,2.557-.86,3.443-.21,.887-.314,1.358-.314,1.409h-3.286c-.313-1.201-.679-2.57-1.095-4.109-.418-1.538-.836-3.129-1.252-4.773-.418-1.644-.836-3.273-1.252-4.89-.418-1.617-.81-3.207-1.174-4.773-.939-3.65-1.878-7.356-2.817-11.112V51.641c0,.732,.091,1.266,.274,1.604,.182,.341,.403,.536,.665,.587,.313,.157,.653,.157,1.017,0v2.114H0v-2.114c.417,.157,.729,.157,.938,0,.26-.051,.508-.246,.744-.587,.235-.338,.352-.872,.352-1.604V4.225c0-.783-.117-1.343-.352-1.683-.236-.339-.484-.56-.744-.665-.209-.104-.521-.104-.938,0V0H7.667l7.825,29.654L22.925,0h7.356V1.877Z"/><path d="M49.5294,17.1354c1.252,0,2.504,.21,3.756,.626,1.252,.417,2.398,1.07,3.442,1.956,1.044,.888,1.891,2.034,2.544,3.443,.651,1.408,.977,3.078,.977,5.008v17.761c0,1.514-.339,2.922-1.017,4.226-.678,1.305-1.526,2.425-2.542,3.365-1.018,.937-2.152,1.695-3.404,2.269-1.252,.573-2.504,.86-3.756,.86s-2.518-.235-3.795-.704c-1.279-.47-2.414-1.174-3.403-2.113-.992-.938-1.827-2.073-2.504-3.403-.679-1.33-1.018-2.829-1.018-4.5V28.3244c0-1.982,.325-3.677,.979-5.087,.651-1.407,1.486-2.568,2.502-3.481,1.019-.912,2.165-1.578,3.444-1.995,1.277-.416,2.543-.626,3.795-.626m5.164,12.754c0-1.981-.117-3.664-.352-5.047-.234-1.382-.574-2.49-1.017-3.326-.445-.834-.992-1.421-1.643-1.76-.653-.339-1.396-.509-2.23-.509-1.67,0-2.948,.771-3.835,2.309-.887,1.539-1.33,4.317-1.33,8.333v13.928c0,4.017,.443,6.859,1.33,8.529,.887,1.67,2.165,2.502,3.835,2.502,1.668,0,2.959-.832,3.873-2.502,.912-1.67,1.369-4.512,1.369-8.529v-13.928Z"/><path d="M89.7474,23.3169c0,.105,.026,.313,.078,.625,.052,.313,.052,.576,0,.783-.052,1.096-.43,1.995-1.135,2.7-.703,.704-1.552,1.055-2.543,1.055-1.044,0-1.916-.363-2.621-1.094-.705-.731-1.056-1.616-1.056-2.661,0-1.303,.496-2.295,1.487-2.974,.104-.051,.168-.089,.195-.117,.025-.025,.066-.065,.117-.117,.365-.261,.6-.638,.705-1.134,.104-.496-.209-.927-.939-1.291-.47-.26-.939-.392-1.409-.392-1.565-.104-2.947,.365-4.147,1.409-1.2,1.044-2.009,2.869-2.425,5.476v26.136c0,.73,.104,1.265,.312,1.603,.208,.34,.418,.535,.627,.587,.313,.156,.651,.156,1.017,0v2.035h-9.468v-2.035c.417,.156,.73,.156,.939,0,.26-.052,.521-.247,.783-.587,.26-.338,.391-.873,.391-1.603V21.9079c0-.729-.131-1.264-.391-1.604-.262-.339-.523-.56-.783-.665-.209-.104-.522-.104-.939,0v-1.956h7.512v3.207c.364-.573,.73-1.108,1.095-1.604,.364-.494,.795-.911,1.291-1.251,.496-.339,1.069-.613,1.722-.823,.651-.207,1.473-.312,2.464-.312,1.513,0,2.921,.548,4.225,1.644,1.304,1.095,2.269,2.688,2.896,4.773"/><path d="M114.864,14.0832c.783,0,1.539,.183,2.269,.548,.26,.106,.444,.223,.549,.352,.103,.131,.207,.327,.312,.588l.157,.781c0,.522-.184,.966-.548,1.331-.366,.365-.783,.547-1.252,.547h-.078c-.522,0-.966-.169-1.33-.508-.366-.34-.547-.744-.547-1.213-.054-.418-.21-.626-.47-.626-.314,0-.693,.145-1.135,.43-.444,.288-.795,.587-1.057,.9-.208,.209-.417,.6-.626,1.173,1.303,.732,2.399,1.801,3.288,3.208,.885,1.409,1.329,3.21,1.329,5.4v10.955c0,1.356-.287,2.609-.861,3.755-.574,1.149-1.317,2.165-2.229,3.051-.914,.888-1.957,1.579-3.131,2.074-1.174,.496-2.307,.744-3.403,.744-1.408,0-2.844-.339-4.304-1.018-.782,1.096-.913,1.944-.391,2.544,.52,.599,2.06,1.004,4.617,1.211,1.721,.106,3.169,.458,4.342,1.057,1.174,.601,2.1,1.33,2.778,2.191,.678,.86,1.186,1.8,1.526,2.817,.339,1.017,.573,1.982,.704,2.895,.13,.912,.182,1.723,.156,2.427-.026,.703-.039,1.211-.039,1.524-.052,.522-.234,1.214-.547,2.074-.314,.861-.822,1.708-1.526,2.544-.704,.833-1.657,1.551-2.856,2.151-1.201,.599-2.739,.9-4.616,.9-2.088,0-3.822-.418-5.204-1.252-1.383-.835-2.4-1.852-3.051-3.052-.653-1.2-.993-2.438-1.018-3.716-.026-1.278,.196-2.386,.665-3.327,.678-.938,1.291-1.513,1.838-1.721,.549-.209,.901-.312,1.057-.312,.939,0,1.694,.312,2.269,.939,.573,.626,.861,1.356,.861,2.191,0,.887-.288,1.631-.861,2.23-.575,.599-1.33,.9-2.269,.9-.991,0-1.408,.326-1.252,.978,.157,.651,.573,1.317,1.252,1.995,.521,.417,1.264,.9,2.23,1.447,.965,.548,2.021,.822,3.169,.822h.392c1.772-.105,3.181-.575,4.225-1.408,1.043-.835,1.772-1.827,2.191-2.973,.417-1.149,.534-2.297,.352-3.444-.183-1.147-.613-2.139-1.291-2.972-.419-.418-.992-.784-1.721-1.096-.732-.313-1.515-.6-2.348-.86-.835-.263-1.643-.483-2.426-.667-.783-.181-1.46-.298-2.034-.351-.678-.156-1.344-.314-1.995-.47-.653-.156-1.266-.364-1.839-.626-.575-.261-1.044-.652-1.409-1.173-.365-.522-.547-1.252-.547-2.191,0-1.409,.325-2.569,.978-3.482,.651-.912,1.264-1.551,1.838-1.917-1.044-.887-1.904-1.943-2.582-3.169-.678-1.225-1.017-2.647-1.017-4.264v-10.798c0-1.723,.299-3.221,.9-4.5,.599-1.278,1.356-2.32,2.269-3.129,.912-.809,1.943-1.409,3.091-1.8,1.147-.391,2.295-.587,3.443-.587,1.147,0,2.348,.209,3.6,.626,.364-1.303,1.055-2.242,2.072-2.817,1.018-.574,2.048-.861,3.091-.861m-8.763,31.846c1.512,0,2.673-.729,3.481-2.191,.809-1.459,1.214-4.041,1.214-7.746v-7.355c0-3.65-.405-6.167-1.214-7.55-.808-1.383-1.969-2.074-3.481-2.074-1.514,0-2.674,.691-3.482,2.074-.81,1.383-1.213,3.9-1.213,7.55v7.355c0,3.705,.403,6.287,1.213,7.746,.808,1.462,1.968,2.191,3.482,2.191"/><path d="M150.5436,52.581c0,.418-.104,.848-.313,1.291-.208,.443-.508,.86-.899,1.252-.392,.391-.887,.743-1.487,1.055-.6,.314-1.29,.47-2.073,.47-1.252,0-2.374-.287-3.365-.861-.992-.573-1.67-1.33-2.034-2.268-.313-.521-.548-1.121-.705-1.8-.678,1.408-1.708,2.582-3.09,3.521-1.384,.938-2.909,1.408-4.577,1.408-2.088,0-3.913-.755-5.478-2.268-.888-.783-1.617-1.8-2.191-3.051-.574-1.253-.913-2.687-1.017-4.305-.053-.156-.079-.47-.079-.939v-.078c.052-.887,.209-1.812,.47-2.778,.261-.965,.666-1.928,1.213-2.894,.548-.966,1.2-1.879,1.957-2.74,.755-.86,1.577-1.604,2.464-2.23,.208-.104,.377-.221,.509-.351,.13-.131,.325-.274,.586-.431,.104-.052,.182-.091,.235-.116,.051-.027,.13-.066,.234-.12,.94-.572,1.761-1.094,2.465-1.563,.705-.471,1.343-.913,1.918-1.332,.313-.207,.625-.441,.939-.703,.313-.261,.651-.521,1.017-.783,.47-.313,.912-.676,1.33-1.095,.417-.416,.73-.911,.939-1.486,.313-.522,.47-1.148,.47-1.879,0-.729-.078-1.381-.235-1.955-.209-1.147-.743-2.139-1.604-2.974-.861-.834-1.813-1.382-2.856-1.642-.47-.158-.914-.236-1.33-.236-1.462,0-2.714,.261-3.756,.783-.679,.313-1.174,.664-1.488,1.056-.311,.391-.482,.757-.508,1.095-.027,.34,.039,.614,.197,.822,.156,.208,.363,.365,.625,.469,.104,.053,.169,.078,.195,.078s.091,.027,.196,.078c.677,.262,1.239,.719,1.683,1.37,.442,.653,.665,1.37,.665,2.152,0,.992-.352,1.839-1.057,2.543-.704,.704-1.552,1.056-2.543,1.056-1.044,0-1.93-.352-2.66-1.056-.731-.704-1.096-1.551-1.096-2.543,0-.886,.118-1.813,.352-2.778,.235-.965,.587-1.838,1.057-2.621,.99-1.46,2.177-2.516,3.56-3.168,1.381-.654,2.907-.98,4.578-.98,1.252,0,2.489,.236,3.717,.706,1.224,.468,2.319,1.134,3.285,1.995,.965,.86,1.774,1.89,2.426,3.09,.652,1.2,.979,2.582,.979,4.148v23.004c0,.938,.011,1.553,.039,1.838,.025,.287,.039,.483,.039,.587,0,.679,.208,1.227,.625,1.643,.418,.419,.913,.627,1.488,.627,.677,0,1.224-.196,1.642-.587,.417-.392,.652-.9,.704-1.526h1.643Zm-12.284-1.957c.417-.729,.666-1.512,.744-2.348,.078-.832,.116-1.616,.116-2.347v-14.476c-.208,.21-.43,.406-.665,.588-.234,.184-.482,.405-.742,.665-1.515,1.095-2.805,2.101-3.875,3.013-1.068,.913-1.969,1.852-2.699,2.816-.73,.966-1.304,1.995-1.721,3.092-.418,1.094-.679,2.347-.783,3.755v1.173c.053,1.984,.587,3.535,1.605,4.655,1.017,1.123,2.465,1.683,4.342,1.683,.835,0,1.591-.207,2.27-.625,.677-.47,1.146-1.018,1.408-1.644"/><path d="M170.2615,17.1352c2.764,.105,4.969,1.005,6.612,2.698,1.643,1.697,2.465,4.45,2.465,8.256v23.631c0,1.043,.182,1.681,.547,1.917,.364,.234,.678,.352,.939,.352h.391c.051,0,.104-.026,.156-.079v2.035h-9.389v-2.035c.051,.053,.104,.079,.156,.079h.314c.26,0,.547-.104,.86-.314,.314-.207,.522-.728,.627-1.564V29.8892c0-.73-.014-1.381-.039-1.956-.028-.574-.039-1.095-.039-1.565v-.079c-.105-2.606-.43-4.459-.979-5.555-.548-1.095-1.422-1.695-2.621-1.799h-.313c-1.67,0-3.091,.625-4.265,1.878-1.174,1.251-1.891,3.364-2.151,6.338v24.569c0,1.043,.169,1.681,.508,1.917,.339,.234,.666,.352,.979,.352h.312c.052,0,.104-.026,.157-.079v2.035h-9.39v-2.035c.052,.053,.104,.079,.157,.079h.392c.259,0,.586-.118,.977-.352,.391-.236,.586-.874,.586-1.917V21.8302c0-.991-.195-1.617-.586-1.878-.391-.261-.718-.392-.977-.392h-.549v-1.799h7.434v3.052c.208-.313,.391-.6,.547-.861,.157-.261,.364-.496,.627-.705,.833-.782,1.799-1.356,2.895-1.721h.156c0-.052,.026-.078,.078-.078,.364-.104,.73-.182,1.096-.236,.364-.05,.755-.077,1.174-.077h.156Z"/><line x1="197.441" y1="17.9847" x2="197.441" y2="90.2277" fill="none" stroke="#000" stroke-miterlimit="10" stroke-width="1.348"/></svg>