<?xml version="1.0" encoding="UTF-8"?><svg id="Layer_1" xmlns="http://www.w3.org/2000/svg" width="2.3725in" height="2.3725in" xmlns:xlink="http://www.w3.org/1999/xlink" viewBox="0 0 170.8184 170.8189"><defs><clipPath id="clippath"><circle cx="85.4092" cy="85.4093" r="85.4096" transform="translate(-12.659 155.9226) rotate(-80.717)" fill="none"/></clipPath></defs><circle cx="85.4092" cy="85.4093" r="85.4096" transform="translate(-12.659 155.9226) rotate(-80.717)" fill="#b3241b"/><g clip-path="url(#clippath)"><g><line x1="161.543" y1="34.0718" x2="32.0122" y2="163.6021" fill="none" stroke="#dc987e" stroke-miterlimit="10" stroke-width=".1"/><line x1="179.2266" y1="51.7549" x2="49.6953" y2="181.2857" fill="none" stroke="#dc987e" stroke-miterlimit="10" stroke-width=".1"/><line x1="176.6992" y1="49.229" x2="47.1695" y2="178.7593" fill="none" stroke="#dc987e" stroke-miterlimit="10" stroke-width=".1"/><line x1="191.8575" y1="64.3863" x2="62.3272" y2="193.9175" fill="none" stroke="#dc987e" stroke-miterlimit="10" stroke-width=".1"/><line x1="186.8047" y1="59.3335" x2="57.2744" y2="188.8638" fill="none" stroke="#dc987e" stroke-miterlimit="10" stroke-width=".1"/><line x1="196.9102" y1="69.4385" x2="67.3794" y2="198.9693" fill="none" stroke="#dc987e" stroke-miterlimit="10" stroke-width=".1"/><line x1="194.3838" y1="66.9131" x2="64.8535" y2="196.4439" fill="none" stroke="#dc987e" stroke-miterlimit="10" stroke-width=".1"/><line x1="201.9629" y1="74.4908" x2="72.4317" y2="204.022" fill="none" stroke="#dc987e" stroke-miterlimit="10" stroke-width=".1"/><line x1="199.4356" y1="71.9654" x2="69.9058" y2="201.4956" fill="none" stroke="#dc987e" stroke-miterlimit="10" stroke-width=".1"/><line x1="207.0157" y1="79.544" x2="77.4844" y2="209.0747" fill="none" stroke="#dc987e" stroke-miterlimit="10" stroke-width=".1"/><line x1="204.4883" y1="77.0176" x2="74.958" y2="206.5484" fill="none" stroke="#dc987e" stroke-miterlimit="10" stroke-width=".1"/><line x1="209.541" y1="82.0699" x2="80.0103" y2="211.6001" fill="none" stroke="#dc987e" stroke-miterlimit="10" stroke-width=".1"/><line x1="212.0684" y1="84.5962" x2="82.5366" y2="214.1265" fill="none" stroke="#dc987e" stroke-miterlimit="10" stroke-width=".1"/><line x1="217.1192" y1="89.649" x2="87.5899" y2="219.1792" fill="none" stroke="#dc987e" stroke-miterlimit="10" stroke-width=".1"/><line x1="214.5938" y1="87.1226" x2="85.0635" y2="216.6538" fill="none" stroke="#dc987e" stroke-miterlimit="10" stroke-width=".1"/><line x1="222.1719" y1="94.7017" x2="92.6416" y2="224.231" fill="none" stroke="#dc987e" stroke-miterlimit="10" stroke-width=".1"/><line x1="219.6465" y1="92.1744" x2="90.1153" y2="221.7056" fill="none" stroke="#dc987e" stroke-miterlimit="10" stroke-width=".1"/><line x1="224.6992" y1="97.2271" x2="95.168" y2="226.7583" fill="none" stroke="#dc987e" stroke-miterlimit="10" stroke-width=".1"/><line x1="153.9649" y1="26.4927" x2="24.4336" y2="156.024" fill="none" stroke="#dc987e" stroke-miterlimit="10" stroke-width=".1"/><line x1="169.1211" y1="41.6504" x2="39.5913" y2="171.1812" fill="none" stroke="#dc987e" stroke-miterlimit="10" stroke-width=".1"/><line x1="166.5957" y1="39.1236" x2="37.0645" y2="168.6548" fill="none" stroke="#dc987e" stroke-miterlimit="10" stroke-width=".1"/><line x1="184.2793" y1="56.8077" x2="54.7481" y2="186.3384" fill="none" stroke="#dc987e" stroke-miterlimit="10" stroke-width=".1"/><line x1="174.1739" y1="46.7027" x2="44.6436" y2="176.2329" fill="none" stroke="#dc987e" stroke-miterlimit="10" stroke-width=".1"/><line x1="189.3321" y1="61.8599" x2="59.8003" y2="191.3902" fill="none" stroke="#dc987e" stroke-miterlimit="10" stroke-width=".1"/><line x1="151.4375" y1="23.9663" x2="21.9073" y2="153.4976" fill="none" stroke="#dc987e" stroke-miterlimit="10" stroke-width=".1"/><line x1="159.0166" y1="31.545" x2="29.4859" y2="161.0767" fill="none" stroke="#dc987e" stroke-miterlimit="10" stroke-width=".1"/><line x1="156.4903" y1="29.0186" x2="26.96" y2="158.5494" fill="none" stroke="#dc987e" stroke-miterlimit="10" stroke-width=".1"/><line x1="171.6475" y1="44.1768" x2="42.1172" y2="173.7076" fill="none" stroke="#dc987e" stroke-miterlimit="10" stroke-width=".1"/><line x1="164.0684" y1="36.5972" x2="34.5381" y2="166.1285" fill="none" stroke="#dc987e" stroke-miterlimit="10" stroke-width=".1"/><line x1="181.753" y1="54.2813" x2="52.2222" y2="183.813" fill="none" stroke="#dc987e" stroke-miterlimit="10" stroke-width=".1"/><line x1="85.7559" y1="-41.7158" x2="-43.7749" y2="87.8155" fill="none" stroke="#dc987e" stroke-miterlimit="10" stroke-width=".1"/><line x1="103.4395" y1="-24.0317" x2="-26.0913" y2="105.4986" fill="none" stroke="#dc987e" stroke-miterlimit="10" stroke-width=".1"/><line x1="100.9121" y1="-26.5581" x2="-28.6176" y2="102.9722" fill="none" stroke="#dc987e" stroke-miterlimit="10" stroke-width=".1"/><line x1="116.0703" y1="-11.4008" x2="-13.4604" y2="118.1294" fill="none" stroke="#dc987e" stroke-miterlimit="10" stroke-width=".1"/><line x1="111.0176" y1="-16.4531" x2="-18.5127" y2="113.0767" fill="none" stroke="#dc987e" stroke-miterlimit="10" stroke-width=".1"/><line x1="121.1231" y1="-6.3486" x2="-8.4077" y2="123.1822" fill="none" stroke="#dc987e" stroke-miterlimit="10" stroke-width=".1"/><line x1="118.5957" y1="-8.875" x2="-10.9336" y2="120.6558" fill="none" stroke="#dc987e" stroke-miterlimit="10" stroke-width=".1"/><line x1="126.1758" y1="-1.2954" x2="-3.355" y2="128.2349" fill="none" stroke="#dc987e" stroke-miterlimit="10" stroke-width=".1"/><line x1="123.6494" y1="-3.8222" x2="-5.8818" y2="125.7076" fill="none" stroke="#dc987e" stroke-miterlimit="10" stroke-width=".1"/><line x1="131.2285" y1="3.7569" x2="1.6973" y2="133.2876" fill="none" stroke="#dc987e" stroke-miterlimit="10" stroke-width=".1"/><line x1="128.7012" y1="1.23" x2="-.8291" y2="130.7613" fill="none" stroke="#dc987e" stroke-miterlimit="10" stroke-width=".1"/><line x1="133.7539" y1="6.2832" x2="4.2237" y2="135.813" fill="none" stroke="#dc987e" stroke-miterlimit="10" stroke-width=".1"/><line x1="136.2803" y1="8.8091" x2="6.7495" y2="138.3404" fill="none" stroke="#dc987e" stroke-miterlimit="10" stroke-width=".1"/><line x1="141.3321" y1="13.8609" x2="11.8018" y2="143.3921" fill="none" stroke="#dc987e" stroke-miterlimit="10" stroke-width=".1"/><line x1="138.8067" y1="11.3355" x2="9.2759" y2="140.8658" fill="none" stroke="#dc987e" stroke-miterlimit="10" stroke-width=".1"/><line x1="146.3858" y1="18.9141" x2="16.8545" y2="148.4439" fill="none" stroke="#dc987e" stroke-miterlimit="10" stroke-width=".1"/><line x1="143.8594" y1="16.3877" x2="14.3286" y2="145.9185" fill="none" stroke="#dc987e" stroke-miterlimit="10" stroke-width=".1"/><line x1="148.9112" y1="21.4405" x2="19.3809" y2="150.9712" fill="none" stroke="#dc987e" stroke-miterlimit="10" stroke-width=".1"/><line x1="78.1768" y1="-49.2944" x2="-51.354" y2="80.2359" fill="none" stroke="#dc987e" stroke-miterlimit="10" stroke-width=".1"/><line x1="93.334" y1="-34.1367" x2="-36.1963" y2="95.3941" fill="none" stroke="#dc987e" stroke-miterlimit="10" stroke-width=".1"/><line x1="90.8086" y1="-36.6626" x2="-38.7221" y2="92.8677" fill="none" stroke="#dc987e" stroke-miterlimit="10" stroke-width=".1"/><line x1="108.4922" y1="-18.9795" x2="-21.0385" y2="110.5513" fill="none" stroke="#dc987e" stroke-miterlimit="10" stroke-width=".1"/><line x1="98.3867" y1="-29.0849" x2="-31.144" y2="100.4458" fill="none" stroke="#dc987e" stroke-miterlimit="10" stroke-width=".1"/><line x1="113.544" y1="-13.9272" x2="-15.9863" y2="115.604" fill="none" stroke="#dc987e" stroke-miterlimit="10" stroke-width=".1"/><line x1="75.6504" y1="-51.8203" x2="-53.8799" y2="77.71" fill="none" stroke="#dc987e" stroke-miterlimit="10" stroke-width=".1"/><line x1="83.2295" y1="-44.2422" x2="-46.3012" y2="85.2891" fill="none" stroke="#dc987e" stroke-miterlimit="10" stroke-width=".1"/><line x1="80.7032" y1="-46.768" x2="-48.8276" y2="82.7622" fill="none" stroke="#dc987e" stroke-miterlimit="10" stroke-width=".1"/><line x1="95.8614" y1="-31.6113" x2="-33.6699" y2="97.9204" fill="none" stroke="#dc987e" stroke-miterlimit="10" stroke-width=".1"/><line x1="88.2813" y1="-39.1889" x2="-41.2485" y2="90.3413" fill="none" stroke="#dc987e" stroke-miterlimit="10" stroke-width=".1"/><line x1="105.9649" y1="-21.5058" x2="-23.5654" y2="108.0249" fill="none" stroke="#dc987e" stroke-miterlimit="10" stroke-width=".1"/></g></g><g><path d="M46.0235,153.1802l-3.1319-2.2226,1.6856-7.127-2.7769-1.9707-3.9282,5.5371-2.9219-2.0732,10.4746-14.7647,6.4595,4.5821c1.2686,.9003,2.0347,2.123,2.2969,3.6679,.2627,1.5449-.0562,2.9512-.9566,4.2197-.6181,.8721-1.4087,1.5108-2.3706,1.9161-.9629,.4062-1.9565,.5439-2.9814,.414l-1.8491,7.8213Zm4.2793-12.2246c.3271-.4609,.4423-.9766,.3457-1.5469-.0972-.5693-.376-1.0175-.8374-1.3447l-3.5371-2.5098-2.4009,3.3838,3.5376,2.5098c.4614,.3262,.9765,.4424,1.5464,.3457,.5698-.0977,1.018-.377,1.3457-.8379Z" fill="#fff"/><path d="M74.5376,154.2056c-.7387,2.4688-2.2426,4.3154-4.5112,5.5391-2.2695,1.2246-4.6382,1.4668-7.1069,.7285-2.4693-.7393-4.316-2.2432-5.5396-4.5117-1.2241-2.2696-1.4663-4.6377-.7275-7.1075,.7383-2.4687,2.2422-4.3144,4.5112-5.539,2.2686-1.2237,4.6372-1.4668,7.1069-.7276,2.4688,.7383,4.315,2.2422,5.5391,4.5108,1.2236,2.2695,1.4663,4.6387,.728,7.1074Zm-3.4326-1.0273c.4551-1.5205,.3047-2.9805-.4492-4.3789-.7544-1.3985-1.8921-2.3243-3.4126-2.7793-1.5205-.4551-2.98-.3047-4.3784,.4492-1.3985,.7539-2.3252,1.8916-2.7803,3.4121-.4546,1.5205-.3052,2.9805,.4492,4.3789s1.8916,2.3242,3.4126,2.7793c1.5205,.4551,2.98,.3057,4.3784-.4492,1.3985-.7539,2.3252-1.8907,2.7803-3.4121Z" fill="#fff"/><path d="M96.8408,163.1216l-3.9804,.1358-1.1358-2.2256-7.3823,.2519-.9795,2.2969-3.978,.1357,8.082-18.9541,9.374,18.3594Zm-6.8896-5.6142l-2.1914-4.2393-1.8662,4.377,4.0576-.1377Z" fill="#fff"/><path d="M115.5039,151.9009c.3301,.9658,.3809,1.9375,.1504,2.9121-.2304,.9766-.6972,1.8184-1.4023,2.5244-1.0098,1.0274-2.1768,1.7676-3.5,2.2217-1.3233,.4531-2.6983,.584-4.126,.3926-1.6514-.2148-2.916-1.0195-3.792-2.4141l2.8574-2.2754c.2305,.67,.6924,1.0508,1.3887,1.1446,.8555,.122,1.6934,.0429,2.5107-.2383,.8174-.2793,1.5264-.7305,2.128-1.3516,.4922-.5019,.624-1.0869,.3945-1.7558-.2031-.5957-.6435-.9102-1.3193-.9453l-6.0928-.334c-1.9609-.0918-3.2686-1.0957-3.9258-3.0117-.6513-1.9004-.2578-3.5625,1.1817-4.9864,.789-.8008,1.7187-1.3847,2.789-1.7519s2.1699-.4776,3.2989-.333c1.2988,.1533,2.3574,.7451,3.1757,1.7763l-2.7988,2.2305c-.2061-.2617-.4736-.4102-.8018-.4473-.5918-.08-1.163-.0254-1.7128,.1631s-1.0196,.4776-1.4092,.8692c-.3887,.3916-.5,.831-.3321,1.3222,.1387,.4014,.4502,.6104,.9375,.626l6.1377,.3135c.9834,.0615,1.8565,.3896,2.6172,.9844,.7608,.5947,1.3086,1.3828,1.6455,2.3642Z" fill="#fff"/><path d="M129.7823,131.6294l-5.2334,3.8653,8.6269,11.6797-2.8828,2.1279-8.626-11.6797-5.2334,3.8643-2.1289-2.8809,13.3496-9.8594,2.128,2.8828Z" fill="#fff"/></g><path d="M139.6787,85.8677c0,29.9707-24.2978,54.2676-54.2695,54.2676s-54.2676-24.2969-54.2676-54.2676S55.4385,31.5987,85.4092,31.5987s54.2695,24.2954,54.2695,54.269Z" fill="#fff" stroke="#cfab79" stroke-miterlimit="10" stroke-width="2"/><path d="M85.4092,121.3579c-19.5693,0-35.4897-15.9218-35.4897-35.4902s15.9204-35.4917,35.4897-35.4917,35.4922,15.9214,35.4922,35.4917-15.9219,35.4902-35.4922,35.4902Z" fill="#533019" stroke="#cfab79" stroke-miterlimit="10" stroke-width="5"/><g><path d="M49.3721,29.1285c.6143,.8159,.9634,1.7231,1.0469,2.7221,.084,.9995-.0996,1.9444-.5503,2.8345-.6421,1.29-1.5215,2.3555-2.6387,3.1968-1.1172,.8418-2.3843,1.3926-3.8013,1.6528-1.6367,.3086-3.0879-.0644-4.3535-1.1182l2.0117-3.0493c.4258,.565,.9839,.7842,1.6753,.6568,.8511-.149,1.6221-.4839,2.3125-1.0039,.6905-.5201,1.2251-1.1685,1.6036-1.9458,.3125-.6294,.2568-1.2266-.1695-1.792-.3779-.5025-.8935-.6651-1.5469-.4883l-5.896,1.5708c-1.8925,.5215-3.4477-.0274-4.666-1.6455-1.209-1.605-1.3501-3.3072-.4228-5.1065,.501-1.0063,1.2036-1.8496,2.1074-2.5302,.9038-.6807,1.9146-1.1275,3.0332-1.3404,1.2817-.2573,2.4722-.0219,3.5703,.7046l-1.9692,2.9883c-.2774-.1846-.5777-.2437-.9009-.1773-.5879,.108-1.1138,.337-1.5781,.6866-.4644,.3501-.8208,.771-1.0698,1.2632-.2491,.4926-.2173,.9458,.0947,1.3598,.2549,.3389,.6167,.4404,1.0849,.3047l5.9322-1.6055c.9546-.2465,1.8857-.205,2.7934,.1246,.9073,.33,1.6729,.9086,2.2969,1.7373Z" fill="#fff"/><path d="M69.4844,16.9097c.875,2.4243,.7647,4.8032-.3311,7.1362-1.0961,2.334-2.8559,3.9375-5.2797,4.8125-2.4244,.875-4.8033,.7647-7.1363-.331-2.334-1.0957-3.938-2.8555-4.8125-5.2798-.875-2.4243-.7646-4.8027,.3311-7.1362,1.0957-2.3335,2.8555-3.938,5.2798-4.8125,2.4238-.875,4.8027-.7647,7.1362,.331,2.3335,1.0962,3.9375,2.856,4.8125,5.2798Zm-3.3701,1.2163c-.5386-1.4927-1.5274-2.5766-2.9653-3.2524-1.4385-.6753-2.9043-.7437-4.397-.2051-1.4932,.5391-2.5772,1.5278-3.2525,2.9658-.6753,1.4385-.7436,2.9038-.205,4.397,.539,1.4927,1.5273,2.5771,2.9658,3.2524,1.438,.6753,2.9038,.7437,4.397,.2046,1.4926-.5386,2.5766-1.5273,3.2524-2.9653,.6753-1.438,.7436-2.9038,.2046-4.397Z" fill="#fff"/><path d="M90.7735,22.1289c-1.7539,1.8897-3.919,2.8819-6.4942,2.9776-2.5757,.0962-4.8081-.7324-6.6972-2.4868-1.8897-1.7535-2.8819-3.918-2.9781-6.4937-.0957-2.5752,.7329-4.8076,2.4873-6.6973,1.7535-1.8891,3.918-2.8818,6.4937-2.9775,2.5752-.0962,4.8076,.7329,6.6973,2.4868l-2.4268,2.6143c-1.1724-1.0728-2.5513-1.5801-4.1372-1.521-1.5864,.0591-2.9199,.6714-4.0005,1.8354-1.0815,1.1651-1.5923,2.5401-1.5332,4.126,.0591,1.5864,.6709,2.9199,1.8354,4.0005,1.1646,1.0815,2.5396,1.5923,4.126,1.5332,1.586-.0591,2.9243-.667,4.0122-1.8242l2.6153,2.4267Z" fill="#fff"/><path d="M98.5918,26.1636l-3.7109-.666,3.1973-17.8184,3.7109,.6661-3.1973,17.8183Z" fill="#fff"/><path d="M117.4922,32.7896l-3.6894-1.501-.1299-2.4956-6.8408-2.7832-1.8321,1.6982-3.6875-1.5,15.1133-14.0058,1.0664,20.5874Zm-3.999-7.9375l-.2705-4.7647-3.4902,3.2344,3.7607,1.5303Z" fill="#fff"/><path d="M128.8213,41.4483l-9.6592-7.2349,10.8526-14.4892,2.8681,2.1479-8.705,11.6216,6.791,5.0869-2.1475,2.8677Z" fill="#fff"/></g><line x1="112.1524" y1="109.1636" x2="125.4063" y2="121.3579" fill="none" stroke="#cfab79" stroke-miterlimit="10" stroke-width="8.6934"/><path d="M83.0518,65.3804c-1.1177,7.3604-5.4453,11.5713-6.1914,18.1143-1.4971,13.1328,8.0234,12.8437,8.5498,22.8584" fill="#fff"/><path d="M83.2124,61.0259c22.6861,20.8413,3.3618,27.2188,3.9898,48.7666" fill="#fff"/></svg>