<?xml version="1.0" encoding="UTF-8"?><svg id="Layer_1" xmlns="http://www.w3.org/2000/svg" width="200" height="200" xmlns:xlink="http://www.w3.org/1999/xlink" viewBox="0 0 200 200"><defs><clipPath id="clippath"><rect x="25" y="24.9997" width="150" height="150.0006" fill="none"/></clipPath><clipPath id="clippath-1"><circle cx="99.9999" cy="99.9999" r="75.0005" transform="translate(-11.1576 187.4296) rotate(-83.1865)" fill="none"/></clipPath><clipPath id="clippath-2"><rect x="25" y="24.9997" width="150" height="150.0006" fill="none"/></clipPath></defs><g><circle cx="101.6256" cy="101.8814" r="95.4547" fill="#383838"/><circle cx="98.3744" cy="98.1186" r="95.4547" fill="#fff"/></g><g id="social-roast"><g clip-path="url(#clippath)"><path d="M174.9997,99.9998c0,41.4222-33.5778,75.0006-74.9994,75.0006S25.0003,141.4219,25.0003,99.9998,58.5787,24.9998,100.0003,24.9998s74.9994,33.5791,74.9994,75" fill="#9d3224"/></g><g clip-path="url(#clippath-1)"><path d="M118.0506,6.1152L4.3067,119.8591M102.5218-9.413L-11.2215,104.3309M109.1784-2.7588L-4.5661,110.9863M95.8677-16.0684L-17.8769,97.6755M98.0857-13.8503L-15.6582,99.8942M91.4303-20.5051L-22.313,93.2388M124.706,12.77L10.9621,126.5145M111.3959-.5402L-2.3481,113.2037M120.2699,8.3332L6.5254,122.0772M104.7417-7.1943L-9.0028,106.549M106.9591-4.9769L-6.7848,108.7676M93.649-18.287L-20.0949,95.4569M155.7624,43.827L42.0191,157.5715M151.3263,39.3902L37.5824,153.1342M153.5455,41.6089L39.8004,155.3522M146.8902,34.9536L33.1456,148.6975M149.107,37.1716L35.3637,150.9161M144.6709,32.7355L30.927,146.4794M142.4529,30.5174L28.7089,144.2607M138.0155,26.0801L24.2722,139.824M140.2354,28.2988L26.4903,142.0433M133.5794,21.6434L19.8349,135.3873M135.7987,23.8621L22.0542,137.606M129.1421,17.2067L15.3988,130.9506M131.3614,19.4247L17.6169,133.1693M122.488,10.5519L8.7434,124.2958M126.924,14.9886L13.1801,128.7319M113.6133,1.6785L-.13,115.4218M115.8326,3.8971L2.0886,117.6411M100.3043-11.6323L-13.4396,102.1128m198.0415-29.4475l-113.7445,113.7451M169.0725,57.1365L55.3286,170.881M175.7279,63.7925L61.984,177.537M162.4178,50.4818L48.6745,164.2257M164.637,52.7004L50.8925,166.4455M157.9816,46.045L44.2371,159.7901M191.2573,79.3207l-113.7451,113.7433m100.4344-127.0535l-113.7439,113.7439m122.6173-104.8705l-113.7445,113.7439M171.2924,59.3552L57.5473,173.1003M173.5092,61.5738L59.7659,175.3183M160.2009,48.2637L46.4558,162.0082m175.8579-51.6311l-113.7445,113.7445m109.3084-118.1812l-113.7451,113.7451m115.9626-111.5259l-113.7439,113.7433m107.0892-120.3987l-113.7439,113.7451m115.9613-111.5265l-113.7427,113.7433m109.3072-118.1806l-113.7445,113.7439m111.5259-115.962l-113.7445,113.7433m109.3072-118.18l-113.7439,113.7439m115.9638-111.5252l-113.7451,113.7445m107.0891-120.3999l-113.7439,113.7445m115.9626-111.5265l-113.7445,113.7445m107.0891-120.3987l-113.7439,113.7445m115.962-111.527l-113.7439,113.7439m104.8705-122.6173l-113.7439,113.7439m118.1806-109.3072l-113.7439,113.7451m100.4332-127.0546l-113.7433,113.7433m115.9632-111.5253l-113.7451,113.7445M166.8551,54.9191L53.1106,168.663" fill="none" stroke="#c6a4a3" stroke-miterlimit="10" stroke-width=".146"/></g><g clip-path="url(#clippath-2)"><path d="M65.4144,159.5109l-2.7503-1.9507,1.4803-6.2589-2.4385-1.7308-3.4491,4.8627-2.5659-1.8203,9.1978-12.9659,5.6725,4.024c1.1138,.7912,1.7867,1.8642,2.0168,3.2207,.2307,1.3565-.0493,2.5911-.8399,3.7056-.5431,.766-1.237,1.3271-2.0817,1.6828-.8459,.3563-1.7182,.4776-2.6182,.3635l-1.6239,6.8674Zm3.7578-10.734c.2872-.4049,.3887-.8579,.3034-1.3583-.0853-.5004-.3298-.894-.7353-1.1811l-3.106-2.2042-2.1081,2.9714,3.1066,2.2042c.4049,.2866,.8573,.3881,1.3578,.3028,.5004-.0847,.8939-.3298,1.1817-.7347" fill="#fff"/><path d="M90.4533,160.4123c-.6483,2.167-1.9693,3.7891-3.9615,4.8639-1.9927,1.0748-4.0726,1.2875-6.2402,.6392-2.1688-.6488-3.7903-1.9699-4.8645-3.9621-1.0754-1.9928-1.2881-4.072-.6392-6.2408,.6482-2.1682,1.9693-3.7885,3.9615-4.8639,1.9922-1.0748,4.0721-1.2887,6.2408-.6392,2.1676,.6488,3.7891,1.9693,4.8639,3.9609,1.0748,1.9934,1.2875,4.0739,.6392,6.242m-3.0141-.903c.3995-1.3349,.2673-2.617-.3947-3.8456-.662-1.2274-1.6611-2.0408-2.9967-2.4404-1.3349-.3995-2.6164-.2673-3.8443,.3947-1.2286,.662-2.042,1.6611-2.4415,2.9961-.3995,1.3355-.268,2.6176,.3941,3.8456,.6627,1.228,1.6611,2.0414,2.9967,2.4409,1.3355,.3995,2.617,.268,3.8449-.3953,1.228-.662,2.0421-1.6593,2.4416-2.9961" fill="#fff"/><path d="M110.0383,168.2412l-3.4953,.1183-.9973-1.9537-6.4823,.2217-.8603,2.0168-3.4929,.1184,7.097-16.6438,8.2312,16.1224Zm-6.0498-4.9306l-1.9243-3.7224-1.6389,3.8438,3.5632-.1214Z" fill="#fff"/><path d="M126.427,158.3879c.2896,.8483,.3346,1.7008,.1316,2.5569-.2019,.8579-.6122,1.5969-1.231,2.2169-.8868,.9024-1.9117,1.5524-3.0735,1.9507-1.1619,.3977-2.3688,.5131-3.6233,.3455-1.4497-.1886-2.5605-.8958-3.3295-2.1201l2.5088-1.9982c.2025,.5882,.6086,.9228,1.2196,1.0051,.7516,.1075,1.4869,.0378,2.2048-.2097,.7173-.2451,1.3403-.641,1.869-1.1865,.432-.441,.5479-.9546,.346-1.5422-.1784-.5233-.5647-.799-1.1583-.8297l-5.3505-.2932c-1.7224-.0805-2.8699-.9624-3.4478-2.6446-.5713-1.669-.2253-3.1282,1.0381-4.3785,.6927-.7035,1.5097-1.2166,2.4494-1.5386,.939-.3226,1.9051-.4199,2.8969-.2926,1.1402,.1346,2.0697,.6542,2.7888,1.5596l-2.4578,1.9591c-.1814-.2301-.4163-.3611-.7047-.3935-.5197-.0703-1.0213-.0216-1.5044,.143-.4824,.1664-.8946,.4199-1.237,.7642-.3419,.3437-.4392,.73-.2914,1.1607,.122,.3527,.3947,.5359,.8237,.5497l5.3889,.2752c.8639,.0547,1.6305,.3424,2.298,.8651,.6681,.5215,1.1493,1.2136,1.4455,2.0757" fill="#fff"/><polygon points="138.9649 140.5866 134.3696 143.9816 141.9453 154.2368 139.4137 156.1058 131.8391 145.85 127.2438 149.2432 125.3742 146.7133 137.0965 138.0555 138.9649 140.5866" fill="#fff"/><path d="M147.6557,100.4024c0,26.3175-21.3365,47.6534-47.6558,47.6534s-47.654-21.3359-47.654-47.6534,21.3359-47.6552,47.654-47.6552,47.6558,21.3347,47.6558,47.6552" fill="#fff"/><path d="M147.6557,100.4024c0,26.3175-21.3365,47.6534-47.6558,47.6534s-47.654-21.3359-47.654-47.6534,21.3359-47.6552,47.654-47.6552,47.6558,21.3347,47.6558,47.6552Z" fill="none" stroke="#ba955c" stroke-miterlimit="10" stroke-width="2.923"/><path d="M100,131.5674c-17.1845,0-31.1646-13.9818-31.1646-31.1651s13.98-31.1657,31.1646-31.1657,31.1664,13.9806,31.1664,31.1657-13.9806,31.1651-31.1664,31.1651" fill="#4f362a"/><path d="M100,131.5674c-17.1845,0-31.1646-13.9818-31.1646-31.1651s13.98-31.1657,31.1646-31.1657,31.1664,13.9806,31.1664,31.1657-13.9806,31.1651-31.1664,31.1651Z" fill="none" stroke="#ba955c" stroke-miterlimit="10" stroke-width="7.308"/><path d="M68.3549,50.5782c.5395,.7167,.8459,1.5133,.9192,2.3905,.0739,.8777-.0871,1.7074-.483,2.489-.5641,1.1325-1.3361,2.0685-2.3172,2.8068-.9811,.7396-2.0937,1.2232-3.3379,1.4515-1.437,.2709-2.7119-.0565-3.8227-.9817l1.7663-2.6776c.3737,.4962,.8639,.6885,1.4713,.5767,.7474-.1309,1.4245-.4247,2.0306-.8813,.6062-.4572,1.0754-1.0261,1.4082-1.7092,.2739-.5527,.2253-1.0766-.149-1.5734-.3316-.441-.7846-.5839-1.3583-.4289l-5.1775,1.3794c-1.6617,.4584-3.0273-.024-4.0972-1.4448-1.0616-1.4094-1.1859-2.9041-.3713-4.4842,.4398-.8837,1.0568-1.6239,1.8504-2.2217s1.6816-.9901,2.6638-1.1769c1.1252-.2259,2.1706-.0192,3.1348,.6188l-1.729,2.6242c-.2439-.1622-.507-.2145-.7912-.1562-.516,.0949-.9781,.2962-1.386,.6032-.4073,.3076-.7203,.6771-.939,1.109-.2187,.4325-.191,.8309,.0829,1.1943,.2241,.2974,.5419,.3869,.9528,.2673l5.2093-1.4094c.8381-.2169,1.6557-.1802,2.453,.1093,.7966,.2896,1.4689,.7978,2.0168,1.5254" fill="#fff"/><path d="M86.0161,39.8485c.7684,2.1291,.6717,4.218-.2908,6.2667-.9624,2.0492-2.5076,3.4575-4.6362,4.2258-2.1291,.7684-4.218,.6717-6.2667-.2908-2.0492-.9618-3.458-2.507-4.2258-4.6362-.7684-2.1286-.6717-4.2174,.2908-6.2667,.9618-2.0486,2.507-3.458,4.6362-4.2258,2.1286-.7684,4.2174-.6717,6.2667,.2908,2.0486,.9624,3.4574,2.5076,4.2258,4.6362m-2.9594,1.0682c-.4728-1.3109-1.3409-2.2625-2.6037-2.8561-1.2634-.593-2.5503-.653-3.8612-.1802-1.3115,.4734-2.2631,1.3421-2.8561,2.6044-.593,1.2634-.653,2.5503-.1802,3.8612,.4734,1.3109,1.3409,2.2631,2.6044,2.8561,1.2628,.593,2.5497,.6531,3.8612,.1796,1.3109-.4728,2.2625-1.3409,2.8561-2.6037,.593-1.2628,.6531-2.5497,.1796-3.8612" fill="#fff"/><path d="M104.7106,44.4317c-1.5404,1.6594-3.4412,2.5304-5.7025,2.6146-2.2619,.0847-4.2222-.6428-5.881-2.1838-1.6594-1.5398-2.5311-3.44-2.6151-5.7019-.0841-2.2613,.6434-4.2217,2.1838-5.881,1.5398-1.6594,3.4407-2.5311,5.7025-2.6146,2.2613-.0847,4.2217,.6434,5.881,2.1832l-2.1309,2.2962c-1.0297-.942-2.2403-1.3878-3.6329-1.3361-1.3932,.0523-2.5641,.59-3.5133,1.6119-.9492,1.0231-1.398,2.2307-1.3464,3.6233,.0523,1.3932,.5894,2.5641,1.6119,3.5127,1.0225,.9498,2.2301,1.3986,3.6233,1.3464,1.3926-.0517,2.5677-.5858,3.5229-1.6017l2.2968,2.1309Z" fill="#fff"/><rect x="103.4021" y="38.2036" width="15.8967" height="3.3107" transform="translate(52.4563 142.4218) rotate(-79.8298)" fill="#fff"/><path d="M128.1726,53.7932l-3.2394-1.3181-.1141-2.1916-6.0072-2.4439-1.6089,1.4911-3.2376-1.3169,13.2711-12.299,.936,18.0785Zm-3.5115-6.9702l-.2373-4.1838-3.0651,2.8399,3.3025,1.3439Z" fill="#fff"/><polygon points="138.1211 61.3966 129.6393 55.0434 139.1694 42.3202 141.6879 44.206 134.0442 54.4114 140.0075 58.8781 138.1211 61.3966" fill="#fff"/><line x1="123.4835" y1="120.8595" x2="135.1223" y2="131.5671" fill="none" stroke="#ba955c" stroke-miterlimit="10" stroke-width="12.707"/><path d="M97.93,82.412c-.9816,6.4631-4.7815,10.1609-5.437,15.9067-1.3145,11.5325,7.0459,11.2783,7.5079,20.0725" fill="#fff"/><path d="M98.0709,78.5882c19.9211,18.3014,2.9522,23.9018,3.5037,42.8238" fill="#fff"/></g></g></svg>