<?xml version="1.0" encoding="UTF-8"?><svg id="Layer_1" xmlns="http://www.w3.org/2000/svg" width="200" height="200" viewBox="0 0 200 200"><g><circle cx="101.6256" cy="101.8814" r="95.4547" fill="#383838"/><circle cx="98.3744" cy="98.1186" r="95.4547" fill="#fff"/></g><g id="Spangler_Food_Hall"><rect x="25" y="78.9563" width="150" height="38.6718" fill="none" stroke="#e49f4d" stroke-linejoin="round" stroke-width="2.595"/><rect x="55.4682" y="115.3091" width="89.0626" height="4.6745" fill="#fff"/><polygon points="67.5107 114.4743 71.6036 114.4743 71.6036 114.9774 68.0622 114.9774 68.0622 117.3674 71.5357 117.3674 71.5357 117.8701 68.0622 117.8701 68.0622 120.9279 67.5107 120.9279 67.5107 114.4743" fill="#5d1b24"/><path d="M77.6324,114.8709c-1.5675,0-2.5542,1.1899-2.5542,2.835,0,1.6252,.9867,2.8346,2.5542,2.8346,1.548,0,2.5542-1.2094,2.5542-2.8346,0-1.6451-1.0062-2.835-2.5542-2.835m0-.5031c1.8865,0,3.135,1.4512,3.135,3.3382s-1.2485,3.3378-3.135,3.3378c-1.8967,0-3.135-1.4512-3.135-3.3378s1.2383-3.3382,3.135-3.3382" fill="#5d1b24"/><path d="M86.9402,114.8709c-1.5675,0-2.5542,1.1899-2.5542,2.835,0,1.6252,.9867,2.8346,2.5542,2.8346,1.548,0,2.5542-1.2094,2.5542-2.8346,0-1.6451-1.0062-2.835-2.5542-2.835m0-.5031c1.8869,0,3.135,1.4512,3.135,3.3382s-1.2481,3.3378-3.135,3.3378c-1.8963,0-3.135-1.4512-3.135-3.3378s1.2387-3.3382,3.135-3.3382" fill="#5d1b24"/><path d="M95.4745,120.4248c1.7028,0,2.6802-1.2095,2.6802-2.7188s-.9676-2.7286-2.6802-2.7286h-1.5094v5.4474h1.5094Zm-2.0609-5.9505h2.0609c2.0027,0,3.2605,1.461,3.2605,3.2317,0,1.7898-1.2578,3.2219-3.2605,3.2219h-2.0609v-6.4536Z" fill="#5d1b24"/><polygon points="111.1309 117.8606 107.038 117.8606 107.038 120.9277 106.4866 120.9277 106.4866 114.4741 107.038 114.4741 107.038 117.3575 111.1309 117.3575 111.1309 114.4741 111.6921 114.4741 111.6921 120.9277 111.1309 120.9277 111.1309 117.8606" fill="#5d1b24"/><path d="M116.0811,118.8379h3.0862l-1.548-3.8218-1.5382,3.8218Zm3.2605,.5031h-3.4349l-.6482,1.5866h-.6189l2.6412-6.4532h.6868l2.6416,6.4532h-.6194l-.6482-1.5866Z" fill="#5d1b24"/><polygon points="123.5612 114.4743 124.1127 114.4743 124.1127 120.4248 127.2379 120.4248 127.2379 120.9279 123.5612 120.9279 123.5612 114.4743" fill="#5d1b24"/><polygon points="130.3099 114.4743 130.8614 114.4743 130.8614 120.4248 133.9866 120.4248 133.9866 120.9279 130.3099 120.9279 130.3099 114.4743" fill="#5d1b24"/><path d="M40.3203,106.843c-1.7974,0-3.2487-.8641-3.871-1.2786-.2074,.2418-.5528,.6911-.6567,1.2786h-.6219v-5.9446h.6915c.2762,2.9377,2.1423,4.5964,4.7343,4.5964,1.4865,0,2.6616-.8293,2.6616-2.3158,0-1.209-.9676-2.1423-2.8342-3.0756l-2.3497-1.2095c-1.6595-.8641-2.8346-2.281-2.8346-4.2167,0-2.1771,1.7974-3.9401,4.3202-3.9401,1.4169,0,2.5233,.5188,3.2487,1.0368,.2074-.207,.4497-.518,.5532-1.0712h.6571v5.8406h-.6915c-.2074-2.0732-1.1407-4.5277-3.6292-4.5277-1.3477,0-2.4885,.7263-2.4885,2.0053,0,1.2095,.8989,1.8661,3.0069,2.9717l2.3158,1.2103c1.9701,1.002,2.7303,2.5576,2.7303,3.9049,0,2.8338-2.2467,4.7351-4.9422,4.7351" fill="#5d1b24"/><path d="M54.8867,92.5348h-1.9701v6.0137h1.9701c1.9357,0,2.8338-1.3482,2.8338-2.9725,0-1.6591-.8981-3.0412-2.8338-3.0412m.7606,13.0295v.6911h-7.9147v-.6911c2.3158,0,2.7303-.5875,2.7303-4.0437v-5.5297c0-3.4561-.4145-4.0093-2.7303-4.0093v-.6915h7.154c3.56,0,5.5301,1.8322,5.5301,4.2859,0,2.385-1.9701,4.2511-5.5301,4.2511h-1.9701v1.6935c0,3.4561,.4149,4.0437,2.7307,4.0437" fill="#5d1b24"/><path d="M68.0113,94.7465l-2.281,5.2879h4.562l-2.281-5.2879Zm-3.5253,8.1565c-.8637,2.0388-.8637,2.6268,1.8661,2.6268v.7258h-6.5317v-.7258c2.1084,0,2.4193-.4149,3.5596-3.0069l5.0804-11.82h.4836l5.0809,11.82c1.1407,2.592,1.5548,3.0069,3.387,3.0069v.7258h-7.7416v-.7258c2.488,0,2.7303-.588,1.8661-2.6268l-.6911-1.59h-5.6684l-.6911,1.59Z" fill="#5d1b24"/><path d="M79.6604,91.9814v-.6911h4.2507l9.1932,10.9211v-6.2207c0-3.4561-.4145-4.0093-2.7298-4.0093v-.6911h6.7396v.6911c-2.3158,0-2.7307,.5532-2.7307,4.0093v10.818h-.6571l-10.057-12.0622v6.7739c0,3.4561,.4149,4.0437,2.7307,4.0437v.6915h-6.7396v-.6915c2.3158,0,2.7303-.5875,2.7303-4.0437v-5.5297c0-3.4561-.4145-4.0093-2.7303-4.0093" fill="#5d1b24"/><path d="M106.9726,106.843c-4.3202,0-7.8107-3.6288-7.8107-8.0877,0-4.389,3.4905-8.0525,7.8107-8.0525,1.6587,0,3.5253,.9676,4.562,2.2814,.2418-.277,.4836-1.1407,.6223-1.6939h.6563v5.9794h-.6911c-.6563-3.2143-2.4885-5.254-5.1496-5.254-3.8706,0-5.0809,3.8366-5.0809,6.7396,0,2.9381,1.2103,6.7396,5.0809,6.7396,1.7283,0,4.3894-1.0712,4.3894-2.9377,0-1.3825-1.2786-2.1079-2.9725-2.1079v-.6915h7.6385v.6915c-2.3158,0-2.7307,.5875-2.7307,4.0436v1.0368c-2.1771,0-4.3202,1.3134-6.3247,1.3134" fill="#5d1b24"/><path d="M117.1464,91.9814v-.6911h7.9147v.6911c-2.3158,0-2.7307,.5532-2.7307,4.0093v4.9765c0,3.4565,.4149,4.0093,2.7307,4.0093h1.2094c3.1795,0,3.5944-.5875,4.0089-2.2119l.1731-.6911h.7254l-.2418,4.182h-13.7897v-.6915c2.3158,0,2.7303-.5875,2.7303-4.0437v-5.5297c0-3.4561-.4145-4.0093-2.7303-4.0093" fill="#5d1b24"/><path d="M145.4993,102.7648l.1727-.6911h.6911l-.2762,4.182h-12.926v-.6915c2.3158,0,2.7303-.5875,2.7303-4.0437v-5.5297c0-3.4561-.4145-4.0093-2.7303-4.0093v-.6915h12.0966l.2762,4.1476h-.7254l-.1731-.6911c-.3801-1.59-.8298-2.2119-3.9745-2.2119h-2.3158v5.1492h.2074c3.4561,0,3.7327-.414,3.7327-2.7298h.6911v6.7396h-.6911c0-2.2814-.2766-2.7307-3.7327-2.7307h-.2074v2.0044c0,3.4561,.4149,4.0093,2.7307,4.0093h.4145c3.1452,0,3.5944-.5875,4.0093-2.2119" fill="#5d1b24"/><path d="M156.363,92.5346h-1.9697v6.0137h1.9697c1.9357,0,2.8342-1.3482,2.8342-2.9725,0-1.6587-.8985-3.0412-2.8342-3.0412m3.4909,9.8152c1.3825,1.6243,2.9725,2.9725,4.6312,3.2143v.6915h-4.4237l-4.7008-6.4286h-.9672v1.6935c0,3.4561,.4149,4.0436,2.7303,4.0436v.6915h-7.9142v-.6915c2.3154,0,2.7298-.5875,2.7298-4.0436v-5.5297c0-3.4561-.4145-4.0093-2.7298-4.0093v-.6911h7.1536c3.5605,0,5.5301,1.8318,5.5301,4.2855,0,2.1084-1.59,3.8362-4.182,4.182l2.1427,2.592Z" fill="#5d1b24"/></g></svg>