<?xml version="1.0" encoding="UTF-8"?><svg id="Layer_1" xmlns="http://www.w3.org/2000/svg" width="370.095" height="125.5205" viewBox="0 0 370.095 125.5205"><rect width="370.095" height="125.5205" fill="#fff"/><rect x="7.868" y="12.0952" width="353.591" height="91.16" fill="none" stroke="#e49f4d" stroke-linejoin="round" stroke-width="2.595"/><rect x="79.69" y="100.9523" width="209.945" height="10.0816" fill="#fff"/><polygon points="108.0774 95.8209 117.7254 95.8209 117.7254 97.0069 109.3774 97.0069 109.3774 102.6409 117.5654 102.6409 117.5654 103.8259 109.3774 103.8259 109.3774 111.0339 108.0774 111.0339 108.0774 95.8209" fill="#5d1b24"/><path d="M131.9369,96.7559c-3.695,0-6.021,2.805-6.021,6.683,0,3.831,2.326,6.682,6.021,6.682,3.649,0,6.021-2.851,6.021-6.682,0-3.878-2.372-6.683-6.021-6.683m0-1.186c4.447,0,7.39,3.421,7.39,7.869s-2.943,7.868-7.39,7.868c-4.471,0-7.39-3.421-7.39-7.868s2.919-7.869,7.39-7.869" fill="#5d1b24"/><path d="M153.8779,96.7559c-3.695,0-6.021,2.805-6.021,6.683,0,3.831,2.326,6.682,6.021,6.682,3.649,0,6.021-2.851,6.021-6.682,0-3.878-2.372-6.683-6.021-6.683m0-1.186c4.448,0,7.39,3.421,7.39,7.869s-2.942,7.868-7.39,7.868c-4.47,0-7.39-3.421-7.39-7.868s2.92-7.869,7.39-7.869" fill="#5d1b24"/><path d="M173.9956,109.8479c4.014,0,6.318-2.851,6.318-6.409s-2.281-6.432-6.318-6.432h-3.558v12.841h3.558Zm-4.858-14.027h4.858c4.721,0,7.686,3.444,7.686,7.618,0,4.219-2.965,7.595-7.686,7.595h-4.858v-15.213Z" fill="#5d1b24"/><polygon points="210.9021 103.8034 201.2541 103.8034 201.2541 111.0335 199.9541 111.0335 199.9541 95.8204 201.2541 95.8204 201.2541 102.6174 210.9021 102.6174 210.9021 95.8204 212.2251 95.8204 212.2251 111.0335 210.9021 111.0335 210.9021 103.8034" fill="#5d1b24"/><path d="M222.5711,106.1071h7.275l-3.649-9.009-3.626,9.009Zm7.686,1.186h-8.097l-1.528,3.74h-1.459l6.226-15.212h1.619l6.227,15.212h-1.46l-1.528-3.74Z" fill="#5d1b24"/><polygon points="240.2037 95.8209 241.5037 95.8209 241.5037 109.8479 248.8707 109.8479 248.8707 111.0339 240.2037 111.0339 240.2037 95.8209" fill="#5d1b24"/><polygon points="256.1122 95.8209 257.4122 95.8209 257.4122 109.8479 264.7792 109.8479 264.7792 111.0339 256.1122 111.0339 256.1122 95.8209" fill="#5d1b24"/><g><path d="M43.9822,77.8319c-4.237,0-7.658-2.037-9.125-3.014-.489,.57-1.303,1.629-1.548,3.014h-1.466v-14.013h1.63c.651,6.925,5.05,10.835,11.16,10.835,3.504,0,6.274-1.955,6.274-5.459,0-2.85-2.281-5.05-6.681-7.25l-5.539-2.851c-3.912-2.037-6.682-5.377-6.682-9.94,0-5.132,4.237-9.288,10.184-9.288,3.34,0,5.948,1.223,7.658,2.444,.489-.488,1.06-1.221,1.304-2.525h1.549v13.768h-1.63c-.489-4.887-2.689-10.673-8.555-10.673-3.177,0-5.866,1.712-5.866,4.727,0,2.851,2.119,4.399,7.088,7.005l5.459,2.853c4.644,2.362,6.436,6.029,6.436,9.205,0,6.68-5.296,11.162-11.65,11.162" fill="#5d1b24"/><path d="M78.3191,44.1035h-4.644v14.176h4.644c4.563,0,6.68-3.178,6.68-7.007,0-3.911-2.117-7.169-6.68-7.169m1.793,30.714v1.629h-18.657v-1.629c5.459,0,6.436-1.385,6.436-9.532v-13.035c0-8.147-.977-9.451-6.436-9.451v-1.63h16.864c8.392,0,13.036,4.319,13.036,10.103,0,5.622-4.644,10.021-13.036,10.021h-4.644v3.992c0,8.147,.978,9.532,6.437,9.532" fill="#5d1b24"/><path d="M109.2575,49.3171l-5.377,12.465h10.754l-5.377-12.465Zm-8.31,19.227c-2.036,4.806-2.036,6.192,4.399,6.192v1.711h-15.397v-1.711c4.97,0,5.703-.978,8.391-7.088l11.976-27.863h1.14l11.977,27.863c2.689,6.11,3.665,7.088,7.984,7.088v1.711h-18.249v-1.711c5.865,0,6.436-1.386,4.399-6.192l-1.629-3.748h-13.362l-1.629,3.748Z" fill="#5d1b24"/><path d="M136.7175,42.7991v-1.629h10.02l21.671,25.744v-14.664c0-8.147-.977-9.451-6.435-9.451v-1.629h15.887v1.629c-5.459,0-6.437,1.304-6.437,9.451v25.501h-1.549l-23.707-28.434v15.968c0,8.147,.978,9.532,6.437,9.532v1.63h-15.887v-1.63c5.459,0,6.436-1.385,6.436-9.532v-13.035c0-8.147-.977-9.451-6.436-9.451" fill="#5d1b24"/><path d="M201.0998,77.8319c-10.184,0-18.412-8.554-18.412-19.065,0-10.346,8.228-18.982,18.412-18.982,3.91,0,8.31,2.281,10.754,5.378,.57-.653,1.14-2.689,1.467-3.993h1.547v14.095h-1.629c-1.547-7.577-5.866-12.385-12.139-12.385-9.124,0-11.977,9.044-11.977,15.887,0,6.926,2.853,15.887,11.977,15.887,4.074,0,10.347-2.525,10.347-6.925,0-3.259-3.014-4.969-7.007-4.969v-1.63h18.006v1.63c-5.459,0-6.437,1.385-6.437,9.532v2.444c-5.132,0-10.184,3.096-14.909,3.096" fill="#5d1b24"/><path d="M225.0822,42.7991v-1.629h18.657v1.629c-5.459,0-6.437,1.304-6.437,9.451v11.731c0,8.148,.978,9.451,6.437,9.451h2.851c7.495,0,8.473-1.385,9.45-5.214l.408-1.629h1.71l-.57,9.858h-32.506v-1.63c5.459,0,6.436-1.385,6.436-9.532v-13.035c0-8.147-.977-9.451-6.436-9.451" fill="#5d1b24"/><path d="M291.9177,68.2184l.407-1.629h1.629l-.651,9.858h-30.47v-1.63c5.459,0,6.436-1.385,6.436-9.532v-13.035c0-8.147-.977-9.451-6.436-9.451v-1.63h28.515l.651,9.777h-1.71l-.408-1.629c-.896-3.748-1.956-5.214-9.369-5.214h-5.459v12.138h.489c8.147,0,8.799-.976,8.799-6.435h1.629v15.887h-1.629c0-5.378-.652-6.437-8.799-6.437h-.489v4.725c0,8.147,.978,9.451,6.437,9.451h.977c7.414,0,8.473-1.385,9.451-5.214" fill="#5d1b24"/><path d="M317.5265,44.1032h-4.643v14.176h4.643c4.563,0,6.681-3.178,6.681-7.007,0-3.91-2.118-7.169-6.681-7.169m8.229,23.137c3.259,3.829,7.007,7.007,10.917,7.577v1.63h-10.428l-11.081-15.154h-2.28v3.992c0,8.147,.978,9.532,6.436,9.532v1.63h-18.656v-1.63c5.458,0,6.435-1.385,6.435-9.532v-13.035c0-8.147-.977-9.451-6.435-9.451v-1.629h16.863c8.393,0,13.036,4.318,13.036,10.102,0,4.97-3.748,9.043-9.858,9.858l5.051,6.11Z" fill="#5d1b24"/></g></svg>