<?xml version="1.0" encoding="UTF-8"?><svg id="Layer_1" xmlns="http://www.w3.org/2000/svg" width="200" height="200" viewBox="0 0 200 200"><g><circle cx="101.6256" cy="101.8814" r="95.4547" fill="#383838"/><circle cx="98.3744" cy="98.1186" r="95.4547" fill="#fff"/></g><g id="stock-and-source"><g><path d="M43.7419,94.5006v7.7391h4.861v-14.4548h-6.7795c-2.2388,0-3.8384-1.8554-3.8384-3.7739v-16.9502c0-2.238,1.5351-3.8377,3.8384-3.8377h8.6987c2.1743,0,3.8369,1.5996,3.8369,3.7739v9.4024h-5.7561v-7.4195h-4.861v13.048h6.7803c2.1743,0,3.8369,1.7909,3.8369,3.8377v18.357c0,2.0468-1.7264,3.7739-3.8369,3.7739h-8.6987c-2.0475,0-3.8384-1.7271-3.8384-3.7739v-9.7221h5.7569Z" fill="#413b3d"/><polygon points="69.0698 68.98 63.953 68.98 63.953 63.2232 79.9428 63.2232 79.9428 68.98 74.8267 68.98 74.8267 107.9966 69.0698 107.9966 69.0698 68.98" fill="#413b3d"/><path d="M89.5355,67.0611c0-2.0468,1.7909-3.8377,3.8377-3.8377h8.6987c2.1751,0,3.8377,1.7909,3.8377,3.8377v37.1619c0,2.0468-1.7263,3.7731-3.8377,3.7731h-8.6987c-2.0468,0-3.8377-1.7264-3.8377-3.7731v-37.1619Zm10.6179,1.9185h-4.861v33.2597h4.861v-33.2597Z" fill="#413b3d"/><path d="M128.0395,76.6552v-7.6753h-4.861v33.2597h4.861v-7.7391h5.7569v9.7221c0,2.0468-1.7272,3.7739-3.8377,3.7739h-8.6995c-2.0468,0-3.8369-1.7272-3.8369-3.7739v-37.1611c0-2.0475,1.7901-3.8384,3.8369-3.8384h8.6995c2.1743,0,3.8377,1.7909,3.8377,3.8384v9.5938h-5.7569Z" fill="#413b3d"/><polygon points="150.1689 63.2234 150.1689 80.0453 154.6466 63.2234 160.7223 63.2234 154.6466 84.0112 161.4261 107.996 155.4779 107.996 150.1689 88.4244 150.1689 107.996 144.412 107.996 144.412 63.2234 150.1689 63.2234" fill="#413b3d"/><path d="M42.1643,145.7201v3.1615h3.9391v-8.0856h-5.4934c-1.8147,0-3.1101-1.5028-3.1101-3.0571v-10.6248c0-1.814,1.2438-3.1093,3.1101-3.1093h7.0476c1.7625,0,3.1093,1.2953,3.1093,3.0578v4.5084h-4.6636v-2.9018h-3.9391v7.4633h5.4934c1.7625,0,3.1093,1.4505,3.1093,3.1093v11.2464c0,1.658-1.3991,3.0578-3.1093,3.0578h-7.0476c-1.6588,0-3.1101-1.3998-3.1101-3.0578v-4.7681h4.6643Z" fill="#413b3d"/><path d="M60.0951,127.1137c0-1.658,1.4513-3.1093,3.1101-3.1093h7.0476c1.7625,0,3.1101,1.4513,3.1101,3.1093v23.3739c0,1.6588-1.3999,3.0578-3.1101,3.0578h-7.0476c-1.6588,0-3.1101-1.3991-3.1101-3.0578v-23.3739Zm8.6034,1.5558h-3.9391v20.2124h3.9391v-20.2124Z" fill="#413b3d"/><path d="M87.355,124.0046v24.8768h3.9383v-24.8768h4.6644v26.4833c0,1.6588-1.3991,3.0578-3.1093,3.0578h-7.0484c-1.6588,0-3.1093-1.3991-3.1093-3.0578v-26.4833h4.6643Z" fill="#413b3d"/><path d="M113.889,141.729h-3.939v11.8164h-4.6644v-29.5411h9.5885c1.7617,0,3.1093,1.4513,3.1093,3.1093v9.4846c0,1.2954-.6739,2.2803-1.6073,2.5392,1.3999,.3112,2.1773,1.7625,2.1773,3.0578v11.3501h-4.6644v-11.8164Zm-3.939-4.6644h3.369v-8.396h-3.369v8.396Z" fill="#413b3d"/><path d="M136.4843,132.8152v-4.1457h-3.939v20.2117h3.939v-4.198h4.6644v5.8045c0,1.6588-1.3991,3.0578-3.1101,3.0578h-7.0476c-1.6587,0-3.1101-1.3991-3.1101-3.0578v-23.374c0-1.658,1.4513-3.1093,3.1101-3.1093h7.0476c1.7625,0,3.1101,1.4513,3.1101,3.1093v5.7016h-4.6644Z" fill="#413b3d"/><polygon points="162.5 153.5458 150.4761 153.5458 150.4761 124.0047 162.1373 124.0047 162.1373 128.669 155.1412 128.669 155.1412 136.1838 160.0645 136.1838 160.0645 140.8481 155.1412 140.8481 155.1412 148.8814 162.5 148.8814 162.5 153.5458" fill="#413b3d"/><path d="M39.2474,115.7861c-.2835,0-.4763,.1014-.4763,.305,0,.6907,1.9961,.305,1.9907,1.6534,0,.7329-.6369,1.1294-1.4659,1.1294-.6154,0-1.2308-.2359-1.6542-.5939l.3373-.6907c.3857,.3427,.9312,.5624,1.3268,.5624,.3488,0,.557-.1291,.557-.3588,0-.7068-1.9961-.2943-1.9961-1.6211,0-.68,.5831-1.1087,1.4498-1.1087,.5247,0,1.0495,.1613,1.4236,.4072l-.3258,.7015c-.3964-.2359-.8674-.3857-1.167-.3857" fill="#413b3d"/><path d="M46.0485,116.4013c0,.8728-.5455,1.3752-1.4982,1.3752h-.7445v1.0702h-.8451v-3.7455h1.5896c.9527,0,1.4982,.4709,1.4982,1.3m-.8029,.0269c0-.4172-.2674-.6262-.7383-.6262h-.7015v1.2685h.7015c.4709,0,.7383-.2136,.7383-.6423" fill="#413b3d"/><polygon points="51.0462 115.1012 51.0462 115.8027 49.0394 115.8027 49.0394 116.6155 50.848 116.6155 50.848 117.3162 49.0394 117.3162 49.0394 118.146 51.1054 118.146 51.1054 118.8466 48.1943 118.8466 48.1943 115.1012 51.0462 115.1012" fill="#413b3d"/><path d="M55.1127,115.8075c-.6423,0-1.1402,.4979-1.1402,1.1502,0,.653,.4979,1.1563,1.1402,1.1563,.3373,0,.7061-.1713,.9742-.4387l.4971,.5401c-.3956,.4072-.9688,.6692-1.5143,.6692-1.1186,0-1.9637-.829-1.9637-1.9162,0-1.081,.8612-1.8938,1.9961-1.8938,.5409,0,1.1079,.2405,1.4767,.6208l-.4917,.5992c-.2574-.2943-.6262-.4871-.9742-.4871" fill="#413b3d"/><rect x="58.6922" y="115.1013" width=".8451" height="3.7455" fill="#413b3d"/><path d="M64.4444,118.1194h-1.734l-.2943,.7275h-.872l1.6272-3.7462h.872l1.5996,3.7462h-.9043l-.2943-.7275Zm-.2727-.68l-.5885-1.4551-.5939,1.4551h1.1824Z" fill="#413b3d"/><polygon points="68.4841 115.1012 68.4841 118.1083 70.0898 118.1083 70.0898 118.8466 67.639 118.8466 67.639 115.1012 68.4841 115.1012" fill="#413b3d"/><polygon points="74.9587 115.1012 74.9587 115.818 73.8132 115.818 73.8132 118.8466 72.968 118.8466 72.968 115.818 71.8279 115.818 71.8279 115.1012 74.9587 115.1012" fill="#413b3d"/><polygon points="78.8223 117.6377 78.8223 118.847 77.9764 118.847 77.9764 117.6592 76.5904 115.1015 77.4417 115.1015 78.3997 116.7818 79.3363 115.1015 80.1868 115.1015 78.8223 117.6377" fill="#413b3d"/><path d="M121.1184,115.7861c-.2843,0-.4763,.1014-.4763,.305,0,.6907,1.9961,.305,1.9906,1.6534,0,.7329-.6369,1.1294-1.4659,1.1294-.6154,0-1.2308-.2359-1.6541-.5939l.3373-.6907c.3857,.3427,.9312,.5624,1.3269,.5624,.3488,0,.557-.1291,.557-.3588,0-.7068-1.9961-.2943-1.9961-1.6211,0-.68,.5832-1.1087,1.4498-1.1087,.5247,0,1.0496,.1613,1.4237,.4072l-.3257,.7015c-.3964-.2359-.8674-.3857-1.1671-.3857" fill="#413b3d"/><polygon points="127.6837 115.1012 127.6837 115.8027 125.6769 115.8027 125.6769 116.6155 127.4855 116.6155 127.4855 117.3162 125.6769 117.3162 125.6769 118.146 127.7429 118.146 127.7429 118.8466 124.8318 118.8466 124.8318 115.1012 127.6837 115.1012" fill="#413b3d"/><polygon points="130.8565 115.1012 130.8565 118.1083 132.4622 118.1083 132.4622 118.8466 130.0114 118.8466 130.0114 115.1012 130.8565 115.1012" fill="#413b3d"/><polygon points="137.4221 115.1012 137.4221 115.8027 135.4153 115.8027 135.4153 116.6155 137.2239 116.6155 137.2239 117.3162 135.4153 117.3162 135.4153 118.146 137.4813 118.146 137.4813 118.8466 134.5702 118.8466 134.5702 115.1012 137.4221 115.1012" fill="#413b3d"/><path d="M141.4886,115.8075c-.6423,0-1.1402,.4979-1.1402,1.1502,0,.653,.4978,1.1563,1.1402,1.1563,.3373,0,.706-.1713,.9742-.4387l.4972,.5401c-.3957,.4072-.9688,.6692-1.5144,.6692-1.1186,0-1.9638-.829-1.9638-1.9162,0-1.081,.8613-1.8938,1.9961-1.8938,.5409,0,1.1079,.2405,1.4767,.6208l-.4917,.5992c-.2574-.2943-.6261-.4871-.9742-.4871" fill="#413b3d"/><polygon points="147.8293 115.1012 147.8293 115.818 146.6838 115.818 146.6838 118.8466 145.8387 118.8466 145.8387 115.818 144.6986 115.818 144.6986 115.1012 147.8293 115.1012" fill="#413b3d"/><rect x="149.8893" y="115.1013" width=".8451" height="3.7455" fill="#413b3d"/><path d="M156.9255,116.9739c0,1.081-.8667,1.9108-2.0122,1.9108-1.1448,0-2.0114-.8244-2.0114-1.9108,0-1.0918,.8667-1.8992,2.0114-1.8992,1.1455,0,2.0122,.8128,2.0122,1.8992m-3.1569,0c0,.6584,.5301,1.1717,1.1563,1.1717,.6254,0,1.134-.5132,1.134-1.1717,0-.6577-.5086-1.1609-1.134-1.1609-.6316,0-1.1563,.5032-1.1563,1.1609" fill="#413b3d"/><polygon points="159.8578 115.1012 161.6771 117.509 161.6771 115.1012 162.4799 115.1012 162.4799 118.8466 161.7094 118.8466 159.8954 116.4442 159.8954 118.8466 159.0871 118.8466 159.0871 115.1012 159.8578 115.1012" fill="#413b3d"/><polygon points="61.5577 53.3371 62.7708 56.6731 64.6877 55.9755 65.1479 57.2424 61.7083 58.4932 60.0342 53.8911 61.5577 53.3371" fill="#ffa63b"/><path d="M71.6976,52.6727c.408,1.3937-.3773,2.7382-1.8724,3.1762s-2.8796-.2628-3.2898-1.6634c-.4088-1.3945,.3841-2.7121,1.8792-3.15s2.8757,.2489,3.283,1.6372m-3.5649,1.0518c.189,.6438,.7975,.9819,1.3338,.8244,.5363-.1567,.8259-.7583,.6377-1.4022-.189-.643-.7529-.9804-1.2899-.8228-.5424,.159-.8697,.7568-.6815,1.4006" fill="#ffa63b"/><path d="M76.3768,50.385c-.5731,.1275-.8874,.6777-.746,1.3115,.1429,.6415,.6623,1.0127,1.2354,.8851,.3411-.0769,.7237-.3834,.9627-.7875l1.1317,.7714c-.4026,.6984-1.1309,1.2546-1.8677,1.4183-1.4667,.3273-2.7628-.4794-3.0809-1.9054-.3127-1.4045,.5501-2.6706,2.0513-3.0048,.7299-.1629,1.6035,0,2.2135,.4226l-.6723,1.2884c-.3734-.325-.859-.4817-1.2278-.3995" fill="#ffa63b"/><path d="M84.5828,51.8354l-1.8155,.2812-.1437,.7222-1.6426,.2551,1.2922-5.1569,1.6434-.2551,2.719,4.5345-1.7056,.2651-.3472-.6461Zm-.5716-1.0856l-.7168-1.3384-.2912,1.4951,1.008-.1567Z" fill="#ffa63b"/><polygon points="90.0938 46.951 90.4158 50.4844 92.4471 50.2992 92.5701 51.6414 88.9245 51.9733 88.4804 47.0977 90.0938 46.951" fill="#ffa63b"/><polygon points="100.2515 46.4648 101.3041 49.0278 102.3889 46.4779 104.1 46.4886 104.0692 51.385 102.6587 51.3758 102.6755 48.6944 101.8235 50.8963 100.7616 50.8894 99.9373 48.6767 99.9204 51.3588 98.5098 51.3504 98.5405 46.454 100.2515 46.4648" fill="#ffa63b"/><path d="M110.1515,51.0879l-1.8316-.1445-.3058,.6692-1.658-.1306,2.4478-4.7205,1.658,.1314,1.5989,5.0393-1.7202-.136-.1891-.7084Zm-.3057-1.1878l-.3887-1.4674-.6285,1.3875,1.0172,.0799Z" fill="#ffa63b"/><path d="M117.1154,52.6231l-.3949-1.343-.6008-.0876-.1851,1.2569-1.6027-.2366,.7131-4.8418,2.3418,.3449c1.313,.1929,1.973,.932,1.8101,2.0376-.1037,.7045-.4502,1.1901-.9926,1.4206l.7214,1.7156-1.8101-.2666Zm-.8167-2.6468l.7391,.1091c.3449,.0507,.5777-.1345,.6323-.5071,.053-.3596-.1168-.5962-.4626-.6469l-.7391-.1091-.1698,1.154Z" fill="#ffa63b"/><polygon points="124.3752 53.9868 123.7345 52.126 123.1575 52.5447 122.9139 53.671 121.3297 53.3284 122.3646 48.5426 123.9488 48.8845 123.59 50.544 125.3763 49.1934 127.1995 49.5875 125.0759 51.1441 126.2668 54.3963 124.3752 53.9868" fill="#ffa63b"/><polygon points="133.8872 51.4193 133.55 52.601 131.126 51.9087 130.9608 52.4864 133.1635 53.1157 132.8262 54.2973 130.6235 53.6681 130.4568 54.252 132.9415 54.9619 132.6041 56.1436 128.5614 54.9896 129.9059 50.2822 133.8872 51.4193" fill="#ffa63b"/><polygon points="140.5945 53.692 140.1696 54.8975 138.852 54.4327 137.6496 57.8455 136.1214 57.3061 137.3239 53.8941 136.0131 53.4323 136.4379 52.2269 140.5945 53.692" fill="#ffa63b"/><path d="M102.4344,113.4497l6.0641,.2428c1.6819,0,3.2339-.4203,4.6574-1.2615,1.4229-.8405,2.1351-2.0537,2.1351-3.6387,0-2.3932-1.2293-4.0097-3.687-4.8518-.9389-.3227-1.6097-.6308-2.0138-.9212-.4049-.292-.6061-.6868-.6061-1.1894,0-.5009,.1698-.8889,.5094-1.1639,.3396-.2743,.7837-.4126,1.3346-.4126,1.7778,0,3.5173,.8736,5.2152,2.6199s2.5469,3.6141,2.5469,5.6032-.5992,3.6149-1.7954,4.8764c-2.0699,2.2641-5.2721,3.3959-9.6061,3.3959,.8735,1.4551,1.3099,3.2192,1.3099,5.2882,0,2.0706-1.0264,4.1403-3.08,6.2102-2.0545,2.0698-4.8687,3.1047-8.4421,3.1047s-6.4937-1.1479-8.7571-3.4443c-2.2641-2.2965-3.3959-5.143-3.3959-8.5389,0-1.9407,.5578-3.833,1.6741-5.6762,1.1155-1.8439,2.6107-3.3797,4.4868-4.609-.9696-.8736-1.8278-1.9407-2.5707-3.2023-.7445-1.2615-1.1163-2.5546-1.1163-3.8814,0-2.069,.7437-3.8399,2.2319-5.312,1.4874-1.4713,3.525-2.2073,6.1133-2.2073,1.6811,0,3.2338,.3719,4.6575,1.1156,1.4221,.7445,2.1343,1.5527,2.1343,2.4255,0,.5178-.1536,.9143-.4602,1.1893-.3081,.2751-.6554,.4118-1.0441,.4118-.388,0-1.0672-.3311-2.0375-.9942-.9704-.663-2.1267-.9949-3.4689-.9949s-2.4663,.388-3.372,1.1647c-.9058,.776-1.3576,1.7548-1.3576,2.9349,0,1.1809,.282,2.2972,.849,3.3475,.5655,1.0518,1.2523,1.8524,2.0614,2.4017,.6792-.1936,1.4475-.2912,2.3049-.2912,.8566,0,1.5927,.2028,2.2073,.6062,.6139,.4049,.9219,.9542,.9219,1.6503,0,.6953-.3234,1.2446-.9703,1.6488-.6477,.4049-1.4237,.6069-2.3287,.6069-.9058,0-1.7148-.1775-2.4263-.534-1.585,.776-2.8135,1.8601-3.6871,3.2507-.8728,1.3906-1.3092,2.9925-1.3092,4.8034,0,2.5223,.8159,4.6251,2.4493,6.307,1.6334,1.6818,3.6794,2.5223,6.1372,2.5223s4.4392-.6792,5.9435-2.0376c1.5036-1.3584,2.2558-2.9595,2.2558-4.8026,0-2.8143-.809-4.2211-2.4255-4.2211-.4211,0-.955,.1452-1.6011,.4364-.6477,.2912-1.2132,.4364-1.698,.4364-.4855,0-.8812-.1698-1.1886-.5094-.3081-.3396-.461-.7514-.461-1.237,0-.8083,.461-1.4552,1.3821-1.9407,.922-.4848,2.0299-.7276,3.3237-.7276" fill="#ffa63b"/></g></g></svg>