<?xml version="1.0" encoding="UTF-8"?><svg id="Layer_1" xmlns="http://www.w3.org/2000/svg" width="200" height="200" viewBox="0 0 200 200"><g id="tata-hall"><path d="M197.0803,101.8814c-2.1429,125.4751-188.7846,125.4554-190.9092-.004,2.1427-125.471,188.7845-125.4514,190.9092,.004Z" fill="#383838"/><path d="M193.829,98.1186c-2.1429,125.4751-188.7846,125.4554-190.9092-.004,2.1427-125.471,188.7845-125.4514,190.9092,.004Z" fill="#fff"/><g id="tata-hall-2"><g><path d="M95.4068,132.2374v-4.9541h-6.314v4.9541h-1.3438v-10.7983h1.3438v4.6465h6.314v-4.6465h1.3438v10.7983h-1.3438Z" fill="#5d1b24"/><path d="M110.3692,132.2374l-.9551-2.396h-5.4722l-.9551,2.396h-1.4897l4.3389-10.7983h1.6675l4.355,10.7983h-1.4893Zm-3.6914-9.6006l-2.3472,6.0063h4.6787l-2.3315-6.0063Z" fill="#5d1b24"/><path d="M116.6045,132.2374v-10.7983h1.3438v9.6001h5.019v1.1982h-6.3628Z" fill="#5d1b24"/><path d="M128.1988,132.2374v-10.7983h1.3438v9.6001h5.019v1.1982h-6.3628Z" fill="#5d1b24"/></g><g><path d="M74.9415,69.7208v5.6694h-1.3911c-.0356-.8555-.1426-1.6045-.3208-2.2466-.1787-.5347-.4731-1.043-.8823-1.5244-.4106-.481-.9722-.7217-1.6851-.7217h-2.1929v34.1792c0,.4995,.0708,.8647,.2139,1.0962,.1421,.2324,.3027,.3662,.4814,.4014,.1777,.1069,.3921,.1069,.6416,0v1.3906h-6.4722v-1.3906c.2852,.1069,.5166,.1069,.6958,0,.1777-.0352,.3477-.1689,.5078-.4014,.1606-.2314,.2407-.5967,.2407-1.0962v-34.1792h-2.2466c-.7485,0-1.3193,.2407-1.7114,.7217-.3931,.4814-.6602,.9897-.8022,1.5244-.2139,.6421-.3394,1.3911-.3745,2.2466h-1.4443v-5.6694h16.7422Z"/><path d="M98.4756,105.6651c0,.2856-.0718,.5796-.2139,.8823-.1431,.3032-.3477,.5884-.6152,.856s-.6069,.5078-1.0166,.7222c-.4102,.2139-.8823,.3208-1.417,.3208-.856,0-1.623-.1963-2.3003-.5884-.6777-.3921-1.1416-.9092-1.3906-1.5513-.2139-.356-.3745-.7661-.4814-1.23-.4639,.9624-1.1685,1.7651-2.1128,2.4067-.9453,.6421-1.9883,.9629-3.1289,.9629-1.4268,0-2.6748-.5166-3.7441-1.5513-.6069-.5347-1.106-1.23-1.498-2.0859-.3926-.856-.624-1.8364-.6953-2.9419-.0356-.1069-.0532-.3208-.0532-.6421v-.0532c.0352-.606,.1421-1.2388,.3208-1.8989,.1782-.6592,.4546-1.3188,.8291-1.979,.3745-.6597,.8198-1.2837,1.3374-1.8721,.5161-.5884,1.0781-1.0967,1.6846-1.5244,.1421-.0713,.2583-.1514,.3477-.2407,.0889-.0889,.2227-.1875,.4014-.2944,.0708-.0352,.1245-.0615,.1602-.0801,.0352-.0176,.0889-.0444,.1606-.0801,.6421-.3921,1.2036-.749,1.6851-1.0698s.9175-.6235,1.3105-.9092c.2139-.1421,.4277-.3027,.6416-.4814,.2139-.1782,.4453-.3564,.6953-.5352,.3208-.2139,.6235-.4629,.9092-.7485,.2852-.2852,.499-.6235,.6421-1.0166,.2139-.356,.3208-.7837,.3208-1.2837,0-.499-.0532-.9443-.1602-1.3369-.1431-.7842-.5083-1.4619-1.0967-2.0327-.5884-.5703-1.2393-.9443-1.9521-1.1235-.3213-.1069-.6245-.1602-.9097-.1602-.9985,0-1.8545,.1787-2.5674,.5347-.4639,.2139-.8022,.4546-1.0161,.7222s-.3301,.5176-.3477,.749c-.0186,.2324,.0269,.4194,.1338,.5615,.1069,.1431,.249,.25,.4277,.3208,.0708,.0361,.1152,.0537,.1338,.0537,.0176,0,.062,.0181,.1338,.0532,.4629,.1792,.8467,.4907,1.1499,.936,.3027,.4463,.4546,.936,.4546,1.4712,0,.6777-.2407,1.2568-.7222,1.7383s-1.0615,.7222-1.7383,.7222c-.7139,0-1.3198-.2407-1.8188-.7222-.4995-.4814-.7485-1.0605-.7485-1.7383,0-.606,.0801-1.2388,.2407-1.8989,.1602-.6597,.4009-1.2568,.7222-1.792,.6768-.998,1.4883-1.7197,2.4336-2.166,.9443-.4458,1.9873-.6689,3.1289-.6689,.856,0,1.7026,.1606,2.541,.4814,.8374,.3208,1.5859,.7759,2.2466,1.3643,.6592,.5884,1.2114,1.293,1.6577,2.1128,.4458,.8203,.6689,1.7651,.6689,2.8345v15.7261c0,.6416,.0083,1.061,.0269,1.2568,.0171,.1963,.0264,.3301,.0264,.4009,0,.4639,.1421,.8384,.4282,1.1235,.2847,.2856,.6235,.4277,1.0161,.4277,.4629,0,.8374-.1338,1.123-.4009,.2852-.2676,.4458-.6152,.4814-1.043h1.1235Zm-8.3979-1.3374c.2852-.499,.4546-1.0337,.5083-1.6045,.0532-.5703,.0801-1.105,.0801-1.605v-9.895c-.1426,.1426-.2939,.2764-.4546,.4009-.1602,.1255-.3301,.2769-.5083,.4546-1.0347,.749-1.917,1.436-2.6475,2.0596-.7314,.624-1.3462,1.2661-1.8452,1.9253-.5,.6606-.8921,1.3643-1.1768,2.1128-.2861,.749-.4639,1.605-.5352,2.5674v.8027c.0352,1.3555,.4014,2.416,1.0967,3.1826,.6953,.7671,1.6851,1.1499,2.9688,1.1499,.5698,0,1.0874-.1421,1.5508-.4282,.4634-.3208,.7842-.6953,.9629-1.123Z"/><path d="M114.7359,103.6324c0,1.2485-.3926,2.2646-1.1768,3.0488-.5347,.5347-1.1592,.9629-1.8721,1.2837-.7134,.3208-1.48,.4814-2.2998,.4814-1.2129,0-2.2827-.3394-3.2095-1.0161-.9277-.6772-1.6045-1.5688-2.0322-2.6748-.1074-.2847-.1875-.5791-.2407-.8823-.0537-.3027-.0806-.6504-.0806-1.043,0-.1069-.0093-.2759-.0264-.5083-.0186-.2314-.0269-.5083-.0269-.8291s-.0093-.6235-.0269-.9092c-.0186-.2852-.0269-.5352-.0269-.749v-16.4209h-3.6904v-1.4443h3.6904v-9.3604c0-.5347-.0801-.9175-.2407-1.1499-.1602-.2314-.3125-.3828-.4546-.4546-.1787-.0713-.4102-.0713-.6953,0v-1.2837h5.0815v12.2485h4.4932v1.4443h-4.4932v2.9956c0,1.0693-.0093,2.3091-.0269,3.7173-.0186,1.4092-.0269,2.8706-.0269,4.3862v7.3008c0,.856,.0176,1.3911,.0537,1.605,.249,1.2837,.6416,2.1309,1.1768,2.5405,.5347,.4102,1.1582,.6152,1.8721,.6152,.8198,0,1.5327-.2759,2.1396-.8291,.606-.5522,.9268-1.2568,.9624-2.1128h1.1768Z"/><path d="M136.9873,105.6651c0,.2856-.0718,.5796-.2139,.8823-.1431,.3032-.3477,.5884-.6152,.856s-.6069,.5078-1.0166,.7222c-.4102,.2139-.8823,.3208-1.417,.3208-.856,0-1.623-.1963-2.3003-.5884-.6777-.3921-1.1416-.9092-1.3906-1.5513-.2139-.356-.3745-.7661-.4814-1.23-.4639,.9624-1.1685,1.7651-2.1128,2.4067-.9453,.6421-1.9883,.9629-3.1289,.9629-1.4268,0-2.6748-.5166-3.7441-1.5513-.6069-.5347-1.106-1.23-1.498-2.0859-.3926-.856-.624-1.8364-.6953-2.9419-.0356-.1069-.0532-.3208-.0532-.6421v-.0532c.0352-.606,.1421-1.2388,.3208-1.8989,.1782-.6592,.4546-1.3188,.8291-1.979,.3745-.6597,.8198-1.2837,1.3374-1.8721,.5161-.5884,1.0781-1.0967,1.6846-1.5244,.1421-.0713,.2583-.1514,.3477-.2407,.0889-.0889,.2227-.1875,.4014-.2944,.0708-.0352,.1245-.0615,.1602-.0801,.0352-.0176,.0889-.0444,.1606-.0801,.6421-.3921,1.2036-.749,1.6851-1.0698s.9175-.6235,1.3105-.9092c.2139-.1421,.4277-.3027,.6416-.4814,.2139-.1782,.4453-.3564,.6953-.5352,.3208-.2139,.6235-.4629,.9092-.7485,.2852-.2852,.499-.6235,.6421-1.0166,.2139-.356,.3208-.7837,.3208-1.2837,0-.499-.0532-.9443-.1602-1.3369-.1431-.7842-.5083-1.4619-1.0967-2.0327-.5884-.5703-1.2393-.9443-1.9521-1.1235-.3213-.1069-.6245-.1602-.9097-.1602-.9985,0-1.8545,.1787-2.5674,.5347-.4639,.2139-.8022,.4546-1.0161,.7222s-.3301,.5176-.3477,.749c-.0186,.2324,.0269,.4194,.1338,.5615,.1069,.1431,.249,.25,.4277,.3208,.0708,.0361,.1152,.0537,.1338,.0537,.0176,0,.062,.0181,.1338,.0532,.4629,.1792,.8467,.4907,1.1499,.936,.3027,.4463,.4546,.936,.4546,1.4712,0,.6777-.2407,1.2568-.7222,1.7383s-1.0615,.7222-1.7383,.7222c-.7139,0-1.3198-.2407-1.8188-.7222-.4995-.4814-.7485-1.0605-.7485-1.7383,0-.606,.0801-1.2388,.2407-1.8989,.1602-.6597,.4009-1.2568,.7222-1.792,.6768-.998,1.4883-1.7197,2.4336-2.166,.9443-.4458,1.9873-.6689,3.1289-.6689,.856,0,1.7026,.1606,2.541,.4814,.8374,.3208,1.5859,.7759,2.2466,1.3643,.6592,.5884,1.2114,1.293,1.6577,2.1128,.4458,.8203,.6689,1.7651,.6689,2.8345v15.7261c0,.6416,.0083,1.061,.0269,1.2568,.0171,.1963,.0264,.3301,.0264,.4009,0,.4639,.1421,.8384,.4282,1.1235,.2847,.2856,.6235,.4277,1.0161,.4277,.4629,0,.8374-.1338,1.123-.4009,.2852-.2676,.4458-.6152,.4814-1.043h1.1235Zm-8.3979-1.3374c.2852-.499,.4546-1.0337,.5083-1.6045,.0532-.5703,.0801-1.105,.0801-1.605v-9.895c-.1426,.1426-.2939,.2764-.4546,.4009-.1602,.1255-.3301,.2769-.5083,.4546-1.0347,.749-1.917,1.436-2.6475,2.0596-.7314,.624-1.3462,1.2661-1.8452,1.9253-.5,.6606-.8921,1.3643-1.1768,2.1128-.2861,.749-.4639,1.605-.5352,2.5674v.8027c.0352,1.3555,.4014,2.416,1.0967,3.1826,.6953,.7671,1.6851,1.1499,2.9688,1.1499,.5698,0,1.0874-.1421,1.5508-.4282,.4634-.3208,.7842-.6953,.9629-1.123Z"/></g></g></g></svg>