<?xml version="1.0" encoding="UTF-8"?><svg id="Layer_1" xmlns="http://www.w3.org/2000/svg" width="203.9348" height="90.2278" viewBox="0 0 203.9348 90.2278"><polygon points="85.4883 75.7844 80.1123 88.9294 79.3063 88.9294 73.9543 75.7844 73.9543 88.9294 71.9883 88.9294 71.9883 73.1314 74.8073 73.1314 79.7093 85.1634 84.6353 73.1314 87.4543 73.1314 87.4543 88.9294 85.4883 88.9294 85.4883 75.7844" fill="#5d1b24"/><path d="M105.9809,85.4244h-8.006l-1.397,3.505h-2.179l6.348-15.797h2.44l6.371,15.797h-2.179l-1.398-3.505Zm-7.437-1.753h6.845l-3.4109-8.787-3.434,8.787Z" fill="#5d1b24"/><path d="M121.606,82.6533h-3.15v6.276h-1.966v-15.798h6.348c2.889,0,4.95,1.848,4.95,4.761,0,2.842-1.942,4.405-4.098,4.594l4.263,6.443h-2.32l-4.027-6.276Zm.995-7.769h-4.145v6.04h4.145c1.871,0,3.15-1.255,3.15-3.032s-1.2791-3.008-3.15-3.008" fill="#5d1b24"/><polygon points="159.2352 81.824 157.6483 83.624 157.6483 88.93 155.6832 88.93 155.6832 73.132 157.6483 73.132 157.6483 81.302 164.6353 73.132 167.0992 73.132 160.5142 80.64 167.6672 88.93 165.2272 88.93 159.2352 81.824" fill="#5d1b24"/><polygon points="174.6921 73.1317 185.0421 73.1317 185.0421 74.8847 176.6581 74.8847 176.6581 79.9767 184.8771 79.9767 184.8771 81.7287 176.6581 81.7287 176.6581 87.1767 185.0421 87.1767 185.0421 88.9287 174.6921 88.9287 174.6921 73.1317" fill="#5d1b24"/><polygon points="196.9478 74.8843 191.9498 74.8843 191.9498 73.1313 203.9348 73.1313 203.9348 74.8843 198.9138 74.8843 198.9138 88.9293 196.9478 88.9293 196.9478 74.8843" fill="#5d1b24"/><path d="M24.491,0V8.294h-2.035c-.052-1.252-.209-2.348-.4691-3.286-.262-.783-.692-1.527-1.291-2.23-.601-.704-1.422-1.057-2.465-1.057h-3.208V51.721c0,.73,.104,1.265,.313,1.604,.208,.339,.4431,.535,.704,.586,.261,.158,.574,.158,.939,0v2.035H7.511v-2.035c.417,.158,.756,.158,1.018,0,.259-.051,.508-.247,.743-.586,.234-.339,.353-.874,.353-1.604V1.721h-3.287c-1.096,0-1.931,.353-2.504,1.057-.575,.703-.966,1.447-1.174,2.23-.313,.938-.497,2.034-.547,3.286H0V0H24.491Z"/><path d="M37.9487,17.1363c1.199,0,2.426,.208,3.678,.626,1.252,.417,2.373,1.0699,3.364,1.956,.99,.887,1.787,2.009,2.386,3.364,.599,1.358,.9,2.974,.9,4.851v9.937h-15.571v8.06c0,3.235,.56,5.543,1.682,6.924,1.1219,1.384,2.517,2.048,4.186,1.995,.991-.051,1.968-.221,2.934-.507,.965-.286,1.801-.768,2.504-1.447,.705-.678,1.292-1.644,1.762-2.895,.469-1.253,.704-2.896,.704-4.931h1.799v1.097c0,1.407-.156,2.75-.47,4.028-.312,1.279-.86,2.387-1.6429,3.326-.781,.938-1.786,1.682-3.012,2.229-1.226,.55-2.726,.848-4.499,.901-1.252,0-2.531-.235-3.834-.704-1.305-.47-2.479-1.174-3.521-2.113-1.044-.938-1.905-2.046-2.582-3.326-.679-1.278-1.017-2.724-1.017-4.341v-1.841c0-.86-.014-1.864-.04-3.011-.026-1.148-.039-2.388-.039-3.718s-.013-2.621-.039-3.872c-.026-1.253-.039-2.387-.039-3.404v-2.308c0-1.879,.325-3.508,.978-4.89,.652-1.382,1.46-2.505,2.426-3.365,.964-.861,2.06-1.512,3.286-1.957,1.225-.442,2.465-.664,3.717-.664m5.086,18.7v-6.182c0-1.981-.131-3.638-.392-4.969-.261-1.33-.613-2.398-1.056-3.207-.444-.808-.978-1.368-1.604-1.682-.626-.313-1.33-.469-2.112-.469-1.67,0-2.935,.731-3.795,2.19-.861,1.461-1.291,4.174-1.291,8.137v6.182h10.25Z"/><path d="M67.056,17.1363c1.199,0,2.426,.208,3.678,.626,1.252,.417,2.373,1.0699,3.364,1.956,.99,.887,1.787,2.009,2.386,3.364,.599,1.358,.9,2.974,.9,4.851v9.937h-15.571v8.06c0,3.235,.56,5.543,1.682,6.924,1.1219,1.384,2.517,2.048,4.186,1.995,.991-.051,1.968-.221,2.934-.507,.965-.286,1.801-.768,2.504-1.447,.705-.678,1.292-1.644,1.761-2.895,.47-1.253,.705-2.896,.705-4.931h1.799v1.097c0,1.407-.156,2.75-.47,4.028-.312,1.279-.86,2.387-1.6429,3.326-.781,.938-1.787,1.682-3.012,2.229-1.226,.55-2.726,.848-4.499,.901-1.252,0-2.531-.235-3.834-.704-1.305-.47-2.479-1.174-3.521-2.113-1.044-.938-1.905-2.046-2.582-3.326-.679-1.278-1.017-2.724-1.017-4.341v-1.841c0-.86-.014-1.864-.04-3.011-.026-1.148-.039-2.388-.039-3.718s-.013-2.621-.039-3.872c-.027-1.253-.039-2.387-.039-3.404v-2.308c0-1.879,.325-3.508,.978-4.89,.652-1.382,1.46-2.505,2.426-3.365,.964-.861,2.06-1.512,3.286-1.957,1.225-.442,2.465-.664,3.717-.664m5.086,18.7v-6.182c0-1.981-.131-3.638-.392-4.969-.261-1.33-.613-2.398-1.056-3.207-.444-.808-.978-1.368-1.604-1.682-.626-.313-1.33-.469-2.112-.469-1.67,0-2.935,.731-3.795,2.19-.861,1.461-1.291,4.174-1.291,8.137v6.182h10.25Z"/><path d="M93.4241,51.7208c0,.73,.117,1.265,.353,1.604,.233,.339,.456,.536,.664,.587,.261,.157,.599,.157,1.0179,0v2.034h-9.468v-2.034c.417,.157,.782,.157,1.095,0,.157-.051,.365-.248,.626-.587,.261-.339,.391-.874,.391-1.604V4.3029c0-.782-.13-1.342-.391-1.682-.261-.338-.4691-.56-.626-.665-.313-.156-.678-.156-1.095,0V.0778h7.433V51.7208Z"/><path d="M115.097,17.1363c1.199,0,2.426,.208,3.678,.626,1.252,.417,2.373,1.0699,3.364,1.956,.99,.887,1.786,2.009,2.386,3.364,.599,1.358,.9,2.974,.9,4.851v9.937h-15.571v8.06c0,3.235,.56,5.543,1.682,6.924,1.1219,1.384,2.517,2.048,4.186,1.995,.991-.051,1.968-.221,2.934-.507,.965-.286,1.801-.768,2.504-1.447,.705-.678,1.292-1.644,1.761-2.895,.47-1.253,.705-2.896,.705-4.931h1.799v1.097c0,1.407-.156,2.75-.47,4.028-.312,1.279-.86,2.387-1.6429,3.326-.781,.938-1.787,1.682-3.012,2.229-1.226,.55-2.726,.848-4.499,.901-1.252,0-2.531-.235-3.834-.704-1.305-.47-2.479-1.174-3.521-2.113-1.044-.938-1.905-2.046-2.582-3.326-.679-1.278-1.017-2.724-1.017-4.341v-1.841c0-.86-.014-1.864-.04-3.011-.026-1.148-.039-2.388-.039-3.718s-.013-2.621-.039-3.872c-.027-1.253-.039-2.387-.039-3.404v-2.308c0-1.879,.325-3.508,.978-4.89,.652-1.382,1.46-2.505,2.426-3.365,.964-.861,2.06-1.512,3.286-1.957,1.225-.442,2.465-.664,3.717-.664m5.086,18.7v-6.182c0-1.981-.131-3.638-.392-4.969-.261-1.33-.613-2.398-1.056-3.207-.444-.808-.978-1.368-1.604-1.682-.626-.313-1.33-.469-2.112-.469-1.67,0-2.935,.731-3.795,2.19-.861,1.461-1.291,4.174-1.291,8.137v6.182h10.25Z"/><line x1="141.7283" y1="17.9848" x2="141.7283" y2="90.2278" fill="none" stroke="#000" stroke-miterlimit="10" stroke-width="1.348"/></svg>