<?xml version="1.0" encoding="UTF-8"?><svg id="Layer_1" xmlns="http://www.w3.org/2000/svg" width="200" height="200" viewBox="0 0 200 200"><g><circle cx="101.6256" cy="101.8814" r="95.4547" fill="#383838"/><circle cx="98.3744" cy="98.1186" r="95.4547" fill="#fff"/></g><g><polygon points="89.9549 118.6958 86.6778 126.7086 86.1865 126.7086 82.9241 118.6958 82.9241 126.7086 81.7257 126.7086 81.7257 117.0786 83.444 117.0786 86.4322 124.4129 89.4349 117.0786 91.1533 117.0786 91.1533 126.7086 89.9549 126.7086 89.9549 118.6958" fill="#5d1b24"/><path d="M102.4465,124.572h-4.8802l-.8516,2.1365h-1.3283l3.8696-9.6293h1.4873l3.8835,9.6293h-1.3282l-.8522-2.1365Zm-4.5334-1.0686h4.1725l-2.0792-5.3563-2.0933,5.3563Z" fill="#5d1b24"/><path d="M111.9711,122.8828h-1.9202v3.8257h-1.1984v-9.63h3.8696c1.761,0,3.0174,1.1265,3.0174,2.9021,0,1.7324-1.1838,2.6851-2.498,2.8004l2.5986,3.9275h-1.4142l-2.4547-3.8257Zm.6065-4.7357h-2.5267v3.6818h2.5267c1.1405,0,1.9202-.765,1.9202-1.8482s-.7797-1.8336-1.9202-1.8336" fill="#5d1b24"/><polygon points="134.9087 122.3773 133.9413 123.4745 133.9413 126.7089 132.7435 126.7089 132.7435 117.079 133.9413 117.079 133.9413 122.0591 138.2004 117.079 139.7023 117.079 135.6883 121.6556 140.0486 126.7089 138.5612 126.7089 134.9087 122.3773" fill="#5d1b24"/><polygon points="144.3307 117.0788 150.6397 117.0788 150.6397 118.1473 145.5291 118.1473 145.5291 121.2513 150.5391 121.2513 150.5391 122.3192 145.5291 122.3192 145.5291 125.6402 150.6397 125.6402 150.6397 126.7081 144.3307 126.7081 144.3307 117.0788" fill="#5d1b24"/><polygon points="157.897 118.1471 154.8504 118.1471 154.8504 117.0785 162.1561 117.0785 162.1561 118.1471 159.0954 118.1471 159.0954 126.7085 157.897 126.7085 157.897 118.1471" fill="#5d1b24"/><path d="M52.7729,72.5v5.0558h-1.2405c-.0317-.7632-.1274-1.4313-.2859-2.003-.1597-.4773-.4218-.9308-.7869-1.3593-.3664-.4292-.8668-.6443-1.5026-.6443h-1.9555v30.4784c0,.445,.0634,.7711,.1908,.9777,.1268,.2066,.2701,.3261,.4292,.3572,.1591,.0963,.3499,.0963,.5724,0v1.2405h-5.7714v-1.2405c.2542,.0963,.4608,.0963,.6205,0,.1579-.0311,.3097-.1506,.4529-.3572,.1426-.2067,.2152-.5328,.2152-.9777v-30.4784h-2.0036c-.6681,0-1.1771,.2152-1.5263,.6443-.3505,.4285-.5888,.882-.7156,1.3593-.1908,.5718-.303,1.2399-.3334,2.003h-1.288v-5.0558h14.929Z"/><path d="M60.9763,82.9457c.7309,0,1.4788,.1268,2.242,.3816,.7632,.2542,1.4465,.6522,2.0506,1.1923,.6035,.5407,1.0893,1.2246,1.4544,2.0506,.3651,.8278,.5486,1.8129,.5486,2.957v6.0573h-9.4916v4.9131c0,1.972,.3414,3.3788,1.0253,4.2207,.6839,.8436,1.5343,1.2484,2.5516,1.2161,.6041-.0311,1.1996-.1347,1.7885-.309,.5882-.1743,1.0978-.4682,1.5263-.8821,.4298-.4133,.7876-1.0021,1.0741-1.7647,.2859-.7638,.4291-1.7653,.4291-3.0058h1.0966v.6687c0,.8577-.0951,1.6763-.2865,2.4554-.1902,.7796-.5242,1.455-1.0015,2.0274-.4761,.5718-1.0887,1.0253-1.836,1.3587-.7473,.3353-1.6617,.5169-2.7425,.5492-.7632,0-1.5428-.1432-2.3371-.4291-.7955-.2865-1.5111-.7156-2.1463-1.288-.6364-.5718-1.1612-1.2472-1.5739-2.0274-.4139-.779-.6199-1.6605-.6199-2.6461v-1.1222c0-.5242-.0085-1.1362-.0244-1.8354-.0158-.6998-.0238-1.4556-.0238-2.2664s-.0079-1.5977-.0238-2.3603c-.0158-.7638-.0238-1.4551-.0238-2.075v-1.4069c0-1.1454,.1981-2.1384,.5961-2.9808,.3975-.8424,.89-1.527,1.4788-2.0512,.5876-.5249,1.2557-.9217,2.003-1.1929,.7467-.2694,1.5026-.4048,2.2658-.4048m3.1003,11.3989v-3.7684c0-1.2076-.0798-2.2176-.239-3.0289-.1591-.8107-.3737-1.4618-.6437-1.9549-.2707-.4926-.5962-.8339-.9777-1.0253-.3816-.1908-.8107-.2859-1.2874-.2859-1.018,0-1.7891,.4456-2.3133,1.335-.5249,.8906-.787,2.5443-.787,4.96v3.7684h6.2481Z"/><path d="M78.7191,82.9457c.7309,0,1.4788,.1268,2.242,.3816,.7632,.2542,1.4465,.6522,2.0506,1.1923,.6035,.5407,1.0893,1.2246,1.4544,2.0506,.3651,.8278,.5486,1.8129,.5486,2.957v6.0573h-9.4916v4.9131c0,1.972,.3414,3.3788,1.0253,4.2207,.6839,.8436,1.5343,1.2484,2.5516,1.2161,.6041-.0311,1.1996-.1347,1.7885-.309,.5882-.1743,1.0978-.4682,1.5263-.8821,.4298-.4133,.7876-1.0021,1.0734-1.7647,.2865-.7638,.4298-1.7653,.4298-3.0058h1.0966v.6687c0,.8577-.0951,1.6763-.2865,2.4554-.1902,.7796-.5242,1.455-1.0015,2.0274-.4761,.5718-1.0893,1.0253-1.836,1.3587-.7473,.3353-1.6617,.5169-2.7425,.5492-.7632,0-1.5428-.1432-2.3371-.4291-.7955-.2865-1.5111-.7156-2.1463-1.288-.6364-.5718-1.1612-1.2472-1.5739-2.0274-.4139-.779-.6199-1.6605-.6199-2.6461v-1.1222c0-.5242-.0085-1.1362-.0244-1.8354-.0158-.6998-.0238-1.4556-.0238-2.2664s-.0079-1.5977-.0238-2.3603c-.0165-.7638-.0238-1.4551-.0238-2.075v-1.4069c0-1.1454,.1981-2.1384,.5961-2.9808,.3975-.8424,.89-1.527,1.4788-2.0512,.5876-.5249,1.2557-.9217,2.003-1.1929,.7467-.2694,1.5026-.4048,2.2658-.4048m3.1003,11.3989v-3.7684c0-1.2076-.0798-2.2176-.239-3.0289-.1591-.8107-.3737-1.4618-.6437-1.9549-.2707-.4926-.5962-.8339-.9777-1.0253-.3816-.1908-.8107-.2859-1.2874-.2859-1.018,0-1.7891,.4456-2.3133,1.335-.5249,.8906-.787,2.5443-.787,4.96v3.7684h6.2481Z"/><path d="M94.7923,104.0274c0,.445,.0713,.7711,.2152,.9777,.142,.2066,.278,.3267,.4048,.3578,.1591,.0957,.3651,.0957,.6205,0v1.2399h-5.7714v-1.2399c.2542,.0957,.4767,.0957,.6675,0,.0957-.0311,.2225-.1512,.3816-.3578,.1591-.2066,.2383-.5328,.2383-.9777v-28.9045c0-.4767-.0792-.8181-.2383-1.0253-.1591-.206-.2859-.3414-.3816-.4054-.1908-.0951-.4133-.0951-.6675,0v-1.1448h4.5309v31.4799Z"/><path d="M108.0034,82.9457c.7309,0,1.4788,.1268,2.242,.3816,.7632,.2542,1.4465,.6522,2.0506,1.1923,.6035,.5407,1.0887,1.2246,1.4544,2.0506,.3651,.8278,.5486,1.8129,.5486,2.957v6.0573h-9.4916v4.9131c0,1.972,.3414,3.3788,1.0253,4.2207,.6839,.8436,1.5343,1.2484,2.5516,1.2161,.6041-.0311,1.1996-.1347,1.7885-.309,.5882-.1743,1.0978-.4682,1.5263-.8821,.4298-.4133,.7876-1.0021,1.0734-1.7647,.2865-.7638,.4298-1.7653,.4298-3.0058h1.0966v.6687c0,.8577-.0951,1.6763-.2865,2.4554-.1902,.7796-.5242,1.455-1.0015,2.0274-.4761,.5718-1.0893,1.0253-1.836,1.3587-.7473,.3353-1.6617,.5169-2.7425,.5492-.7632,0-1.5428-.1432-2.3371-.4291-.7955-.2865-1.5111-.7156-2.1463-1.288-.6364-.5718-1.1612-1.2472-1.5739-2.0274-.4139-.779-.6199-1.6605-.6199-2.6461v-1.1222c0-.5242-.0085-1.1362-.0244-1.8354-.0158-.6998-.0238-1.4556-.0238-2.2664s-.0079-1.5977-.0238-2.3603c-.0165-.7638-.0238-1.4551-.0238-2.075v-1.4069c0-1.1454,.1981-2.1384,.5961-2.9808,.3975-.8424,.89-1.527,1.4788-2.0512,.5876-.5249,1.2557-.9217,2.003-1.1929,.7467-.2694,1.5026-.4048,2.2658-.4048m3.1003,11.3989v-3.7684c0-1.2076-.0798-2.2176-.239-3.0289-.1591-.8107-.3737-1.4618-.6437-1.9549-.2707-.4926-.5962-.8339-.9777-1.0253-.3816-.1908-.8107-.2859-1.2874-.2859-1.018,0-1.7891,.4456-2.3133,1.335-.5249,.8906-.787,2.5443-.787,4.96v3.7684h6.2481Z"/><line x1="124.237" y1="83.463" x2="124.237" y2="127.5" fill="none" stroke="#000" stroke-miterlimit="10" stroke-width="1.348"/></g></svg>