<?xml version="1.0" encoding="UTF-8"?><svg id="Layer_1" xmlns="http://www.w3.org/2000/svg" width="194.2" height="192" viewBox="0 0 194.2 192"><g id="under-study"><path d="M194.2,97.9c-2.1,125.5-188.8,125.5-190.9,0,2.1-125.5,188.8-125.5,190.9,0Z" fill="#383838"/><path d="M190.9,94.1c-2.1,125.5-188.8,125.5-190.9,0,2.1-125.5,188.8-125.5,190.9,0Z" fill="#fff"/><g id="under-study-2"><path d="M22.1,82.4v-31.2h4.1v31.2c0,3.8,3.1,6.9,6.9,6.9s6.9-3.1,6.9-6.9v-31.2h4.1v31.2c0,14.4-22,14.4-22.1,0"/><path d="M93.9,88.7c25,1.8,24.9-35.2,0-33.4v33.4Zm-4.1,4.1V51.2c36.1-4.3,36.1,46,0,41.7Z"/><polygon points="123.2 92.9 123.2 51.2 141.3 51.2 141.3 55.3 127.3 55.3 127.3 69.9 141.3 69.9 141.3 74.1 127.3 74.1 127.3 88.7 141.3 88.7 141.3 92.9 123.2 92.9"/><path d="M155.1,75.9c16.5,1.7,16.5-22.3,0-20.6v20.6Zm-4.1,17V51.2c22-3.5,28.9,22.2,9.6,28.5l11.5,13.2h-5.5l-11.4-13v13h-4.1Z"/><path d="M28.5,142v-4.3c5.1,1.4,10-2.6,9.9-7.9-.4-7.7-8.9-10.1-8.6-18.6,0-7.1,5.3-11.8,11.9-11.8h30.3v4h-30.3c-8.6,0-10,10.6-4,15.6,8.9,7.9,4.6,25.1-9.1,22.9"/><path d="M77.8,130.7V51.2h4.1v79.5c-.1,9,13.9,9,13.8,0v-31.2h4.1v31.2c0,14.4-22,14.4-22.1,0"/><path d="M114.6,137c24.5,1.8,24.4-35.2,0-33.4v33.4Zm-4.1,4.1v-41.7c35.4-4.3,35.4,46,0,41.7Z"/><polygon points="152.8 141.1 152.8 122.8 139 99.5 143.7 99.5 154.8 118.1 165.9 99.5 170.6 99.5 156.9 122.8 156.9 141.1 152.8 141.1"/><rect x="57.5" y="108.7" width="4.1" height="32.5"/><path d="M71.9,79.1c-3-4.9-14.9-24.8-17.6-29.4v42.8h4.1v-28.1l13.5,22.4v-7.8Z"/></g></g></svg>